Pliska-Medium.ufo
<glyph name="numbersign" format="2">
  <advance width="500"/>
  <unicode hex="0023"/>
  <outline>
    <contour>
      <point x="4.66667" y="214" type="line"/>
      <point x="4.66667" y="275" type="line"/>
      <point x="117.667" y="275" type="line"/>
      <point x="137.667" y="409" type="line"/>
      <point x="32.3333" y="409" type="line"/>
      <point x="32.3333" y="470" type="line"/>
      <point x="146.333" y="470" type="line"/>
      <point x="177" y="674.667" type="line"/>
      <point x="241.333" y="674.667" type="line"/>
      <point x="211" y="470" type="line"/>
      <point x="337.333" y="470" type="line"/>
      <point x="367.333" y="674.667" type="line"/>
      <point x="431.667" y="674.667" type="line"/>
      <point x="402" y="470" type="line"/>
      <point x="496" y="470" type="line"/>
      <point x="496" y="409" type="line"/>
      <point x="393.333" y="409" type="line"/>
      <point x="374" y="275" type="line"/>
      <point x="469.667" y="275" type="line"/>
      <point x="469.667" y="214" type="line"/>
      <point x="364.333" y="214" type="line"/>
      <point x="334" y="0" type="line"/>
      <point x="269.333" y="0" type="line"/>
      <point x="299.667" y="214" type="line"/>
      <point x="172.667" y="214" type="line"/>
      <point x="141" y="0" type="line"/>
      <point x="76.3333" y="0" type="line"/>
      <point x="108" y="214" type="line"/>
    </contour>
    <contour>
      <point x="182.333" y="275" type="line"/>
      <point x="309.333" y="275" type="line"/>
      <point x="328.667" y="409" type="line"/>
      <point x="202.333" y="409" type="line"/>
    </contour>
  </outline>
</glyph>
<glyph name="dollar" format="2">
  <advance width="500"/>
  <unicode hex="0024"/>
  <outline>
    <contour>
      <point x="39" y="198.797" type="curve"/>
      <point x="39" y="247.108"/>
      <point x="61.7409" y="322.51"/>
      <point x="100.667" y="344.667" type="curve"/>
      <point x="110.667" y="370.667" type="line"/>
      <point x="130.595" y="300.667"/>
      <point x="176.905" y="268.667"/>
      <point x="243" y="268.667" type="curve"/>
      <point x="243" y="431.333" type="line"/>
      <point x="182.719" y="472.434"/>
      <point x="161.667" y="502.304"/>
      <point x="177.333" y="550.759" type="curve"/>
      <point x="177.333" y="598.281"/>
      <point x="220.025" y="605.067"/>
      <point x="296" y="603" type="curve"/>
      <point x="289" y="645" type="line"/>
      <point x="284.017" y="682.527"/>
      <point x="287.352" y="693.536"/>
      <point x="265.667" y="698.333" type="curve"/>
      <point x="265.667" y="584.667" type="line"/>
      <point x="371.729" y="553.682"/>
      <point x="418" y="523.736"/>
      <point x="440.667" y="471.193" type="curve"/>
      <point x="440.667" y="422.267"/>
      <point x="420.831" y="359.618"/>
      <point x="373" y="333.333" type="curve"/>
      <point x="363" y="300.333" type="line"/>
      <point x="348.021" y="356.907"/>
      <point x="307.013" y="384.989"/>
      <point x="247.333" y="391.667" type="curve"/>
      <point x="247.333" y="260.667" type="line"/>
      <point x="323.479" y="210.555"/>
      <point x="347.333" y="176.875"/>
      <point x="320" y="130.881" type="curve"/>
      <point x="320" y="74.7331"/>
      <point x="278.705" y="68.4782"/>
      <point x="191.333" y="66.3333" type="curve"/>
      <point x="198.333" y="7.66667" type="line"/>
      <point x="203.54" y="-28.1434"/>
      <point x="203.186" y="-43.3084"/>
      <point x="224.333" y="-48" type="curve"/>
      <point x="224.333" y="93.6667" type="line"/>
      <point x="123.922" y="117.873"/>
      <point x="79" y="144.831"/>
    </contour>
    <contour>
      <point x="125.333" y="539.987" type="curve" smooth="yes"/>
      <point x="125.333" y="494.414"/>
      <point x="148.804" y="466.682"/>
      <point x="223.667" y="422.667" type="curve"/>
      <point x="223.667" y="639.333" type="line"/>
      <point x="156.376" y="624.608"/>
      <point x="125.333" y="593.096"/>
    </contour>
    <contour>
      <point x="265.667" y="28.6667" type="line"/>
      <point x="346.103" y="42.8332"/>
      <point x="372.667" y="79.1129"/>
      <point x="372.667" y="149.429" type="curve" smooth="yes"/>
      <point x="372.667" y="201.711"/>
      <point x="356.56" y="225.387"/>
      <point x="265.667" y="278.667" type="curve"/>
    </contour>
  </outline>
</glyph>
<glyph name="plus" format="2">
  <advance width="566"/>
  <unicode hex="002B"/>
  <outline>
    <contour>
      <point x="31" y="216.333" type="line"/>
      <point x="31" y="289.667" type="line"/>
      <point x="246.333" y="289.667" type="line"/>
      <point x="246.333" y="506" type="line"/>
      <point x="319.667" y="506" type="line"/>
      <point x="319.667" y="289.667" type="line"/>
      <point x="535" y="289.667" type="line"/>
      <point x="535" y="216.333" type="line"/>
      <point x="319.667" y="216.333" type="line"/>
      <point x="319.667" y="0" type="line"/>
      <point x="246.333" y="0" type="line"/>
      <point x="246.333" y="216.333" type="line"/>
    </contour>
  </outline>
</glyph>
<glyph name="comma" format="2">
  <advance width="229"/>
  <unicode hex="002C"/>
  <outline>
    <contour>
      <point x="33" y="54" type="curve" smooth="yes"/>
      <point x="33" y="93.3333"/>
      <point x="60" y="119.667"/>
      <point x="100" y="119.667" type="curve" smooth="yes"/>
      <point x="150" y="119.667"/>
      <point x="187" y="78"/>
      <point x="187" y="19.0813" type="curve" smooth="yes"/>
      <point x="187" y="-47"/>
      <point x="140.333" y="-109.667"/>
      <point x="57" y="-154" type="curve"/>
      <point x="47.3333" y="-134" type="line"/>
      <point x="108.333" y="-92"/>
      <point x="138.333" y="-53.3333"/>
      <point x="138.333" y="-23.6576" type="curve" smooth="yes"/>
      <point x="138.333" y="-9.66667"/>
      <point x="131.667" y="-2.33333"/>
      <point x="122.104" y="-2.33333" type="curve" smooth="yes"/>
      <point x="119.943" y="-2.33333"/>
      <point x="116.306" y="-2.98793"/>
      <point x="112.669" y="-3.73447" type="curve" smooth="yes"/>
      <point x="107.86" y="-4.71963"/>
      <point x="102.311" y="-5.86723"/>
      <point x="94.332" y="-5.88593" type="curve" smooth="yes"/>
      <point x="58.3333" y="-6"/>
      <point x="33" y="17.3333"/>
    </contour>
  </outline>
</glyph>
<glyph name="zero" format="2">
  <advance width="500"/>
  <unicode hex="0030"/>
  <outline>
    <contour>
      <point x="24" y="330.333" type="curve" smooth="yes"/>
      <point x="24" y="494"/>
      <point x="94" y="680"/>
      <point x="250.333" y="680" type="curve" smooth="yes"/>
      <point x="408" y="680"/>
      <point x="476" y="490"/>
      <point x="476" y="330.333" type="curve" smooth="yes"/>
      <point x="476" y="190.667"/>
      <point x="419.333" y="-13.6667"/>
      <point x="250.48" y="-13.6667" type="curve" smooth="yes"/>
      <point x="84.6667" y="-13.6667"/>
      <point x="24" y="183.667"/>
    </contour>
    <contour>
      <point x="140.667" y="328.213" type="curve" smooth="yes"/>
      <point x="140.667" y="210.611"/>
      <point x="143.057" y="13"/>
      <point x="250.333" y="13" type="curve" smooth="yes"/>
      <point x="357.049" y="13"/>
      <point x="359.333" y="211.872"/>
      <point x="359.333" y="326.366" type="curve" smooth="yes"/>
      <point x="359.333" y="443.447"/>
      <point x="356.972" y="653.333"/>
      <point x="249.667" y="653.333" type="curve" smooth="yes"/>
      <point x="142.981" y="653.333"/>
      <point x="140.667" y="443.313"/>
    </contour>
  </outline>
</glyph>
<glyph name="nine" format="2">
  <advance width="500"/>
  <unicode hex="0039"/>
  <outline>
    <contour>
      <point x="28.6667" y="444.667" type="curve" smooth="yes"/>
      <point x="28.6667" y="551.333"/>
      <point x="94.6667" y="680"/>
      <point x="235.042" y="680" type="curve" smooth="yes"/>
      <point x="353.333" y="680"/>
      <point x="463.667" y="585.667"/>
      <point x="463.667" y="392.527" type="curve" smooth="yes"/>
      <point x="463.667" y="192.333"/>
      <point x="319" y="1.66667"/>
      <point x="49.6667" y="-19" type="curve"/>
      <point x="47.6667" y="3" type="line"/>
      <point x="242.148" y="36.2964"/>
      <point x="318.052" y="205.162"/>
      <point x="339.199" y="283.973" type="curve"/>
      <point x="337.667" y="285.667" type="line"/>
      <point x="298.797" y="255.914"/>
      <point x="253.005" y="242.667"/>
      <point x="210.298" y="242.667" type="curve" smooth="yes"/>
      <point x="96.6667" y="242.667"/>
      <point x="28.6667" y="332.667"/>
    </contour>
    <contour>
      <point x="140.667" y="489.748" type="curve" smooth="yes"/>
      <point x="140.667" y="389.667"/>
      <point x="160.667" y="286.333"/>
      <point x="247.775" y="286.333" type="curve" smooth="yes"/>
      <point x="281.667" y="286.333"/>
      <point x="329.066" y="302.622"/>
      <point x="343.256" y="320" type="curve"/>
      <point x="344.623" y="333.023"/>
      <point x="346.256" y="383.073"/>
      <point x="346.256" y="396.667" type="curve" smooth="yes"/>
      <point x="346.256" y="501.667"/>
      <point x="339" y="652.333"/>
      <point x="235.429" y="652.333" type="curve" smooth="yes"/>
      <point x="156" y="652.333"/>
      <point x="140.667" y="569.333"/>
    </contour>
  </outline>
</glyph>
<glyph name="equal" format="2">
  <advance width="566"/>
  <unicode hex="003D"/>
  <outline>
    <contour>
      <point x="31" y="115.667" type="line"/>
      <point x="31" y="189" type="line"/>
      <point x="535" y="189" type="line"/>
      <point x="535" y="115.667" type="line"/>
    </contour>
    <contour>
      <point x="31" y="317" type="line"/>
      <point x="31" y="390.333" type="line"/>
      <point x="535" y="390.333" type="line"/>
      <point x="535" y="317" type="line"/>
    </contour>
  </outline>
</glyph>
<glyph name="question" format="2">
  <advance width="463"/>
  <unicode hex="003F"/>
  <outline>
    <contour>
      <point x="64.3333" y="535.667" type="curve" smooth="yes"/>
      <point x="64.3333" y="619"/>
      <point x="137" y="680.333"/>
      <point x="235" y="680.333" type="curve" smooth="yes"/>
      <point x="339.667" y="680.333"/>
      <point x="424.333" y="619.667"/>
      <point x="424.333" y="521.667" type="curve" smooth="yes"/>
      <point x="424.333" y="448"/>
      <point x="381.667" y="395"/>
      <point x="314" y="331" type="curve" smooth="yes"/>
      <point x="268.333" y="286.667"/>
      <point x="254.333" y="255.333"/>
      <point x="247" y="186.333" type="curve"/>
      <point x="225.667" y="186.333" type="line"/>
      <point x="225.667" y="225.667"/>
      <point x="231" y="260.667"/>
      <point x="245" y="296.333" type="curve"/>
      <point x="247.533" y="311.455"/>
      <point x="261.64" y="345.273"/>
      <point x="274.333" y="371.333" type="curve" smooth="yes"/>
      <point x="301.333" y="428.667"/>
      <point x="313.333" y="477"/>
      <point x="313.333" y="525" type="curve" smooth="yes"/>
      <point x="313.333" y="597"/>
      <point x="271" y="648.333"/>
      <point x="213.333" y="648.333" type="curve" smooth="yes"/>
      <point x="168.667" y="648.333"/>
      <point x="129.667" y="623"/>
      <point x="129.667" y="593.667" type="curve" smooth="yes"/>
      <point x="129.667" y="585"/>
      <point x="134" y="577"/>
      <point x="146" y="563.333" type="curve" smooth="yes"/>
      <point x="161.667" y="545.667"/>
      <point x="167.333" y="533.667"/>
      <point x="167.333" y="517.667" type="curve" smooth="yes"/>
      <point x="167.333" y="489"/>
      <point x="147.667" y="469"/>
      <point x="119" y="469" type="curve" smooth="yes"/>
      <point x="85.3333" y="469"/>
      <point x="64.3333" y="494.333"/>
    </contour>
    <contour>
      <point x="174" y="52.6667" type="curve" smooth="yes"/>
      <point x="174" y="89"/>
      <point x="202.333" y="118"/>
      <point x="237.667" y="118" type="curve" smooth="yes"/>
      <point x="272.333" y="118"/>
      <point x="301.667" y="88.3333"/>
      <point x="301.667" y="53" type="curve" smooth="yes"/>
      <point x="301.667" y="17.3333"/>
      <point x="274" y="-9.66667"/>
      <point x="237" y="-9.66667" type="curve" smooth="yes"/>
      <point x="201" y="-9.66667"/>
      <point x="174" y="17.3333"/>
    </contour>
  </outline>
</glyph>
<glyph name="at" format="2">
  <advance width="924"/>
  <unicode hex="0040"/>
  <outline>
    <contour>
      <point x="113.333" y="328.769" type="curve" smooth="yes"/>
      <point x="113.333" y="524.207"/>
      <point x="277" y="681"/>
      <point x="482.333" y="681" type="curve" smooth="yes"/>
      <point x="669" y="681"/>
      <point x="813.333" y="551.611"/>
      <point x="813.333" y="384.37" type="curve" smooth="yes"/>
      <point x="813.333" y="255.697"/>
      <point x="727.667" y="143"/>
      <point x="629.374" y="143" type="curve" smooth="yes"/>
      <point x="579" y="143"/>
      <point x="542" y="172.333"/>
      <point x="535.667" y="217.731" type="curve"/>
      <point x="501.333" y="171.333"/>
      <point x="454" y="144"/>
      <point x="413.883" y="144" type="curve" smooth="yes"/>
      <point x="360" y="144"/>
      <point x="320.333" y="194.621"/>
      <point x="320.333" y="265.517" type="curve" smooth="yes"/>
      <point x="320.333" y="363.782"/>
      <point x="396.543" y="511.667"/>
      <point x="515.678" y="511.667" type="curve" smooth="yes"/>
      <point x="555.246" y="511.667"/>
      <point x="580.907" y="495.337"/>
      <point x="591" y="458.072" type="curve"/>
      <point x="601.333" y="497.556" type="line"/>
      <point x="671" y="497.556" type="line"/>
      <point x="605.667" y="242.816" type="line" smooth="yes"/>
      <point x="604.497" y="238.256"/>
      <point x="603.667" y="230.473"/>
      <point x="603.667" y="223.492" type="curve" smooth="yes"/>
      <point x="603.667" y="194.283"/>
      <point x="616.667" y="177.333"/>
      <point x="643.328" y="177.333" type="curve" smooth="yes"/>
      <point x="708.333" y="177.333"/>
      <point x="771" y="275.502"/>
      <point x="771" y="377.075" type="curve" smooth="yes"/>
      <point x="771" y="524.197"/>
      <point x="640" y="646"/>
      <point x="483.333" y="646" type="curve" smooth="yes"/>
      <point x="308.94" y="646"/>
      <point x="200" y="497.991"/>
      <point x="200" y="329.177" type="curve" smooth="yes"/>
      <point x="200" y="149.667"/>
      <point x="322.667" y="25.6667"/>
      <point x="503.548" y="25.6667" type="curve" smooth="yes"/>
      <point x="561.333" y="25.6667"/>
      <point x="612" y="38.3333"/>
      <point x="691.333" y="74" type="curve"/>
      <point x="703.667" y="42.3333" type="line"/>
      <point x="606.667" y="-2.33333"/>
      <point x="555.667" y="-15.6667"/>
      <point x="491.231" y="-15.6667" type="curve" smooth="yes"/>
      <point x="275.333" y="-15.6667"/>
      <point x="113.333" y="134"/>
    </contour>
    <contour>
      <point x="393.333" y="269.795" type="curve" smooth="yes"/>
      <point x="393.333" y="223.012"/>
      <point x="416.333" y="189"/>
      <point x="452.651" y="189" type="curve" smooth="yes"/>
      <point x="529.926" y="189"/>
      <point x="573.144" y="342.836"/>
      <point x="573.667" y="401.291" type="curve"/>
      <point x="573.726" y="407.484" type="line"/>
      <point x="574.03" y="442.126"/>
      <point x="555.612" y="466.382"/>
      <point x="522.718" y="466.378" type="curve" smooth="yes"/>
      <point x="448.202" y="466.37"/>
      <point x="393.333" y="342.053"/>
    </contour>
  </outline>
</glyph>
<glyph name="B" format="2">
  <advance width="637"/>
  <unicode hex="0042"/>
  <outline>
    <contour>
      <point x="13.3333" y="0" type="line"/>
      <point x="13.3333" y="21" type="line"/>
      <point x="88.3333" y="23.6667"/>
      <point x="106.667" y="36.3333"/>
      <point x="106.667" y="104.667" type="curve" smooth="yes"/>
      <point x="106.667" y="562" type="line" smooth="yes"/>
      <point x="106.667" y="631"/>
      <point x="87" y="642.333"/>
      <point x="13.3333" y="645.667" type="curve"/>
      <point x="13.3333" y="666.667" type="line"/>
      <point x="303" y="666.667" type="line" smooth="yes"/>
      <point x="434" y="666.667"/>
      <point x="564.333" y="630.333"/>
      <point x="564.333" y="500.667" type="curve" smooth="yes"/>
      <point x="564.333" y="415.741"/>
      <point x="514.238" y="378.831"/>
      <point x="422.667" y="355" type="curve"/>
      <point x="422.667" y="352.333" type="line"/>
      <point x="518.402" y="332.237"/>
      <point x="598.333" y="283.807"/>
      <point x="598.333" y="180" type="curve" smooth="yes"/>
      <point x="598.333" y="55"/>
      <point x="473.667" y="0"/>
      <point x="343.333" y="0" type="curve" smooth="yes"/>
    </contour>
    <contour>
      <point x="228.667" y="83" type="line" smooth="yes"/>
      <point x="228.667" y="45.0757"/>
      <point x="259.498" y="35.3333"/>
      <point x="299" y="35.3333" type="curve" smooth="yes"/>
      <point x="391.972" y="35.3333"/>
      <point x="465" y="72"/>
      <point x="465" y="179.667" type="curve" smooth="yes"/>
      <point x="465" y="313"/>
      <point x="347" y="331.667"/>
      <point x="242" y="331.667" type="curve" smooth="yes"/>
      <point x="228.667" y="331.667" type="line"/>
    </contour>
    <contour>
      <point x="228.667" y="367.667" type="line"/>
      <point x="234.667" y="367.667" type="line" smooth="yes"/>
      <point x="347.155" y="367.667"/>
      <point x="441.333" y="384.771"/>
      <point x="441.333" y="494.333" type="curve" smooth="yes"/>
      <point x="441.333" y="596.333"/>
      <point x="375.333" y="632"/>
      <point x="290.667" y="632" type="curve" smooth="yes"/>
      <point x="251.615" y="632"/>
      <point x="228.667" y="620.813"/>
      <point x="228.667" y="582.333" type="curve" smooth="yes"/>
    </contour>
  </outline>
</glyph>
<glyph name="C" format="2">
  <advance width="685"/>
  <unicode hex="0043"/>
  <outline>
    <contour>
      <point x="35" y="331.333" type="curve" smooth="yes"/>
      <point x="35" y="532.074"/>
      <point x="178.204" y="681"/>
      <point x="380.333" y="681" type="curve" smooth="yes"/>
      <point x="470.667" y="681"/>
      <point x="532.333" y="642.667"/>
      <point x="567.333" y="642.667" type="curve" smooth="yes"/>
      <point x="591.333" y="642.667"/>
      <point x="606.333" y="657.333"/>
      <point x="613.333" y="680" type="curve"/>
      <point x="636.333" y="680" type="line"/>
      <point x="636.333" y="452" type="line"/>
      <point x="612.667" y="452" type="line"/>
      <point x="582.667" y="557"/>
      <point x="503.333" y="643.333"/>
      <point x="388.333" y="643.333" type="curve" smooth="yes"/>
      <point x="224.49" y="643.333"/>
      <point x="171.333" y="470.941"/>
      <point x="171.333" y="331.333" type="curve" smooth="yes"/>
      <point x="171.333" y="185"/>
      <point x="229.667" y="29.6667"/>
      <point x="399.667" y="29.6667" type="curve" smooth="yes"/>
      <point x="494.667" y="29.6667"/>
      <point x="565" y="72.3333"/>
      <point x="629" y="138" type="curve"/>
      <point x="651" y="117.667" type="line"/>
      <point x="588" y="33"/>
      <point x="482" y="-15.6667"/>
      <point x="377.333" y="-15.6667" type="curve" smooth="yes"/>
      <point x="169.667" y="-15.6667"/>
      <point x="35" y="124.333"/>
    </contour>
  </outline>
</glyph>
<glyph name="E" format="2">
  <advance width="630"/>
  <unicode hex="0045"/>
  <outline>
    <contour>
      <point x="13.3333" y="0" type="line"/>
      <point x="13.3333" y="21" type="line"/>
      <point x="86.6667" y="27"/>
      <point x="100.667" y="40.6667"/>
      <point x="100.667" y="104.667" type="curve" smooth="yes"/>
      <point x="100.667" y="562" type="line" smooth="yes"/>
      <point x="100.667" y="625.667"/>
      <point x="85.6667" y="640.333"/>
      <point x="13.3333" y="645.667" type="curve"/>
      <point x="13.3333" y="666.667" type="line"/>
      <point x="559.667" y="666.667" type="line"/>
      <point x="561.667" y="502.333" type="line"/>
      <point x="536.667" y="502.333" type="line"/>
      <point x="517.363" y="604.736"/>
      <point x="487.402" y="629.967"/>
      <point x="363.217" y="629.967" type="curve" smooth="yes"/>
      <point x="266.333" y="629.967" type="line" smooth="yes"/>
      <point x="231.001" y="629.967"/>
      <point x="222.667" y="621"/>
      <point x="222.667" y="589.667" type="curve" smooth="yes"/>
      <point x="222.667" y="366.333" type="line"/>
      <point x="326.77" y="366.327" type="line"/>
      <point x="424.347" y="366.327"/>
      <point x="440.4" y="397.176"/>
      <point x="452.667" y="478.667" type="curve"/>
      <point x="476.667" y="478.667" type="line"/>
      <point x="476.667" y="211.333" type="line"/>
      <point x="452.667" y="211.333" type="line"/>
      <point x="440.05" y="304.853"/>
      <point x="416.671" y="326.835"/>
      <point x="326.678" y="326.994" type="curve"/>
      <point x="222.667" y="327" type="line"/>
      <point x="222.667" y="82.3333" type="line" smooth="yes"/>
      <point x="222.667" y="44.6667"/>
      <point x="229.667" y="35.6667"/>
      <point x="287" y="35.6667" type="curve"/>
      <point x="344.123" y="35.7644" type="line"/>
      <point x="483.466" y="37.2881"/>
      <point x="532.703" y="71.8949"/>
      <point x="583.667" y="182" type="curve"/>
      <point x="611.667" y="182" type="line"/>
      <point x="568.333" y="0" type="line"/>
    </contour>
  </outline>
</glyph>
<glyph name="F" format="2">
  <advance width="574"/>
  <unicode hex="0046"/>
  <outline>
    <contour>
      <point x="13.3333" y="0" type="line"/>
      <point x="13.3333" y="21" type="line"/>
      <point x="88.6667" y="27"/>
      <point x="100.667" y="39.3333"/>
      <point x="100.667" y="112" type="curve" smooth="yes"/>
      <point x="100.667" y="562" type="line" smooth="yes"/>
      <point x="100.667" y="626"/>
      <point x="85.6667" y="640.333"/>
      <point x="13.3333" y="645.667" type="curve"/>
      <point x="13.3333" y="666.667" type="line"/>
      <point x="558.333" y="666.667" type="line"/>
      <point x="558.333" y="502.333" type="line"/>
      <point x="533.667" y="502.333" type="line"/>
      <point x="512.079" y="608.476"/>
      <point x="485.87" y="630"/>
      <point x="361.777" y="630" type="curve" smooth="yes"/>
      <point x="265.333" y="630" type="line" smooth="yes"/>
      <point x="230.333" y="630"/>
      <point x="222.667" y="620.667"/>
      <point x="222.667" y="589.667" type="curve" smooth="yes"/>
      <point x="222.667" y="366.36" type="line"/>
      <point x="322.667" y="366.333" type="line"/>
      <point x="407.784" y="366.083"/>
      <point x="429.36" y="386.058"/>
      <point x="443.667" y="479.333" type="curve"/>
      <point x="467.333" y="479.333" type="line"/>
      <point x="467.333" y="212" type="line"/>
      <point x="443.667" y="212" type="line"/>
      <point x="431" y="304.667"/>
      <point x="410.673" y="327.61"/>
      <point x="322.667" y="327.667" type="curve" smooth="yes"/>
      <point x="222.667" y="327.672" type="line"/>
      <point x="222.667" y="104.667" type="line" smooth="yes"/>
      <point x="222.667" y="38.3333"/>
      <point x="238" y="25"/>
      <point x="320" y="21" type="curve"/>
      <point x="320" y="0" type="line"/>
    </contour>
  </outline>
</glyph>
<glyph name="H" format="2">
  <advance width="735"/>
  <unicode hex="0048"/>
  <outline>
    <contour>
      <point x="13.3333" y="0" type="line"/>
      <point x="13.3333" y="21" type="line"/>
      <point x="88.6667" y="27.3333"/>
      <point x="100.333" y="39.6667"/>
      <point x="100.333" y="112" type="curve" smooth="yes"/>
      <point x="100.333" y="562" type="line" smooth="yes"/>
      <point x="100.333" y="626.667"/>
      <point x="87" y="639"/>
      <point x="13.3333" y="645.667" type="curve"/>
      <point x="13.3333" y="666.667" type="line"/>
      <point x="311" y="666.667" type="line"/>
      <point x="311" y="645.667" type="line"/>
      <point x="236.333" y="639.333"/>
      <point x="222.333" y="626.667"/>
      <point x="222.333" y="562" type="curve" smooth="yes"/>
      <point x="222.333" y="363.667" type="line"/>
      <point x="504.667" y="363.667" type="line"/>
      <point x="504.667" y="562" type="line" smooth="yes"/>
      <point x="504.667" y="626.667"/>
      <point x="490.667" y="639.333"/>
      <point x="416" y="645.667" type="curve"/>
      <point x="416" y="666.667" type="line"/>
      <point x="714.667" y="666.667" type="line"/>
      <point x="714.667" y="645.667" type="line"/>
      <point x="640.667" y="639.333"/>
      <point x="626.667" y="626.667"/>
      <point x="626.667" y="562" type="curve" smooth="yes"/>
      <point x="626.667" y="104.667" type="line" smooth="yes"/>
      <point x="626.667" y="41"/>
      <point x="640.667" y="28"/>
      <point x="714.667" y="21" type="curve"/>
      <point x="714.667" y="0" type="line"/>
      <point x="416" y="0" type="line"/>
      <point x="416" y="21" type="line"/>
      <point x="492.333" y="27"/>
      <point x="504.667" y="39.6667"/>
      <point x="504.667" y="112" type="curve" smooth="yes"/>
      <point x="504.667" y="320.667" type="line"/>
      <point x="222.333" y="320.667" type="line"/>
      <point x="222.333" y="104.667" type="line" smooth="yes"/>
      <point x="222.333" y="41"/>
      <point x="236.667" y="27.6667"/>
      <point x="311" y="21" type="curve"/>
      <point x="311" y="0" type="line"/>
    </contour>
  </outline>
</glyph>
<glyph name="I" format="2">
  <advance width="348"/>
  <unicode hex="0049"/>
  <outline>
    <contour>
      <point x="13.3333" y="0" type="line"/>
      <point x="13.3333" y="21" type="line"/>
      <point x="94.3333" y="25.3333"/>
      <point x="109" y="38"/>
      <point x="109" y="104.667" type="curve" smooth="yes"/>
      <point x="109" y="562" type="line" smooth="yes"/>
      <point x="109" y="628.333"/>
      <point x="94" y="640.667"/>
      <point x="13.3333" y="645.667" type="curve"/>
      <point x="13.3333" y="666.667" type="line"/>
      <point x="328" y="666.667" type="line"/>
      <point x="328" y="645.667" type="line"/>
      <point x="247.333" y="642"/>
      <point x="231" y="628"/>
      <point x="231" y="562" type="curve" smooth="yes"/>
      <point x="231" y="104.667" type="line" smooth="yes"/>
      <point x="231" y="38.6667"/>
      <point x="248" y="24.6667"/>
      <point x="328" y="21" type="curve"/>
      <point x="328" y="0" type="line"/>
    </contour>
  </outline>
</glyph>
<glyph name="J" format="2">
  <advance width="401"/>
  <unicode hex="004A"/>
  <outline>
    <contour>
      <point x="10" y="44.3992" type="curve" smooth="yes"/>
      <point x="10" y="82.3988"/>
      <point x="35.0869" y="108"/>
      <point x="69.4663" y="108" type="curve" smooth="yes"/>
      <point x="96.3333" y="108"/>
      <point x="125.667" y="90.267"/>
      <point x="125.667" y="54.5576" type="curve" smooth="yes"/>
      <point x="125.667" y="33.8423"/>
      <point x="114.731" y="22.3309"/>
      <point x="110.972" y="18.2269" type="curve" smooth="yes"/>
      <point x="105.937" y="12.8046"/>
      <point x="103.638" y="9.63905"/>
      <point x="103.649" y="6.33956" type="curve" smooth="yes"/>
      <point x="103.664" y="-0.475838"/>
      <point x="110.43" y="-5"/>
      <point x="122.389" y="-5" type="curve" smooth="yes"/>
      <point x="153.667" y="-5"/>
      <point x="168" y="17.3333"/>
      <point x="168" y="68" type="curve" smooth="yes"/>
      <point x="168" y="562" type="line" smooth="yes"/>
      <point x="168" y="628.667"/>
      <point x="154" y="640.667"/>
      <point x="72.3333" y="645.667" type="curve"/>
      <point x="72.3333" y="666.667" type="line"/>
      <point x="381" y="666.667" type="line"/>
      <point x="381" y="645.667" type="line"/>
      <point x="302" y="640"/>
      <point x="290" y="627.667"/>
      <point x="290" y="555" type="curve" smooth="yes"/>
      <point x="290" y="163" type="line" smooth="yes"/>
      <point x="290" y="32"/>
      <point x="238" y="-41.3333"/>
      <point x="127.19" y="-41.3333" type="curve" smooth="yes"/>
      <point x="54.2459" y="-41.3333"/>
      <point x="10" y="-9.68792"/>
    </contour>
  </outline>
</glyph>
<glyph name="Q" format="2">
  <advance width="741"/>
  <unicode hex="0051"/>
  <outline>
    <component base="O"/>
    <contour>
      <point x="259.176" y="9.69732" type="curve"/>
      <point x="435.923" y="9.93443" type="line"/>
      <point x="491.925" y="-71.618"/>
      <point x="559.728" y="-145.03"/>
      <point x="665.154" y="-145.043" type="curve" smooth="yes"/>
      <point x="681.566" y="-145.045"/>
      <point x="693.83" y="-143.199"/>
      <point x="710.667" y="-138.333" type="curve"/>
      <point x="712.667" y="-158.333" type="line"/>
      <point x="679.953" y="-171.19"/>
      <point x="645.333" y="-177.333"/>
      <point x="617.467" y="-177.333" type="curve" smooth="yes"/>
      <point x="438.171" y="-177.333"/>
      <point x="341.502" y="-129.851"/>
    </contour>
  </outline>
</glyph>
<glyph name="R" format="2">
  <advance width="679"/>
  <unicode hex="0052"/>
  <outline>
    <contour>
      <point x="13.3333" y="0" type="line"/>
      <point x="13.3333" y="21" type="line"/>
      <point x="89.3333" y="28"/>
      <point x="99.3333" y="39.3333"/>
      <point x="99.3333" y="119" type="curve" smooth="yes"/>
      <point x="99.3333" y="555" type="line" smooth="yes"/>
      <point x="99.3333" y="626.333"/>
      <point x="88" y="638.667"/>
      <point x="13.3333" y="645.667" type="curve"/>
      <point x="13.3333" y="666.667" type="line"/>
      <point x="304.667" y="666.667" type="line" smooth="yes"/>
      <point x="428.199" y="666.667"/>
      <point x="568" y="629.752"/>
      <point x="568" y="490" type="curve" smooth="yes"/>
      <point x="568" y="377.913"/>
      <point x="474.022" y="338.561"/>
      <point x="395" y="322.333" type="curve"/>
      <point x="599.333" y="58.6667" type="line"/>
      <point x="622" y="31.6667"/>
      <point x="639.667" y="23"/>
      <point x="671" y="21" type="curve"/>
      <point x="671" y="0" type="line"/>
      <point x="495.333" y="0" type="line"/>
      <point x="267.667" y="309.667" type="line"/>
      <point x="221.333" y="308.333" type="line"/>
      <point x="221.333" y="111.667" type="line" smooth="yes"/>
      <point x="221.333" y="40"/>
      <point x="233.333" y="27.6667"/>
      <point x="310.667" y="21" type="curve"/>
      <point x="310.667" y="0" type="line"/>
    </contour>
    <contour>
      <point x="221.333" y="343.667" type="line"/>
      <point x="253.371" y="343.737" type="line" smooth="yes"/>
      <point x="371.177" y="343.766"/>
      <point x="438.333" y="398.737"/>
      <point x="438.333" y="490" type="curve" smooth="yes"/>
      <point x="438.333" y="587.667"/>
      <point x="387.333" y="630.667"/>
      <point x="273.333" y="630.667" type="curve" smooth="yes"/>
      <point x="236.246" y="630.667"/>
      <point x="221.333" y="622.984"/>
      <point x="221.333" y="592.667" type="curve" smooth="yes"/>
    </contour>
  </outline>
</glyph>
<glyph name="V" format="2">
  <advance width="722"/>
  <unicode hex="0056"/>
  <outline>
    <contour>
      <point x="16" y="645.667" type="curve"/>
      <point x="16" y="666.667" type="line"/>
      <point x="305.333" y="666.667" type="line"/>
      <point x="305.333" y="645.667" type="line"/>
      <point x="291" y="644.667"/>
      <point x="279.333" y="643.667"/>
      <point x="275" y="643.667" type="curve"/>
      <point x="241" y="641.667"/>
      <point x="226.667" y="631.333"/>
      <point x="226.667" y="611" type="curve" smooth="yes"/>
      <point x="226.667" y="596"/>
      <point x="233.333" y="576.667"/>
      <point x="261.667" y="513" type="curve" smooth="yes"/>
      <point x="408.333" y="176.333" type="line"/>
      <point x="548.667" y="530.667" type="line" smooth="yes"/>
      <point x="562.333" y="565"/>
      <point x="568" y="587"/>
      <point x="568" y="603" type="curve" smooth="yes"/>
      <point x="568" y="632.333"/>
      <point x="551" y="642"/>
      <point x="490.667" y="645.667" type="curve"/>
      <point x="490.667" y="666.667" type="line"/>
      <point x="698.333" y="666.667" type="line"/>
      <point x="698.333" y="645.667" type="line"/>
      <point x="649" y="641.333"/>
      <point x="636.333" y="630.333"/>
      <point x="607" y="556.333" type="curve" smooth="yes"/>
      <point x="383" y="-13.3333" type="line"/>
      <point x="364" y="-13.3333" type="line"/>
      <point x="114.667" y="552.333" type="line" smooth="yes"/>
      <point x="79.6667" y="630.667"/>
      <point x="65.3333" y="642"/>
    </contour>
  </outline>
</glyph>
<glyph name="W" format="2">
  <advance width="963"/>
  <unicode hex="0057"/>
  <outline>
    <contour>
      <point x="9.66667" y="645.667" type="curve"/>
      <point x="9.66667" y="666.667" type="line"/>
      <point x="271" y="666.667" type="line"/>
      <point x="271" y="645.667" type="line"/>
      <point x="237.667" y="643.667"/>
      <point x="206.189" y="634.03"/>
      <point x="206.34" y="608.919" type="curve" smooth="yes"/>
      <point x="206.397" y="599.252"/>
      <point x="211" y="583.333"/>
      <point x="216" y="568.667" type="curve" smooth="yes"/>
      <point x="352" y="196.667" type="line"/>
      <point x="462.667" y="487.333" type="line"/>
      <point x="429" y="574" type="line" smooth="yes"/>
      <point x="409.986" y="621.601"/>
      <point x="392.329" y="642.862"/>
      <point x="337.667" y="645.667" type="curve"/>
      <point x="337.667" y="666.667" type="line"/>
      <point x="619.667" y="666.667" type="line"/>
      <point x="619.667" y="645.667" type="line"/>
      <point x="585.445" y="644.273"/>
      <point x="544.333" y="636.332"/>
      <point x="544.333" y="607.105" type="curve" smooth="yes"/>
      <point x="544.333" y="599.667"/>
      <point x="546.872" y="588.134"/>
      <point x="554.903" y="565.479" type="curve" smooth="yes"/>
      <point x="691" y="198" type="line"/>
      <point x="811.667" y="538.333" type="line" smooth="yes"/>
      <point x="818.538" y="557.711"/>
      <point x="824.667" y="580.667"/>
      <point x="824.667" y="598.21" type="curve" smooth="yes"/>
      <point x="824.667" y="637.333"/>
      <point x="794.333" y="643.333"/>
      <point x="755.667" y="645.667" type="curve"/>
      <point x="755.667" y="666.667" type="line"/>
      <point x="948.333" y="666.667" type="line"/>
      <point x="948.333" y="645.667" type="line"/>
      <point x="907.333" y="640"/>
      <point x="886.998" y="625.504"/>
      <point x="872.667" y="583.667" type="curve" smooth="yes"/>
      <point x="667.333" y="-12.3333" type="line"/>
      <point x="648.333" y="-12.3333" type="line"/>
      <point x="484.667" y="428.667" type="line"/>
      <point x="320" y="-12.3333" type="line"/>
      <point x="300.667" y="-12.3333" type="line"/>
      <point x="101.333" y="546.333" type="line" smooth="yes"/>
      <point x="75.4096" y="619.03"/>
      <point x="64.0644" y="636.333"/>
    </contour>
  </outline>
</glyph>
<glyph name="Z" format="2">
  <advance width="630"/>
  <unicode hex="005A"/>
  <outline>
    <contour>
      <point x="15.3333" y="0" type="line"/>
      <point x="15.3333" y="15.3333" type="line"/>
      <point x="434" y="629.667" type="line"/>
      <point x="255.068" y="629.694" type="line"/>
      <point x="114.205" y="629.694"/>
      <point x="90.5667" y="574.412"/>
      <point x="67" y="484" type="curve"/>
      <point x="40.3333" y="484" type="line"/>
      <point x="60.6667" y="666.667" type="line"/>
      <point x="586" y="666.667" type="line"/>
      <point x="586" y="651.333" type="line"/>
      <point x="171.667" y="37" type="line"/>
      <point x="378.333" y="37" type="line" smooth="yes"/>
      <point x="522.266" y="37"/>
      <point x="556.453" y="87.4875"/>
      <point x="585.333" y="197.667" type="curve"/>
      <point x="609.333" y="197.667" type="line"/>
      <point x="584.667" y="0" type="line"/>
    </contour>
  </outline>
</glyph>
<glyph name="bracketleft" format="2">
  <advance width="333"/>
  <unicode hex="005B"/>
  <outline>
    <contour>
      <point x="81" y="-153.667" type="line"/>
      <point x="81" y="667.333" type="line"/>
      <point x="299.667" y="667.333" type="line"/>
      <point x="299.667" y="639.667" type="line"/>
      <point x="218.667" y="639.667" type="line" smooth="yes"/>
      <point x="178.667" y="639.667"/>
      <point x="166.333" y="627"/>
      <point x="166.333" y="587" type="curve" smooth="yes"/>
      <point x="166.333" y="-73.6667" type="line" smooth="yes"/>
      <point x="166.333" y="-111.333"/>
      <point x="180" y="-126"/>
      <point x="215.667" y="-126" type="curve" smooth="yes"/>
      <point x="299.667" y="-126" type="line"/>
      <point x="299.667" y="-153.667" type="line"/>
    </contour>
  </outline>
</glyph>
<glyph name="grave" format="2">
  <advance width="328"/>
  <unicode hex="0060"/>
  <outline>
    <contour>
      <point x="50" y="654" type="curve" smooth="yes"/>
      <point x="50" y="675"/>
      <point x="65.6667" y="689.667"/>
      <point x="88.3333" y="689.667" type="curve" smooth="yes"/>
      <point x="104.667" y="689.667"/>
      <point x="117" y="683"/>
      <point x="134.333" y="665" type="curve" smooth="yes"/>
      <point x="278" y="514" type="line"/>
      <point x="232.667" y="514" type="line"/>
      <point x="82.6667" y="608" type="line" smooth="yes"/>
      <point x="61" y="622"/>
      <point x="50" y="636.667"/>
    </contour>
  </outline>
</glyph>
<glyph name="a" format="2">
  <advance width="463"/>
  <unicode hex="0061"/>
  <outline>
    <contour>
      <point x="33" y="95.8953" type="curve" smooth="yes"/>
      <point x="33" y="200.022"/>
      <point x="165.634" y="246.745"/>
      <point x="256.894" y="277.559" type="curve" smooth="yes"/>
      <point x="289" y="288.667" type="line"/>
      <point x="289" y="353.667" type="line" smooth="yes"/>
      <point x="289" y="408"/>
      <point x="264" y="438.333"/>
      <point x="214.826" y="438.333" type="curve" smooth="yes"/>
      <point x="179.667" y="438.333"/>
      <point x="140.333" y="423"/>
      <point x="140.333" y="391.6" type="curve" smooth="yes"/>
      <point x="140.333" y="383.242"/>
      <point x="143.501" y="377.553"/>
      <point x="146.32" y="374.125" type="curve"/>
      <point x="152.321" y="365.237"/>
      <point x="157" y="354.535"/>
      <point x="157" y="342.772" type="curve" smooth="yes"/>
      <point x="157" y="314.333"/>
      <point x="131" y="297.667"/>
      <point x="103.681" y="297.667" type="curve" smooth="yes"/>
      <point x="72.6667" y="297.667"/>
      <point x="52" y="319.333"/>
      <point x="52" y="353.369" type="curve" smooth="yes"/>
      <point x="52" y="425.333"/>
      <point x="144.667" y="465"/>
      <point x="224.79" y="465" type="curve" smooth="yes"/>
      <point x="342.148" y="465"/>
      <point x="389" y="411.333"/>
      <point x="389" y="312.667" type="curve" smooth="yes"/>
      <point x="389" y="89.6667" type="line" smooth="yes"/>
      <point x="389" y="69.6667"/>
      <point x="392.667" y="48"/>
      <point x="420.649" y="48" type="curve" smooth="yes"/>
      <point x="429.751" y="48"/>
      <point x="436.535" y="50.826"/>
      <point x="445.573" y="59.0849" type="curve"/>
      <point x="457.333" y="41.6667" type="line"/>
      <point x="428.667" y="9.33333"/>
      <point x="400.304" y="-10.6667"/>
      <point x="359.453" y="-10.6667" type="curve" smooth="yes"/>
      <point x="313.414" y="-10.6667"/>
      <point x="295.36" y="15"/>
      <point x="289.667" y="61.3333" type="curve"/>
      <point x="245.667" y="21.3333"/>
      <point x="196.333" y="-10.6667"/>
      <point x="143.533" y="-10.6667" type="curve" smooth="yes"/>
      <point x="79.3333" y="-10.6667"/>
      <point x="33" y="33"/>
    </contour>
    <contour>
      <point x="140.333" y="126.728" type="curve" smooth="yes"/>
      <point x="140.333" y="86.6667"/>
      <point x="162.667" y="51.6667"/>
      <point x="199.193" y="51.6667" type="curve" smooth="yes"/>
      <point x="228.457" y="51.6667"/>
      <point x="265.924" y="74.791"/>
      <point x="289" y="100.001" type="curve"/>
      <point x="289" y="261" type="line"/>
      <point x="218.333" y="239.333"/>
      <point x="140.333" y="200.667"/>
    </contour>
  </outline>
</glyph>
<glyph name="d" format="2">
  <advance width="519"/>
  <unicode hex="0064"/>
  <outline>
    <contour>
      <point x="26.3333" y="210.944" type="curve" smooth="yes"/>
      <point x="26.3333" y="353.333"/>
      <point x="114.374" y="464.333"/>
      <point x="231.328" y="464.333" type="curve" smooth="yes"/>
      <point x="270.618" y="464.333"/>
      <point x="298.777" y="451.667"/>
      <point x="338.667" y="415" type="curve"/>
      <point x="338.667" y="609.333" type="line" smooth="yes"/>
      <point x="338.667" y="644.474"/>
      <point x="314.849" y="657.337"/>
      <point x="267.601" y="662" type="curve"/>
      <point x="267.601" y="680.667" type="line"/>
      <point x="441" y="680.667" type="line"/>
      <point x="441" y="103" type="line" smooth="yes"/>
      <point x="441" y="64.8749"/>
      <point x="457.931" y="50.2184"/>
      <point x="505.333" y="46.3333" type="curve"/>
      <point x="505.333" y="28" type="line"/>
      <point x="470.751" y="22.3609" type="line" smooth="yes"/>
      <point x="421.462" y="13.9136"/>
      <point x="387.26" y="3.76074"/>
      <point x="344.333" y="-11" type="curve"/>
      <point x="339.667" y="-7.60843" type="line"/>
      <point x="339.667" y="55.3333" type="line"/>
      <point x="301.134" y="7.33333"/>
      <point x="264.577" y="-11.3333"/>
      <point x="213.371" y="-11.3333" type="curve" smooth="yes"/>
      <point x="100.504" y="-11.3333"/>
      <point x="26.3333" y="79.6667"/>
    </contour>
    <contour>
      <point x="131.667" y="238.117" type="curve" smooth="yes"/>
      <point x="131.667" y="115.333"/>
      <point x="176.99" y="42"/>
      <point x="248.326" y="42" type="curve" smooth="yes"/>
      <point x="280.116" y="42"/>
      <point x="325.158" y="76.7794"/>
      <point x="338.667" y="105.333" type="curve"/>
      <point x="338.667" y="339.667" type="line"/>
      <point x="334" y="387.667"/>
      <point x="290.712" y="427"/>
      <point x="240.422" y="427" type="curve" smooth="yes"/>
      <point x="173.621" y="427"/>
      <point x="131.667" y="358"/>
    </contour>
  </outline>
</glyph>
<glyph name="f" format="2">
  <advance width="280"/>
  <unicode hex="0066"/>
  <outline>
    <contour>
      <point x="18" y="0" type="line"/>
      <point x="18" y="18" type="line"/>
      <point x="81.3333" y="22.3333"/>
      <point x="92.3333" y="34.3333"/>
      <point x="92.3333" y="97.3333" type="curve" smooth="yes"/>
      <point x="92.3333" y="417.667" type="line"/>
      <point x="18.6667" y="417.667" type="line"/>
      <point x="18.6667" y="453.667" type="line"/>
      <point x="92.3333" y="453.667" type="line"/>
      <point x="92.6518" y="574.571"/>
      <point x="116.158" y="685.667"/>
      <point x="241.199" y="685.667" type="curve" smooth="yes"/>
      <point x="296.892" y="685.667"/>
      <point x="341.622" y="654.667"/>
      <point x="341.622" y="611" type="curve" smooth="yes"/>
      <point x="341.622" y="583.333"/>
      <point x="322.639" y="563"/>
      <point x="294.343" y="563" type="curve" smooth="yes"/>
      <point x="269.484" y="563"/>
      <point x="248.693" y="578.7"/>
      <point x="248.693" y="605.441" type="curve" smooth="yes"/>
      <point x="248.693" y="620.415"/>
      <point x="256.355" y="632.726"/>
      <point x="266.581" y="643.02" type="curve"/>
      <point x="265" y="651.318"/>
      <point x="256.563" y="656.667"/>
      <point x="242.666" y="656.667" type="curve" smooth="yes"/>
      <point x="211.667" y="656.667"/>
      <point x="194.667" y="628.667"/>
      <point x="194.667" y="571.667" type="curve" smooth="yes"/>
      <point x="194.667" y="453.666" type="line"/>
      <point x="290.333" y="453.666" type="line"/>
      <point x="290.333" y="417.666" type="line"/>
      <point x="194.667" y="417.692" type="line"/>
      <point x="194.667" y="103.667" type="line" smooth="yes"/>
      <point x="194.667" y="32"/>
      <point x="206" y="20"/>
      <point x="284" y="18" type="curve"/>
      <point x="284" y="0" type="line"/>
    </contour>
  </outline>
</glyph>
<glyph name="g" format="2">
  <advance width="500"/>
  <unicode hex="0067"/>
  <outline>
    <contour>
      <point x="27.3333" y="-118.325" type="curve" smooth="yes"/>
      <point x="27.3333" y="-71.0574"/>
      <point x="79" y="-32.6667"/>
      <point x="124.667" y="-12.3333" type="curve"/>
      <point x="81.4784" y="0.150603"/>
      <point x="62" y="17.3333"/>
      <point x="62" y="49.1129" type="curve" smooth="yes"/>
      <point x="62" y="92.3333"/>
      <point x="118.667" y="139"/>
      <point x="161" y="162" type="curve"/>
      <point x="102.636" y="187.516"/>
      <point x="57.6667" y="231.177"/>
      <point x="57.6667" y="298.917" type="curve" smooth="yes"/>
      <point x="57.6667" y="397.667"/>
      <point x="135" y="464.333"/>
      <point x="237.182" y="464.333" type="curve" smooth="yes"/>
      <point x="263.22" y="464.333"/>
      <point x="293.917" y="457.352"/>
      <point x="317.271" y="449.351" type="curve" smooth="yes"/>
      <point x="333.082" y="444.095" type="line" smooth="yes"/>
      <point x="355.349" y="436.432"/>
      <point x="380.227" y="435"/>
      <point x="402.802" y="435" type="curve" smooth="yes"/>
      <point x="474" y="435" type="line"/>
      <point x="474" y="391.333" type="line"/>
      <point x="390.98" y="391.333" type="line"/>
      <point x="410.333" y="359.333"/>
      <point x="417" y="335.333"/>
      <point x="417" y="297.87" type="curve" smooth="yes"/>
      <point x="417" y="205.87"/>
      <point x="338.096" y="148.681"/>
      <point x="253" y="148.667" type="curve" smooth="yes"/>
      <point x="235.15" y="148.664"/>
      <point x="212.912" y="150.683"/>
      <point x="195.215" y="153.994" type="curve"/>
      <point x="169.582" y="144.636"/>
      <point x="139.333" y="117.342"/>
      <point x="139.333" y="96.3973" type="curve" smooth="yes"/>
      <point x="139.333" y="73.6536"/>
      <point x="186.72" y="67.6827"/>
      <point x="224.667" y="65.3333" type="curve" smooth="yes"/>
      <point x="331.755" y="60" type="line" smooth="yes"/>
      <point x="408.931" y="55.8181"/>
      <point x="467.667" y="21.3333"/>
      <point x="467.667" y="-52.2413" type="curve" smooth="yes"/>
      <point x="467.667" y="-158.945"/>
      <point x="328.939" y="-214"/>
      <point x="213.665" y="-214" type="curve" smooth="yes"/>
      <point x="133.667" y="-214"/>
      <point x="27.3333" y="-188.328"/>
    </contour>
    <contour>
      <point x="103.333" y="-94.9391" type="curve" smooth="yes"/>
      <point x="103.333" y="-138.604"/>
      <point x="157.333" y="-165.667"/>
      <point x="248.435" y="-165.667" type="curve" smooth="yes"/>
      <point x="353.293" y="-165.667"/>
      <point x="422.667" y="-133.262"/>
      <point x="422.667" y="-79.1366" type="curve" smooth="yes"/>
      <point x="422.667" y="-44.0464"/>
      <point x="391.774" y="-29.6699"/>
      <point x="312.789" y="-29.6667" type="curve" smooth="yes"/>
      <point x="258.521" y="-29.6628"/>
      <point x="193.092" y="-24.5413"/>
      <point x="149.547" y="-16.9694" type="curve"/>
      <point x="112.214" y="-58.0322"/>
      <point x="103.333" y="-72.0929"/>
    </contour>
    <contour>
      <point x="158.667" y="346.159" type="curve" smooth="yes"/>
      <point x="158.667" y="272.35"/>
      <point x="182.667" y="176.667"/>
      <point x="256.635" y="176.667" type="curve" smooth="yes"/>
      <point x="303.667" y="176.667"/>
      <point x="320.667" y="218.546"/>
      <point x="320.667" y="263.821" type="curve" smooth="yes"/>
      <point x="320.667" y="332.175"/>
      <point x="290.333" y="435.333"/>
      <point x="224.718" y="435.333" type="curve" smooth="yes"/>
      <point x="179" y="435.333"/>
      <point x="158.667" y="392.667"/>
    </contour>
  </outline>
</glyph>
<glyph name="n" format="2">
  <advance width="519"/>
  <unicode hex="006E"/>
  <outline>
    <component base="dotlessi" xOffset="-10"/>
    <contour>
      <point x="140.667" y="342.668" type="line"/>
      <point x="178" y="381.333" type="line" smooth="yes"/>
      <point x="236.63" y="442.75"/>
      <point x="271.667" y="464.333"/>
      <point x="320.668" y="464.333" type="curve" smooth="yes"/>
      <point x="399" y="464.333"/>
      <point x="446" y="408.667"/>
      <point x="446" y="317.333" type="curve" smooth="yes"/>
      <point x="446" y="85.6667" type="line" smooth="yes"/>
      <point x="446" y="34.3333"/>
      <point x="457.333" y="23"/>
      <point x="505" y="18" type="curve"/>
      <point x="505" y="0" type="line"/>
      <point x="285.333" y="0" type="line"/>
      <point x="285.333" y="18" type="line"/>
      <point x="331.333" y="23.3333"/>
      <point x="343.667" y="36"/>
      <point x="343.667" y="85.6667" type="curve" smooth="yes"/>
      <point x="343.667" y="313" type="line" smooth="yes"/>
      <point x="343.667" y="375.667"/>
      <point x="322" y="405.333"/>
      <point x="274.756" y="405.333" type="curve" smooth="yes"/>
      <point x="244.109" y="405.333"/>
      <point x="216.104" y="389.673"/>
      <point x="180.333" y="348" type="curve" smooth="yes"/>
      <point x="140.848" y="301.279" type="line"/>
    </contour>
  </outline>
</glyph>
<glyph name="o" format="2">
  <advance width="500"/>
  <unicode hex="006F"/>
  <outline>
    <contour>
      <point x="27.6667" y="226.667" type="curve" smooth="yes"/>
      <point x="27.6667" y="366.733"/>
      <point x="116.728" y="464.333"/>
      <point x="246.667" y="464.333" type="curve" smooth="yes"/>
      <point x="376.605" y="464.333"/>
      <point x="465.667" y="366.733"/>
      <point x="465.667" y="226.667" type="curve" smooth="yes"/>
      <point x="465.667" y="86.6667"/>
      <point x="376.667" y="-11.3333"/>
      <point x="246.667" y="-11.3333" type="curve" smooth="yes"/>
      <point x="116.667" y="-11.3333"/>
      <point x="27.6667" y="86.6667"/>
    </contour>
    <contour>
      <point x="136.667" y="226.667" type="curve" smooth="yes"/>
      <point x="136.667" y="92.6923"/>
      <point x="173.568" y="17.6667"/>
      <point x="246.667" y="17.6667" type="curve" smooth="yes"/>
      <point x="319.765" y="17.6667"/>
      <point x="356.667" y="92.6923"/>
      <point x="356.667" y="226.667" type="curve" smooth="yes"/>
      <point x="356.667" y="360.513"/>
      <point x="319.811" y="435.333"/>
      <point x="246.667" y="435.333" type="curve" smooth="yes"/>
      <point x="173.522" y="435.333"/>
      <point x="136.667" y="360.513"/>
    </contour>
  </outline>
</glyph>
<glyph name="q" format="2">
  <advance width="519"/>
  <unicode hex="0071"/>
  <outline>
    <contour>
      <point x="27.3333" y="207.711" type="curve" smooth="yes"/>
      <point x="27.3333" y="348.667"/>
      <point x="116.017" y="464.333"/>
      <point x="252.424" y="464.333" type="curve" smooth="yes"/>
      <point x="298.401" y="464.333"/>
      <point x="325.545" y="451.667"/>
      <point x="369.333" y="422" type="curve"/>
      <point x="436" y="464" type="line"/>
      <point x="443.667" y="464" type="line"/>
      <point x="443.667" y="-135" type="line" smooth="yes"/>
      <point x="443.667" y="-180.333"/>
      <point x="460" y="-186.667"/>
      <point x="504" y="-195.667" type="curve"/>
      <point x="504" y="-213" type="line"/>
      <point x="257.153" y="-213" type="line"/>
      <point x="257.153" y="-193.333" type="line"/>
      <point x="318.494" y="-188"/>
      <point x="341.333" y="-177.667"/>
      <point x="341.333" y="-115" type="curve" smooth="yes"/>
      <point x="341.333" y="55.3333" type="line"/>
      <point x="311.528" y="14.6667"/>
      <point x="243.377" y="-11.3333"/>
      <point x="197.45" y="-11.3333" type="curve" smooth="yes"/>
      <point x="80.0155" y="-11.3333"/>
      <point x="27.3333" y="99.3333"/>
    </contour>
    <contour>
      <point x="132" y="239.333" type="curve" smooth="yes"/>
      <point x="132" y="141"/>
      <point x="163.851" y="47.3333"/>
      <point x="253.496" y="47.3333" type="curve" smooth="yes"/>
      <point x="293.896" y="47.3333"/>
      <point x="323.978" y="67.1182"/>
      <point x="341.333" y="107.157" type="curve"/>
      <point x="341.333" y="342.333" type="line" smooth="yes"/>
      <point x="341.333" y="401"/>
      <point x="313.505" y="435"/>
      <point x="258.581" y="435" type="curve" smooth="yes"/>
      <point x="164.185" y="435"/>
      <point x="132" y="339"/>
    </contour>
  </outline>
</glyph>
<glyph name="t" format="2">
  <advance width="296"/>
  <unicode hex="0074"/>
  <outline>
    <contour>
      <point x="15.3333" y="417.667" type="line"/>
      <point x="15.3333" y="431.333" type="line"/>
      <point x="71.0944" y="479.667"/>
      <point x="112.218" y="531.216"/>
      <point x="160" y="596" type="curve"/>
      <point x="173" y="596" type="line"/>
      <point x="173" y="453.667" type="line"/>
      <point x="271.667" y="453.667" type="line"/>
      <point x="271.667" y="417.667" type="line"/>
      <point x="173" y="417.667" type="line"/>
      <point x="173" y="126.667" type="line" smooth="yes"/>
      <point x="173" y="71.3333"/>
      <point x="186.667" y="47.6667"/>
      <point x="220.667" y="47.6667" type="curve" smooth="yes"/>
      <point x="242.333" y="47.6667"/>
      <point x="259" y="59"/>
      <point x="279.667" y="88.3333" type="curve"/>
      <point x="296.667" y="77.3333" type="line"/>
      <point x="261" y="15.3333"/>
      <point x="222.333" y="-10.6667"/>
      <point x="167.333" y="-10.6667" type="curve" smooth="yes"/>
      <point x="105" y="-10.6667"/>
      <point x="70.6667" y="31.3333"/>
      <point x="70.6667" y="109" type="curve" smooth="yes"/>
      <point x="70.6667" y="417.667" type="line"/>
    </contour>
  </outline>
</glyph>
<glyph name="u" format="2">
  <advance width="519"/>
  <unicode hex="0075"/>
  <outline>
    <contour>
      <point x="11.3333" y="436.333" type="curve"/>
      <point x="11.3333" y="453.667" type="line"/>
      <point x="171.333" y="453.667" type="line"/>
      <point x="171.333" y="123.333" type="line" smooth="yes"/>
      <point x="171.333" y="78.3333"/>
      <point x="197.667" y="49"/>
      <point x="243.032" y="49" type="curve" smooth="yes"/>
      <point x="283.981" y="49"/>
      <point x="325" y="73.9407"/>
      <point x="336" y="121.667" type="curve"/>
      <point x="336" y="372.667" type="line" smooth="yes"/>
      <point x="336" y="420.333"/>
      <point x="324" y="431"/>
      <point x="266" y="434.333" type="curve"/>
      <point x="266" y="453.667" type="line"/>
      <point x="438.333" y="453.667" type="line"/>
      <point x="438.333" y="105" type="line" smooth="yes"/>
      <point x="438.333" y="57.0822"/>
      <point x="451.646" y="48.5833"/>
      <point x="498.333" y="48" type="curve"/>
      <point x="498.333" y="30.6667" type="line"/>
      <point x="442.992" y="19.5904"/>
      <point x="399.314" y="10.0861"/>
      <point x="345.667" y="-10.3333" type="curve"/>
      <point x="339.667" y="-6.90779" type="line"/>
      <point x="339.667" y="68" type="line"/>
      <point x="307.595" y="36.4506" type="line"/>
      <point x="272.221" y="3.73962"/>
      <point x="234.959" y="-11.3333"/>
      <point x="193.969" y="-11.3333" type="curve" smooth="yes"/>
      <point x="117.667" y="-11.3333"/>
      <point x="69" y="40.2609"/>
      <point x="69" y="122" type="curve" smooth="yes"/>
      <point x="69" y="374" type="line" smooth="yes"/>
      <point x="69" y="418.667"/>
      <point x="57" y="431.667"/>
    </contour>
  </outline>
</glyph>
<glyph name="y" format="2">
  <advance width="500"/>
  <unicode hex="0079"/>
  <outline>
    <contour>
      <point x="24.6667" y="-135.849" type="curve" smooth="yes"/>
      <point x="24.6667" y="-103.827"/>
      <point x="44.1184" y="-74.0842"/>
      <point x="83.1963" y="-74.0842" type="curve" smooth="yes"/>
      <point x="118.642" y="-74.0842"/>
      <point x="132.319" y="-97.8835"/>
      <point x="132.31" y="-118.447" type="curve" smooth="yes"/>
      <point x="132.305" y="-126.051"/>
      <point x="129.542" y="-131.536"/>
      <point x="126.942" y="-136.597" type="curve"/>
      <point x="124.452" y="-141.035"/>
      <point x="122.095" y="-146.372"/>
      <point x="122.075" y="-150.883" type="curve" smooth="yes"/>
      <point x="122.049" y="-159.117"/>
      <point x="128.546" y="-163.838"/>
      <point x="139.53" y="-163.838" type="curve" smooth="yes"/>
      <point x="160.681" y="-163.838"/>
      <point x="185.12" y="-143.509"/>
      <point x="208.374" y="-83.6747" type="curve" smooth="yes"/>
      <point x="243.835" y="6.29953" type="line"/>
      <point x="73.6604" y="392.471" type="line" smooth="yes"/>
      <point x="62.2978" y="419.745"/>
      <point x="43.4771" y="431.963"/>
      <point x="14" y="436.333" type="curve"/>
      <point x="14" y="453.667" type="line"/>
      <point x="234.667" y="453.667" type="line"/>
      <point x="234.667" y="435.667" type="line"/>
      <point x="200.25" y="433.974"/>
      <point x="178.667" y="428.144"/>
      <point x="178.667" y="408.25" type="curve" smooth="yes"/>
      <point x="178.667" y="399"/>
      <point x="184.971" y="380.26"/>
      <point x="191.667" y="364" type="curve" smooth="yes"/>
      <point x="292.333" y="133.667" type="line"/>
      <point x="379.667" y="381.667" type="line" smooth="yes"/>
      <point x="384.35" y="394.79"/>
      <point x="386" y="401.667"/>
      <point x="386" y="408" type="curve" smooth="yes"/>
      <point x="386" y="426.667"/>
      <point x="371.333" y="435"/>
      <point x="335.667" y="435.667" type="curve"/>
      <point x="335.667" y="453.667" type="line"/>
      <point x="476" y="453.667" type="line"/>
      <point x="476" y="435.667" type="line"/>
      <point x="449.667" y="432.667"/>
      <point x="438.64" y="422.807"/>
      <point x="424.667" y="387.333" type="curve" smooth="yes"/>
      <point x="266.314" y="-33.0373" type="line" smooth="yes"/>
      <point x="220.44" y="-155.348"/>
      <point x="183.164" y="-215"/>
      <point x="114.741" y="-215" type="curve" smooth="yes"/>
      <point x="64.4963" y="-215"/>
      <point x="24.6667" y="-182"/>
    </contour>
  </outline>
</glyph>
<glyph name="z" format="2">
  <advance width="444"/>
  <unicode hex="007A"/>
  <outline>
    <contour>
      <point x="25" y="0" type="line"/>
      <point x="25" y="18.3333" type="line"/>
      <point x="280.333" y="423" type="line"/>
      <point x="263.339" y="423.009"/>
      <point x="200.735" y="423.014"/>
      <point x="184.504" y="423.014" type="curve" smooth="yes"/>
      <point x="101.182" y="423.014"/>
      <point x="82.7668" y="407.114"/>
      <point x="68.6667" y="327.667" type="curve"/>
      <point x="48" y="327.667" type="line"/>
      <point x="52.3333" y="453.667" type="line"/>
      <point x="407.333" y="453.667" type="line"/>
      <point x="407.333" y="435" type="line"/>
      <point x="151" y="30.6667" type="line"/>
      <point x="252.667" y="30.6667" type="line" smooth="yes"/>
      <point x="313.333" y="30.6667"/>
      <point x="347" y="41"/>
      <point x="367" y="67" type="curve" smooth="yes"/>
      <point x="381" y="85.3333"/>
      <point x="387.667" y="102"/>
      <point x="397.333" y="146" type="curve"/>
      <point x="418.667" y="143.333" type="line"/>
      <point x="404" y="0" type="line"/>
    </contour>
  </outline>
</glyph>
<glyph name="currency" format="2">
  <advance width="500"/>
  <unicode hex="00A4"/>
  <outline>
    <contour>
      <point x="-23.3333" y="111.667" type="line"/>
      <point x="74.6667" y="208.333" type="line"/>
      <point x="46.6667" y="249"/>
      <point x="35" y="285.333"/>
      <point x="35" y="332.333" type="curve" smooth="yes"/>
      <point x="35" y="379.667"/>
      <point x="46.6667" y="417.333"/>
      <point x="74.6667" y="457" type="curve"/>
      <point x="-23.3333" y="555" type="line"/>
      <point x="29.3333" y="605.667" type="line"/>
      <point x="125.333" y="509.667" type="line"/>
      <point x="168.667" y="537.333"/>
      <point x="202.667" y="547.333"/>
      <point x="250.667" y="547.333" type="curve" smooth="yes"/>
      <point x="298" y="547.333"/>
      <point x="335.333" y="536"/>
      <point x="374.667" y="509.667" type="curve"/>
      <point x="472" y="605.667" type="line"/>
      <point x="523.333" y="555" type="line"/>
      <point x="426.667" y="457" type="line"/>
      <point x="455" y="414"/>
      <point x="465" y="381"/>
      <point x="465" y="333" type="curve" smooth="yes"/>
      <point x="465" y="285.333"/>
      <point x="454.667" y="250.333"/>
      <point x="426.667" y="208.333" type="curve"/>
      <point x="523.333" y="111.667" type="line"/>
      <point x="472" y="59" type="line"/>
      <point x="374.667" y="157" type="line"/>
      <point x="335" y="129.667"/>
      <point x="296.667" y="117.333"/>
      <point x="250.667" y="117.333" type="curve" smooth="yes"/>
      <point x="205.333" y="117.333"/>
      <point x="167" y="129.667"/>
      <point x="125.333" y="157" type="curve"/>
      <point x="29.3333" y="59" type="line"/>
    </contour>
    <contour>
      <point x="109.667" y="332.333" type="curve" smooth="yes"/>
      <point x="109.667" y="252.333"/>
      <point x="172.333" y="187.333"/>
      <point x="250.667" y="187.333" type="curve" smooth="yes"/>
      <point x="327.667" y="187.333"/>
      <point x="390.333" y="252"/>
      <point x="390.333" y="332.333" type="curve" smooth="yes"/>
      <point x="390.333" y="412"/>
      <point x="328.333" y="477.333"/>
      <point x="252" y="477.333" type="curve" smooth="yes"/>
      <point x="172.333" y="477.333"/>
      <point x="109.667" y="413.333"/>
    </contour>
  </outline>
</glyph>
<glyph name="logicalnot" format="2">
  <advance width="566"/>
  <unicode hex="00AC"/>
  <outline>
    <contour>
      <point x="31" y="317" type="line"/>
      <point x="31" y="390.333" type="line"/>
      <point x="535" y="390.333" type="line"/>
      <point x="535" y="108" type="line"/>
      <point x="461.667" y="108" type="line"/>
      <point x="461.667" y="317" type="line"/>
    </contour>
  </outline>
</glyph>
<glyph name="periodcentered" format="2">
  <advance width="250"/>
  <unicode hex="00B7"/>
  <outline>
    <contour>
      <point x="60.3333" y="279.667" type="curve" smooth="yes"/>
      <point x="60.3333" y="315.333"/>
      <point x="89.6667" y="345.667"/>
      <point x="125" y="345.667" type="curve" smooth="yes"/>
      <point x="160.667" y="345.667"/>
      <point x="190.667" y="315.333"/>
      <point x="190.667" y="279.333" type="curve" smooth="yes"/>
      <point x="190.667" y="244.333"/>
      <point x="160.667" y="215.333"/>
      <point x="124" y="215.333" type="curve" smooth="yes"/>
      <point x="89" y="215.333"/>
      <point x="60.3333" y="244.333"/>
    </contour>
  </outline>
</glyph>
<glyph name="cedilla" format="2">
  <advance width="333"/>
  <unicode hex="00B8"/>
  <outline>
    <contour>
      <point x="57.3333" y="-199.333" type="curve"/>
      <point x="72" y="-166.333" type="line"/>
      <point x="97.9932" y="-175.956"/>
      <point x="113.5" y="-179"/>
      <point x="130.566" y="-179" type="curve" smooth="yes"/>
      <point x="170" y="-179"/>
      <point x="191" y="-162.667"/>
      <point x="191" y="-134.851" type="curve" smooth="yes"/>
      <point x="191" y="-111.333"/>
      <point x="175.333" y="-100"/>
      <point x="140.333" y="-100" type="curve" smooth="yes"/>
      <point x="130" y="-100"/>
      <point x="121.333" y="-101"/>
      <point x="112.333" y="-104" type="curve"/>
      <point x="104" y="-98" type="line"/>
      <point x="145.667" y="0" type="line"/>
      <point x="183" y="0" type="line"/>
      <point x="157" y="-64.6667" type="line"/>
      <point x="167.667" y="-62"/>
      <point x="174.333" y="-61"/>
      <point x="184.716" y="-61" type="curve" smooth="yes"/>
      <point x="239.667" y="-61"/>
      <point x="272" y="-87"/>
      <point x="272" y="-130.333" type="curve" smooth="yes"/>
      <point x="272" y="-183.333"/>
      <point x="223.333" y="-216"/>
      <point x="142.422" y="-216" type="curve" smooth="yes"/>
      <point x="113" y="-216"/>
      <point x="88.6667" y="-211.667"/>
    </contour>
  </outline>
</glyph>
<glyph name="AE" format="2">
  <advance width="926"/>
  <unicode hex="00C6"/>
  <outline>
    <contour>
      <point x="0.666667" y="0" type="line"/>
      <point x="0.666667" y="21" type="line"/>
      <point x="48.3333" y="29"/>
      <point x="59.8248" y="47.2391"/>
      <point x="96" y="115.667" type="curve" smooth="yes"/>
      <point x="326.35" y="560.182" type="line" smooth="yes"/>
      <point x="340.48" y="587.23"/>
      <point x="348" y="604.683"/>
      <point x="348" y="610.333" type="curve" smooth="yes"/>
      <point x="348" y="641.667"/>
      <point x="296.333" y="644.667"/>
      <point x="259" y="646" type="curve"/>
      <point x="259" y="666.667" type="line"/>
      <point x="846.333" y="666.667" type="line"/>
      <point x="846.333" y="505.667" type="line"/>
      <point x="822.667" y="505.667" type="line"/>
      <point x="805.991" y="616.995"/>
      <point x="755.546" y="630.998"/>
      <point x="655.897" y="631" type="curve" smooth="yes"/>
      <point x="562" y="631" type="line" smooth="yes"/>
      <point x="538.333" y="631"/>
      <point x="528" y="622.333"/>
      <point x="528" y="601" type="curve" smooth="yes"/>
      <point x="528" y="364.892" type="line"/>
      <point x="605.333" y="365" type="line" smooth="yes"/>
      <point x="698.125" y="366.172"/>
      <point x="727.667" y="376.333"/>
      <point x="741.667" y="479.333" type="curve"/>
      <point x="763.333" y="479.333" type="line"/>
      <point x="763.333" y="210.667" type="line"/>
      <point x="741.667" y="210.667" type="line"/>
      <point x="731" y="296.701"/>
      <point x="715.403" y="329.454"/>
      <point x="628" y="329.667" type="curve"/>
      <point x="528" y="329.686" type="line"/>
      <point x="528" y="90" type="line" smooth="yes"/>
      <point x="528" y="42.3333"/>
      <point x="538.667" y="36.6644"/>
      <point x="578" y="36.6667" type="curve" smooth="yes"/>
      <point x="654.718" y="36.669" type="line" smooth="yes"/>
      <point x="768.628" y="36.6755"/>
      <point x="823.513" y="76.3404"/>
      <point x="868.667" y="182.333" type="curve"/>
      <point x="892.333" y="182.333" type="line"/>
      <point x="848.667" y="0" type="line"/>
      <point x="320" y="0" type="line"/>
      <point x="320" y="21" type="line"/>
      <point x="391" y="27.6667"/>
      <point x="408.667" y="35"/>
      <point x="408.667" y="111.667" type="curve" smooth="yes"/>
      <point x="408.667" y="274.333" type="line"/>
      <point x="228" y="274.333" type="line"/>
      <point x="147.868" y="118.084" type="line" smooth="yes"/>
      <point x="134.755" y="92.5253"/>
      <point x="128.333" y="70.5948"/>
      <point x="128.333" y="57.3333" type="curve" smooth="yes"/>
      <point x="128.333" y="30.2065"/>
      <point x="166.957" y="21.2917"/>
      <point x="202" y="21" type="curve"/>
      <point x="202" y="0" type="line"/>
    </contour>
    <contour>
      <point x="246.667" y="313" type="line"/>
      <point x="408.667" y="313" type="line"/>
      <point x="408.667" y="625.385" type="line"/>
      <point x="409" y="625.667" type="line"/>
    </contour>
  </outline>
</glyph>
<glyph name="multiply" format="2">
  <advance width="566"/>
  <unicode hex="00D7"/>
  <outline>
    <contour>
      <point x="41.3333" y="63.3333" type="line"/>
      <point x="230.333" y="253" type="line"/>
      <point x="41.3333" y="442" type="line"/>
      <point x="94" y="494.667" type="line"/>
      <point x="283" y="304.667" type="line"/>
      <point x="472.667" y="494.667" type="line"/>
      <point x="525.333" y="442" type="line"/>
      <point x="335.333" y="253" type="line"/>
      <point x="525.333" y="63.3333" type="line"/>
      <point x="472.667" y="10.6667" type="line"/>
      <point x="283" y="200.667" type="line"/>
      <point x="94" y="10.6667" type="line"/>
    </contour>
  </outline>
</glyph>
<glyph name="Oslash" format="2">
  <advance width="741"/>
  <unicode hex="00D8"/>
  <outline>
    <component base="O"/>
    <contour>
      <point x="536.75" y="615" type="line"/>
      <point x="617.667" y="735" type="line"/>
      <point x="667" y="735" type="line"/>
      <point x="570.417" y="592.333" type="line"/>
    </contour>
    <contour>
      <point x="191.06" y="108.495" type="line"/>
      <point x="521.292" y="592.303" type="line"/>
      <point x="544.625" y="553.97" type="line"/>
      <point x="214.06" y="69.4955" type="line"/>
    </contour>
    <contour>
      <point x="64.3333" y="-78" type="line"/>
      <point x="168.581" y="74.611" type="line"/>
      <point x="202.247" y="51.9443" type="line"/>
      <point x="113.667" y="-78" type="line"/>
    </contour>
  </outline>
</glyph>
<glyph name="Thorn" format="2">
  <advance width="574"/>
  <unicode hex="00DE"/>
  <outline>
    <component base="I"/>
    <contour>
      <point x="211" y="167" type="line"/>
      <point x="239.182" y="162.757"/>
      <point x="273.431" y="160.809"/>
      <point x="301.673" y="160.809" type="curve" smooth="yes"/>
      <point x="510.623" y="160.809"/>
      <point x="570.333" y="267.964"/>
      <point x="570.333" y="355.032" type="curve" smooth="yes"/>
      <point x="570.333" y="468.711"/>
      <point x="472.667" y="536.756"/>
      <point x="306.333" y="536.667" type="curve" smooth="yes"/>
      <point x="210.667" y="536.602" type="line"/>
      <point x="210.667" y="464.999" type="line"/>
      <point x="231" y="465.026" type="line"/>
      <point x="231" y="490.261"/>
      <point x="241.333" y="499.667"/>
      <point x="271.265" y="499.667" type="curve" smooth="yes"/>
      <point x="388.667" y="499.667"/>
      <point x="440.333" y="453.918"/>
      <point x="440.333" y="350.782" type="curve" smooth="yes"/>
      <point x="440.333" y="247.302"/>
      <point x="389.057" y="200.349"/>
      <point x="281.585" y="200.349" type="curve" smooth="yes"/>
      <point x="258.389" y="200.349"/>
      <point x="231.152" y="202.664"/>
      <point x="211" y="206.032" type="curve"/>
    </contour>
  </outline>
</glyph>
<glyph name="dcroat" format="2">
  <advance width="519"/>
  <unicode hex="0111"/>
  <outline>
    <component base="d"/>
    <contour>
      <point x="227.333" y="533" type="line"/>
      <point x="227.333" y="570.333" type="line"/>
      <point x="511.333" y="570.333" type="line"/>
      <point x="511.333" y="533" type="line"/>
    </contour>
  </outline>
</glyph>
<glyph name="hbar" format="2">
  <advance width="535"/>
  <unicode hex="0127"/>
  <outline>
    <component base="h"/>
    <contour>
      <point x="28.3333" y="524" type="line"/>
      <point x="28.3333" y="569" type="line"/>
      <point x="300.667" y="569" type="line"/>
      <point x="300.667" y="524" type="line"/>
    </contour>
  </outline>
</glyph>
<glyph name="dotlessi" format="2">
  <advance width="278"/>
  <unicode hex="0131"/>
  <outline>
    <contour>
      <point x="16" y="0" type="line"/>
      <point x="16" y="18" type="line"/>
      <point x="77.3333" y="24.3333"/>
      <point x="86.3333" y="34.3333"/>
      <point x="86.3333" y="96" type="curve" smooth="yes"/>
      <point x="86.3333" y="385.333" type="line" smooth="yes"/>
      <point x="86.3333" y="421.389"/>
      <point x="68.2611" y="435.643"/>
      <point x="18.6667" y="442.333" type="curve"/>
      <point x="18.6667" y="460.333" type="line"/>
      <point x="188.667" y="460.333" type="line"/>
      <point x="188.667" y="95" type="line" smooth="yes"/>
      <point x="188.667" y="34.3333"/>
      <point x="198" y="23"/>
      <point x="253.667" y="18" type="curve"/>
      <point x="253.667" y="0" type="line"/>
    </contour>
  </outline>
</glyph>
<glyph name="Eng" format="2">
  <advance width="722"/>
  <unicode hex="014A"/>
  <outline>
    <contour>
      <point x="13.3333" y="0" type="line"/>
      <point x="13.3333" y="21" type="line"/>
      <point x="93" y="28"/>
      <point x="107.333" y="45.3333"/>
      <point x="107.333" y="133" type="curve" smooth="yes"/>
      <point x="107.333" y="585" type="line"/>
      <point x="64.6667" y="635.333"/>
      <point x="49.6667" y="645.667"/>
      <point x="14.3333" y="645.667" type="curve"/>
      <point x="14.3333" y="666.667" type="line"/>
      <point x="198.715" y="666.667" type="line"/>
      <point x="571.667" y="201" type="line"/>
      <point x="571.667" y="527.333" type="line" smooth="yes"/>
      <point x="571.667" y="611.731"/>
      <point x="561.691" y="638.62"/>
      <point x="477.18" y="645.667" type="curve"/>
      <point x="477.18" y="666.667" type="line"/>
      <point x="705" y="666.667" type="line"/>
      <point x="705" y="645.667" type="line"/>
      <point x="625.414" y="636.237"/>
      <point x="615.667" y="612.193"/>
      <point x="615.667" y="533.667" type="curve" smooth="yes"/>
      <point x="615.667" y="-27.3333" type="line" smooth="yes"/>
      <point x="615.667" y="-145.667"/>
      <point x="585.955" y="-221"/>
      <point x="503.051" y="-221" type="curve" smooth="yes"/>
      <point x="442.658" y="-221"/>
      <point x="411.374" y="-181.713"/>
      <point x="411.374" y="-139.921" type="curve" smooth="yes"/>
      <point x="411.374" y="-109.588"/>
      <point x="430.057" y="-86.9024"/>
      <point x="459.094" y="-86.9024" type="curve" smooth="yes"/>
      <point x="491.093" y="-86.9024"/>
      <point x="505.855" y="-108.19"/>
      <point x="505.855" y="-129.547" type="curve" smooth="yes"/>
      <point x="505.855" y="-154.687"/>
      <point x="490.323" y="-161.044"/>
      <point x="489.836" y="-177.879" type="curve"/>
      <point x="490.306" y="-187.676"/>
      <point x="499.267" y="-194.352"/>
      <point x="512.256" y="-194.352" type="curve" smooth="yes"/>
      <point x="555.003" y="-194.352"/>
      <point x="572.667" y="-104.299"/>
      <point x="572.667" y="-62" type="curve" smooth="yes"/>
      <point x="572.667" y="14.6667" type="line"/>
      <point x="151.333" y="534.667" type="line"/>
      <point x="151.333" y="139.333" type="line" smooth="yes"/>
      <point x="151.333" y="48.3333"/>
      <point x="168.694" y="26.6667"/>
      <point x="245.818" y="21" type="curve"/>
      <point x="245.818" y="0" type="line"/>
    </contour>
  </outline>
</glyph>
<glyph name="OE" format="2">
  <advance width="926"/>
  <unicode hex="0152"/>
  <outline>
    <contour>
      <point x="28" y="318.858" type="curve" smooth="yes"/>
      <point x="28" y="529.76"/>
      <point x="141.667" y="672.667"/>
      <point x="356" y="672.667" type="curve"/>
      <point x="518" y="666" type="line"/>
      <point x="872.667" y="666" type="line"/>
      <point x="872.667" y="505.264" type="line"/>
      <point x="848.667" y="505.264" type="line"/>
      <point x="832.917" y="621.101"/>
      <point x="774.45" y="630.794"/>
      <point x="671.23" y="630.992" type="curve"/>
      <point x="625.333" y="631" type="line"/>
      <point x="597.784" y="631"/>
      <point x="563" y="634.333"/>
      <point x="563" y="606.937" type="curve" smooth="yes"/>
      <point x="563" y="365.952" type="line"/>
      <point x="632.333" y="366" type="line"/>
      <point x="724.673" y="366.512"/>
      <point x="754" y="377.718"/>
      <point x="767.333" y="480.359" type="curve"/>
      <point x="789" y="480.359" type="line"/>
      <point x="789" y="210.982" type="line"/>
      <point x="767.333" y="210.982" type="line"/>
      <point x="757.667" y="296.248"/>
      <point x="741.684" y="328.654"/>
      <point x="655" y="330.333" type="curve"/>
      <point x="563" y="330.491" type="line"/>
      <point x="563.667" y="82.4407" type="line"/>
      <point x="563.667" y="44.0201"/>
      <point x="577.667" y="35.6667"/>
      <point x="620.667" y="35.6667" type="curve"/>
      <point x="710.158" y="37.0138" type="line" smooth="yes"/>
      <point x="807.251" y="37.9689"/>
      <point x="851.931" y="99.9562"/>
      <point x="892.667" y="181.394" type="curve"/>
      <point x="917.667" y="181.394" type="line"/>
      <point x="874.333" y="-0.666667" type="line"/>
      <point x="497.667" y="-0.666667" type="line"/>
      <point x="325.381" y="-6" type="line"/>
      <point x="137.536" y="-6"/>
      <point x="28" y="136.756"/>
    </contour>
    <contour>
      <point x="158.667" y="323.304" type="curve" smooth="yes"/>
      <point x="158.667" y="153.95"/>
      <point x="207.025" y="29.6667"/>
      <point x="342.667" y="29.6667" type="curve" smooth="yes"/>
      <point x="423.923" y="29.6667"/>
      <point x="444.667" y="78.6366"/>
      <point x="444.667" y="157.729" type="curve" smooth="yes"/>
      <point x="444.667" y="519.332" type="line" smooth="yes"/>
      <point x="444.667" y="594.551"/>
      <point x="420.058" y="638.667"/>
      <point x="344.166" y="638.667" type="curve" smooth="yes"/>
      <point x="225.667" y="638.667"/>
      <point x="158.667" y="527.755"/>
    </contour>
  </outline>
</glyph>
<glyph name="longs" format="2">
  <advance width="333"/>
  <unicode hex="017F"/>
  <outline>
    <contour>
      <point x="18" y="0" type="line"/>
      <point x="18" y="18" type="line"/>
      <point x="81.3333" y="22.3333"/>
      <point x="92.3333" y="34.3333"/>
      <point x="92.3333" y="97.3333" type="curve" smooth="yes"/>
      <point x="92.3333" y="417.667" type="line"/>
      <point x="18.6667" y="417.667" type="line"/>
      <point x="18.6667" y="453.667" type="line"/>
      <point x="92.3333" y="453.667" type="line"/>
      <point x="92.6518" y="574.571"/>
      <point x="116.158" y="685.667"/>
      <point x="241.199" y="685.667" type="curve" smooth="yes"/>
      <point x="296.892" y="685.667"/>
      <point x="341.622" y="654.667"/>
      <point x="341.622" y="611" type="curve" smooth="yes"/>
      <point x="341.622" y="583.333"/>
      <point x="322.639" y="563"/>
      <point x="294.154" y="563" type="curve" smooth="yes"/>
      <point x="269.484" y="563"/>
      <point x="253.261" y="578.372"/>
      <point x="253.261" y="601.997" type="curve" smooth="yes"/>
      <point x="253.261" y="622.526"/>
      <point x="266.019" y="632.001"/>
      <point x="266.581" y="643.02" type="curve"/>
      <point x="266.581" y="651.274"/>
      <point x="259.684" y="656.667"/>
      <point x="244.88" y="656.667" type="curve" smooth="yes"/>
      <point x="211.667" y="656.667"/>
      <point x="194.667" y="628.667"/>
      <point x="194.667" y="571.667" type="curve" smooth="yes"/>
      <point x="194.667" y="103.667" type="line" smooth="yes"/>
      <point x="194.667" y="32"/>
      <point x="206" y="20"/>
      <point x="284" y="18" type="curve"/>
      <point x="284" y="0" type="line"/>
    </contour>
  </outline>
</glyph>
<glyph name="uni0208" format="2">
  <advance width="348"/>
  <unicode hex="0208"/>
  <outline>
    <contour>
      <point x="-73.6667" y="865" type="curve" smooth="yes"/>
      <point x="-73.6667" y="887"/>
      <point x="-58.6667" y="901"/>
      <point x="-34.3333" y="901" type="curve" smooth="yes"/>
      <point x="-18" y="901"/>
      <point x="-6.33333" y="894.667"/>
      <point x="11.3333" y="876.333" type="curve" smooth="yes"/>
      <point x="155" y="725.333" type="line"/>
      <point x="109.667" y="725.333" type="line"/>
      <point x="-40.3333" y="819.333" type="line" smooth="yes"/>
      <point x="-65" y="834.667"/>
      <point x="-73.6667" y="846.667"/>
    </contour>
    <contour>
      <point x="13.3333" y="0" type="line"/>
      <point x="13.3333" y="21" type="line"/>
      <point x="94.3333" y="25.3333"/>
      <point x="109" y="38"/>
      <point x="109" y="104.667" type="curve" smooth="yes"/>
      <point x="109" y="562" type="line" smooth="yes"/>
      <point x="109" y="628.333"/>
      <point x="94" y="640.667"/>
      <point x="13.3333" y="645.667" type="curve"/>
      <point x="13.3333" y="666.667" type="line"/>
      <point x="328" y="666.667" type="line"/>
      <point x="328" y="645.667" type="line"/>
      <point x="247.333" y="642"/>
      <point x="231" y="628"/>
      <point x="231" y="562" type="curve" smooth="yes"/>
      <point x="231" y="104.667" type="line" smooth="yes"/>
      <point x="231" y="38.6667"/>
      <point x="248" y="24.6667"/>
      <point x="328" y="21" type="curve"/>
      <point x="328" y="0" type="line"/>
    </contour>
    <contour>
      <point x="97" y="865" type="curve" smooth="yes"/>
      <point x="97" y="887"/>
      <point x="112" y="901"/>
      <point x="136.333" y="901" type="curve" smooth="yes"/>
      <point x="152.667" y="901"/>
      <point x="164.333" y="894.667"/>
      <point x="182" y="876.333" type="curve" smooth="yes"/>
      <point x="325.667" y="725.333" type="line"/>
      <point x="280.333" y="725.333" type="line"/>
      <point x="130.333" y="819.333" type="line" smooth="yes"/>
      <point x="105.667" y="834.667"/>
      <point x="97" y="846.667"/>
    </contour>
  </outline>
</glyph>
<glyph name="uni020D" format="2">
  <advance width="500"/>
  <unicode hex="020D"/>
  <outline>
    <contour>
      <point x="6.33333" y="653.667" type="curve" smooth="yes"/>
      <point x="6.33333" y="675.667"/>
      <point x="21.3333" y="689.667"/>
      <point x="45.6667" y="689.667" type="curve" smooth="yes"/>
      <point x="62" y="689.667"/>
      <point x="73.6667" y="683.333"/>
      <point x="91.3333" y="665" type="curve" smooth="yes"/>
      <point x="235" y="514" type="line"/>
      <point x="189.667" y="514" type="line"/>
      <point x="39.6667" y="608" type="line" smooth="yes"/>
      <point x="15" y="623.333"/>
      <point x="6.33333" y="635.333"/>
    </contour>
    <contour>
      <point x="27.6667" y="229.333" type="curve" smooth="yes"/>
      <point x="27.6667" y="358.667"/>
      <point x="117.333" y="464.333"/>
      <point x="247" y="464.333" type="curve" smooth="yes"/>
      <point x="382.667" y="464.333"/>
      <point x="472" y="366.333"/>
      <point x="472" y="228.333" type="curve" smooth="yes"/>
      <point x="472" y="98.6667"/>
      <point x="378.667" y="-11.3333"/>
      <point x="249" y="-11.3333" type="curve" smooth="yes"/>
      <point x="115.333" y="-11.3333"/>
      <point x="27.6667" y="95.6667"/>
    </contour>
    <contour>
      <point x="136.667" y="255.333" type="curve" smooth="yes"/>
      <point x="136.667" y="148"/>
      <point x="162" y="17.6667"/>
      <point x="258.333" y="17.6667" type="curve" smooth="yes"/>
      <point x="340.333" y="17.6667"/>
      <point x="363" y="105.667"/>
      <point x="363" y="207" type="curve" smooth="yes"/>
      <point x="363" y="319"/>
      <point x="335.333" y="435.333"/>
      <point x="242" y="435.333" type="curve" smooth="yes"/>
      <point x="164.667" y="435.333"/>
      <point x="136.667" y="362.667"/>
    </contour>
    <contour>
      <point x="177" y="653.667" type="curve" smooth="yes"/>
      <point x="177" y="675.667"/>
      <point x="192" y="689.667"/>
      <point x="216.333" y="689.667" type="curve" smooth="yes"/>
      <point x="232.667" y="689.667"/>
      <point x="244.333" y="683.333"/>
      <point x="262" y="665" type="curve" smooth="yes"/>
      <point x="405.667" y="514" type="line"/>
      <point x="360.333" y="514" type="line"/>
      <point x="210.333" y="608" type="line" smooth="yes"/>
      <point x="185.667" y="623.333"/>
      <point x="177" y="635.333"/>
    </contour>
  </outline>
</glyph>
<glyph name="uni020F" format="2">
  <advance width="500"/>
  <unicode hex="020F"/>
  <outline>
    <contour>
      <point x="27.6667" y="229.333" type="curve" smooth="yes"/>
      <point x="27.6667" y="358.667"/>
      <point x="117.333" y="464.333"/>
      <point x="247" y="464.333" type="curve" smooth="yes"/>
      <point x="382.667" y="464.333"/>
      <point x="472" y="366.333"/>
      <point x="472" y="228.333" type="curve" smooth="yes"/>
      <point x="472" y="98.6667"/>
      <point x="378.667" y="-11.3333"/>
      <point x="249" y="-11.3333" type="curve" smooth="yes"/>
      <point x="115.333" y="-11.3333"/>
      <point x="27.6667" y="95.6667"/>
    </contour>
    <contour>
      <point x="110.333" y="514" type="line"/>
      <point x="110.667" y="626"/>
      <point x="181" y="669"/>
      <point x="250.667" y="669" type="curve" smooth="yes"/>
      <point x="320.333" y="669"/>
      <point x="388.667" y="625"/>
      <point x="390.667" y="514" type="curve"/>
      <point x="357.333" y="514" type="line"/>
      <point x="346" y="573"/>
      <point x="311.333" y="605"/>
      <point x="251" y="605" type="curve" smooth="yes"/>
      <point x="191" y="605"/>
      <point x="153.667" y="573.667"/>
      <point x="143.667" y="514" type="curve"/>
    </contour>
    <contour>
      <point x="136.667" y="255.333" type="curve" smooth="yes"/>
      <point x="136.667" y="148"/>
      <point x="162" y="17.6667"/>
      <point x="258.333" y="17.6667" type="curve" smooth="yes"/>
      <point x="340.333" y="17.6667"/>
      <point x="363" y="105.667"/>
      <point x="363" y="207" type="curve" smooth="yes"/>
      <point x="363" y="319"/>
      <point x="335.333" y="435.333"/>
      <point x="242" y="435.333" type="curve" smooth="yes"/>
      <point x="164.667" y="435.333"/>
      <point x="136.667" y="362.667"/>
    </contour>
  </outline>
</glyph>
<glyph name="uni02BD" format="2">
  <advance width="333"/>
  <unicode hex="02BD"/>
  <outline>
    <contour>
      <point x="92" y="666.667" type="curve" smooth="yes"/>
      <point x="92" y="721"/>
      <point x="126.667" y="761"/>
      <point x="174.667" y="761" type="curve" smooth="yes"/>
      <point x="211.667" y="761"/>
      <point x="239" y="735.333"/>
      <point x="239" y="698.333" type="curve" smooth="yes"/>
      <point x="239" y="662.667"/>
      <point x="213" y="640.667"/>
      <point x="177.333" y="640.667" type="curve" smooth="yes"/>
      <point x="172.704" y="640.667"/>
      <point x="168.258" y="641.472"/>
      <point x="165.017" y="642.306" type="curve" smooth="yes"/>
      <point x="158.684" y="643.855"/>
      <point x="154.894" y="644"/>
      <point x="153.333" y="644" type="curve"/>
      <point x="145" y="644"/>
      <point x="138.333" y="637"/>
      <point x="138.333" y="628.333" type="curve" smooth="yes"/>
      <point x="138.333" y="595.333"/>
      <point x="166.333" y="563.667"/>
      <point x="225.667" y="533" type="curve"/>
      <point x="216.333" y="514" type="line"/>
      <point x="135" y="550.333"/>
      <point x="92" y="598.667"/>
    </contour>
  </outline>
</glyph>
<glyph name="uni02BE" format="2">
  <advance width="210"/>
  <unicode hex="02BE"/>
  <outline>
    <contour>
      <point x="53.3333" y="520.333" type="curve"/>
      <point x="53.3333" y="559" type="line"/>
      <point x="89" y="559"/>
      <point x="118" y="587"/>
      <point x="118" y="621.333" type="curve" smooth="yes"/>
      <point x="118" y="656"/>
      <point x="87.3333" y="685.333"/>
      <point x="53.3333" y="685.333" type="curve"/>
      <point x="53.3333" y="724" type="line"/>
      <point x="109.333" y="724"/>
      <point x="156.667" y="677.667"/>
      <point x="156.667" y="621.667" type="curve" smooth="yes"/>
      <point x="156.667" y="565.333"/>
      <point x="109.667" y="520.333"/>
    </contour>
  </outline>
</glyph>
<glyph name="uni02C0" format="2">
  <advance width="333"/>
  <unicode hex="02C0"/>
  <outline>
    <contour>
      <point x="61" y="654.098" type="curve" smooth="yes"/>
      <point x="61" y="690.667"/>
      <point x="103" y="715.667"/>
      <point x="165.862" y="715.667" type="curve" smooth="yes"/>
      <point x="242.333" y="715.667"/>
      <point x="267.333" y="678.667"/>
      <point x="267.333" y="645.93" type="curve" smooth="yes"/>
      <point x="267.333" y="615.798"/>
      <point x="246.527" y="602.153"/>
      <point x="224.185" y="587.38" type="curve" smooth="yes"/>
      <point x="200.161" y="571.476"/>
      <point x="170.667" y="544.856"/>
      <point x="170.667" y="514" type="curve"/>
      <point x="144.667" y="514" type="line"/>
      <point x="144.619" y="557.091"/>
      <point x="161.617" y="578.236"/>
      <point x="176.794" y="597.156" type="curve" smooth="yes"/>
      <point x="189.753" y="613.328"/>
      <point x="200.333" y="627.314"/>
      <point x="200.333" y="648.648" type="curve" smooth="yes"/>
      <point x="200.333" y="675"/>
      <point x="184.333" y="689"/>
      <point x="150.568" y="689" type="curve" smooth="yes"/>
      <point x="133.227" y="689"/>
      <point x="121.257" y="684.804"/>
      <point x="111" y="674.667" type="curve"/>
      <point x="120.107" y="668.038"/>
      <point x="127.333" y="654.333"/>
      <point x="127.333" y="642.352" type="curve" smooth="yes"/>
      <point x="127.333" y="629"/>
      <point x="118.333" y="620.333"/>
      <point x="98.9117" y="620.333" type="curve" smooth="yes"/>
      <point x="75" y="620.333"/>
      <point x="61" y="633"/>
    </contour>
  </outline>
</glyph>
<glyph name="caron" format="2">
  <advance width="333"/>
  <unicode hex="02C7"/>
  <outline>
    <contour>
      <point x="6.66667" y="684" type="line"/>
      <point x="48" y="684" type="line"/>
      <point x="166" y="582.333" type="line"/>
      <point x="284.667" y="684" type="line"/>
      <point x="326.333" y="684" type="line"/>
      <point x="202" y="514" type="line"/>
      <point x="130" y="514" type="line"/>
    </contour>
  </outline>
</glyph>
<glyph name="uni02C9" format="2">
  <advance width="333"/>
  <unicode hex="02C9"/>
  <outline>
    <contour>
      <point x="7.66667" y="553" type="line"/>
      <point x="7.66667" y="613" type="line"/>
      <point x="325" y="613" type="line"/>
      <point x="325" y="553" type="line"/>
    </contour>
  </outline>
</glyph>
<glyph name="uni02CA" format="2">
  <advance width="333"/>
  <unicode hex="02CA"/>
  <outline>
    <contour>
      <point x="90.6667" y="514" type="line"/>
      <point x="234.333" y="665" type="line" smooth="yes"/>
      <point x="252" y="683.333"/>
      <point x="263.667" y="689.667"/>
      <point x="280" y="689.667" type="curve" smooth="yes"/>
      <point x="304.333" y="689.667"/>
      <point x="319.333" y="675.667"/>
      <point x="319.333" y="653.667" type="curve" smooth="yes"/>
      <point x="319.333" y="635.333"/>
      <point x="310.667" y="623.333"/>
      <point x="286" y="608" type="curve" smooth="yes"/>
      <point x="136" y="514" type="line"/>
    </contour>
  </outline>
</glyph>
<glyph name="uni02CB" format="2">
  <advance width="333"/>
  <unicode hex="02CB"/>
  <outline>
    <contour>
      <point x="15.3333" y="654" type="curve" smooth="yes"/>
      <point x="15.3333" y="675"/>
      <point x="31" y="689.667"/>
      <point x="53.6667" y="689.667" type="curve" smooth="yes"/>
      <point x="70" y="689.667"/>
      <point x="82.3333" y="683"/>
      <point x="99.6667" y="665" type="curve" smooth="yes"/>
      <point x="243.333" y="514" type="line"/>
      <point x="198" y="514" type="line"/>
      <point x="48" y="608" type="line" smooth="yes"/>
      <point x="26.3333" y="622"/>
      <point x="15.3333" y="636.667"/>
    </contour>
  </outline>
</glyph>
<glyph name="dotaccent" format="2">
  <advance width="333"/>
  <unicode hex="02D9"/>
  <outline>
    <contour>
      <point x="113" y="583" type="curve" smooth="yes"/>
      <point x="113" y="611.333"/>
      <point x="138.333" y="636.667"/>
      <point x="166" y="636.667" type="curve" smooth="yes"/>
      <point x="196.667" y="636.667"/>
      <point x="222" y="611.333"/>
      <point x="222" y="581.333" type="curve" smooth="yes"/>
      <point x="222" y="551.667"/>
      <point x="197" y="527.667"/>
      <point x="166" y="527.667" type="curve" smooth="yes"/>
      <point x="136.333" y="527.667"/>
      <point x="113" y="552"/>
    </contour>
  </outline>
</glyph>
<glyph name="ogonek" format="2">
  <advance width="333"/>
  <unicode hex="02DB"/>
  <outline>
    <contour>
      <point x="72.6667" y="-89.1958" type="curve" smooth="yes"/>
      <point x="72.6667" y="-58.6667"/>
      <point x="88.2361" y="-30.6887"/>
      <point x="129.333" y="0.666667" type="curve" smooth="yes"/>
      <point x="147.902" y="14.6667" type="line"/>
      <point x="196.735" y="14.6667" type="line"/>
      <point x="178.667" y="0" type="line" smooth="yes"/>
      <point x="153.11" y="-20.4907"/>
      <point x="138" y="-43"/>
      <point x="138" y="-67.0841" type="curve" smooth="yes"/>
      <point x="138" y="-90.7143"/>
      <point x="154.445" y="-107.333"/>
      <point x="181.351" y="-107.333" type="curve" smooth="yes"/>
      <point x="202.334" y="-107.333"/>
      <point x="223.634" y="-98.9463"/>
      <point x="251.667" y="-76.6667" type="curve"/>
      <point x="272.333" y="-92" type="line"/>
      <point x="239.333" y="-142.667"/>
      <point x="200.667" y="-167.667"/>
      <point x="155.569" y="-167.667" type="curve" smooth="yes"/>
      <point x="109" y="-167.667"/>
      <point x="72.6667" y="-134.333"/>
    </contour>
  </outline>
</glyph>
<glyph name="acutecomb" format="2">
  <unicode hex="0301"/>
  <outline>
    <contour>
      <point x="-334" y="514" type="line"/>
      <point x="-190.333" y="665" type="line" smooth="yes"/>
      <point x="-172.667" y="683.333"/>
      <point x="-160.333" y="689.667"/>
      <point x="-144" y="689.667" type="curve" smooth="yes"/>
      <point x="-119.667" y="689.667"/>
      <point x="-105.333" y="675.667"/>
      <point x="-105.333" y="652.428" type="curve" smooth="yes"/>
      <point x="-105.333" y="635.333"/>
      <point x="-114" y="623.333"/>
      <point x="-138.667" y="608" type="curve" smooth="yes"/>
      <point x="-288.667" y="514" type="line"/>
    </contour>
  </outline>
</glyph>
<glyph name="tildecomb" format="2">
  <unicode hex="0303"/>
  <outline>
    <contour>
      <point x="-429.333" y="537.667" type="line"/>
      <point x="-413.333" y="609.667"/>
      <point x="-377.333" y="646.667"/>
      <point x="-323.376" y="646.667" type="curve" smooth="yes"/>
      <point x="-301.667" y="646.667"/>
      <point x="-277" y="640.667"/>
      <point x="-252.333" y="628.333" type="curve" smooth="yes"/>
      <point x="-223" y="614.333" type="line" smooth="yes"/>
      <point x="-202.333" y="604.667"/>
      <point x="-188.333" y="600.333"/>
      <point x="-175.583" y="600.333" type="curve" smooth="yes"/>
      <point x="-150.333" y="600.333"/>
      <point x="-137" y="612.667"/>
      <point x="-121.333" y="650" type="curve"/>
      <point x="-87.6667" y="650" type="line"/>
      <point x="-109.333" y="570.333"/>
      <point x="-141" y="537"/>
      <point x="-198.569" y="537" type="curve" smooth="yes"/>
      <point x="-220" y="537"/>
      <point x="-238.333" y="541.667"/>
      <point x="-272" y="557.667" type="curve" smooth="yes"/>
      <point x="-297" y="569.333" type="line" smooth="yes"/>
      <point x="-321.333" y="580.333"/>
      <point x="-333.333" y="584"/>
      <point x="-345.03" y="584" type="curve" smooth="yes"/>
      <point x="-369.667" y="584"/>
      <point x="-387.333" y="567.667"/>
      <point x="-396" y="537.667" type="curve"/>
    </contour>
  </outline>
</glyph>
<glyph name="macroncomb" format="2">
  <unicode hex="0304"/>
  <outline>
    <contour>
      <point x="-417" y="553" type="line"/>
      <point x="-417" y="613" type="line"/>
      <point x="-99.6667" y="613" type="line"/>
      <point x="-99.6667" y="553" type="line"/>
    </contour>
  </outline>
</glyph>
<glyph name="brevecomb" format="2">
  <unicode hex="0306"/>
  <outline>
    <contour>
      <point x="-402" y="673" type="curve"/>
      <point x="-368" y="673" type="line"/>
      <point x="-358" y="612"/>
      <point x="-319.333" y="579.333"/>
      <point x="-258" y="579.333" type="curve" smooth="yes"/>
      <point x="-191" y="579.333"/>
      <point x="-167" y="614"/>
      <point x="-147.667" y="673" type="curve"/>
      <point x="-113.667" y="673" type="line"/>
      <point x="-121" y="584.667"/>
      <point x="-162" y="514"/>
      <point x="-259.667" y="514" type="curve" smooth="yes"/>
      <point x="-356" y="514"/>
      <point x="-401.667" y="583"/>
    </contour>
  </outline>
</glyph>
<glyph name="diaeresiscomb" format="2">
  <unicode hex="0308"/>
  <outline>
    <contour>
      <point x="-413.333" y="582.667" type="curve" smooth="yes"/>
      <point x="-413.333" y="611.333"/>
      <point x="-388" y="636.667"/>
      <point x="-360" y="636.667" type="curve" smooth="yes"/>
      <point x="-329.667" y="636.667"/>
      <point x="-304.333" y="611.333"/>
      <point x="-304.333" y="581.333" type="curve" smooth="yes"/>
      <point x="-304.333" y="551.667"/>
      <point x="-329.333" y="527.667"/>
      <point x="-360" y="527.667" type="curve" smooth="yes"/>
      <point x="-389.667" y="527.667"/>
      <point x="-413.333" y="552.333"/>
    </contour>
    <contour>
      <point x="-210.667" y="583" type="curve" smooth="yes"/>
      <point x="-210.667" y="611.333"/>
      <point x="-185.333" y="636.667"/>
      <point x="-157.667" y="636.667" type="curve" smooth="yes"/>
      <point x="-127" y="636.667"/>
      <point x="-101.667" y="611.333"/>
      <point x="-101.667" y="581.333" type="curve" smooth="yes"/>
      <point x="-101.667" y="551.667"/>
      <point x="-126.667" y="527.667"/>
      <point x="-157.667" y="527.667" type="curve" smooth="yes"/>
      <point x="-187.333" y="527.667"/>
      <point x="-210.667" y="552"/>
    </contour>
  </outline>
</glyph>
<glyph name="invertedbrevecomb" format="2">
  <unicode hex="0311"/>
  <outline>
    <contour>
      <point x="-398.333" y="514" type="line"/>
      <point x="-398" y="626"/>
      <point x="-327.667" y="669"/>
      <point x="-258" y="669" type="curve" smooth="yes"/>
      <point x="-188.333" y="669"/>
      <point x="-120" y="625"/>
      <point x="-118" y="514" type="curve"/>
      <point x="-151.333" y="514" type="line"/>
      <point x="-162.667" y="573"/>
      <point x="-197.333" y="605"/>
      <point x="-257.667" y="605" type="curve" smooth="yes"/>
      <point x="-317.667" y="605"/>
      <point x="-355" y="573.667"/>
      <point x="-365" y="514" type="curve"/>
    </contour>
  </outline>
</glyph>
<glyph name="uni0313" format="2">
  <unicode hex="0313"/>
  <outline>
    <contour>
      <point x="-332" y="693" type="curve" smooth="yes"/>
      <point x="-332" y="730"/>
      <point x="-304.667" y="755.667"/>
      <point x="-267.667" y="755.667" type="curve" smooth="yes"/>
      <point x="-219.667" y="755.667"/>
      <point x="-185" y="715.667"/>
      <point x="-185" y="661.333" type="curve" smooth="yes"/>
      <point x="-185" y="593.333"/>
      <point x="-228.667" y="545"/>
      <point x="-309.333" y="514" type="curve"/>
      <point x="-318.667" y="533" type="line"/>
      <point x="-260" y="557.333"/>
      <point x="-231.333" y="590"/>
      <point x="-231.333" y="623" type="curve" smooth="yes"/>
      <point x="-231.333" y="632.016"/>
      <point x="-238.462" y="638.667"/>
      <point x="-248" y="638.667" type="curve"/>
      <point x="-249.514" y="638.667"/>
      <point x="-253.256" y="638.398"/>
      <point x="-258.783" y="636.525" type="curve"/>
      <point x="-261.549" y="635.683"/>
      <point x="-266.693" y="634.667"/>
      <point x="-271.667" y="634.667" type="curve" smooth="yes"/>
      <point x="-307.333" y="634.667"/>
      <point x="-332" y="657.333"/>
    </contour>
  </outline>
</glyph>
<glyph name="uni0314" format="2">
  <unicode hex="0314"/>
  <outline>
    <contour>
      <point x="-332.667" y="666.667" type="curve" smooth="yes"/>
      <point x="-332.667" y="721"/>
      <point x="-298" y="761"/>
      <point x="-250" y="761" type="curve" smooth="yes"/>
      <point x="-213" y="761"/>
      <point x="-185.667" y="735.333"/>
      <point x="-185.667" y="698.333" type="curve" smooth="yes"/>
      <point x="-185.667" y="662.667"/>
      <point x="-211.667" y="640.667"/>
      <point x="-247.333" y="640.667" type="curve" smooth="yes"/>
      <point x="-252.053" y="640.667"/>
      <point x="-255.615" y="641.263"/>
      <point x="-259.332" y="642.472" type="curve"/>
      <point x="-265.141" y="644.12"/>
      <point x="-270.011" y="644.333"/>
      <point x="-271.333" y="644.333" type="curve"/>
      <point x="-279.667" y="644.333"/>
      <point x="-286.333" y="637"/>
      <point x="-286.333" y="628.333" type="curve" smooth="yes"/>
      <point x="-286.333" y="595.333"/>
      <point x="-258.333" y="563.667"/>
      <point x="-199" y="533" type="curve"/>
      <point x="-208.333" y="514" type="line"/>
      <point x="-289.667" y="550.333"/>
      <point x="-332.667" y="598.667"/>
    </contour>
  </outline>
</glyph>
<glyph name="gravebelowcomb" format="2">
  <unicode hex="0316"/>
  <outline>
    <contour>
      <point x="-334" y="-221" type="line"/>
      <point x="-190.333" y="-70" type="line" smooth="yes"/>
      <point x="-172.667" y="-51.6667"/>
      <point x="-161" y="-45.3333"/>
      <point x="-144.667" y="-45.3333" type="curve" smooth="yes"/>
      <point x="-120.333" y="-45.3333"/>
      <point x="-105.333" y="-59.3333"/>
      <point x="-105.333" y="-81.3333" type="curve" smooth="yes"/>
      <point x="-105.333" y="-99.6667"/>
      <point x="-114" y="-111.667"/>
      <point x="-138.667" y="-127" type="curve" smooth="yes"/>
      <point x="-288.667" y="-221" type="line"/>
    </contour>
  </outline>
</glyph>
<glyph name="uni031B" format="2">
  <unicode hex="031B"/>
  <outline>
    <contour>
      <point x="-139.302" y="399.329" type="line"/>
      <point x="-139.326" y="425.096" type="line"/>
      <point x="-116" y="425.333" type="line" smooth="yes"/>
      <point x="-94.3351" y="425.521"/>
      <point x="-64.3333" y="432.333"/>
      <point x="-64.3333" y="452.333" type="curve" smooth="yes"/>
      <point x="-64.3333" y="460.667"/>
      <point x="-69.2927" y="468.894"/>
      <point x="-77" y="475" type="curve"/>
      <point x="-87.4379" y="482.787"/>
      <point x="-102.667" y="496"/>
      <point x="-102.667" y="521.333" type="curve" smooth="yes"/>
      <point x="-102.667" y="564"/>
      <point x="-69.3333" y="576.333"/>
      <point x="-48.3333" y="576.333" type="curve" smooth="yes"/>
      <point x="-10.3333" y="576.333"/>
      <point x="12" y="546"/>
      <point x="12" y="506" type="curve" smooth="yes"/>
      <point x="12" y="443"/>
      <point x="-46.6667" y="399.345"/>
      <point x="-116" y="399.333" type="curve" smooth="yes"/>
    </contour>
  </outline>
</glyph>
<glyph name="dotbelowcomb" format="2">
  <unicode hex="0323"/>
  <outline>
    <contour>
      <point x="-311.667" y="-115" type="curve" smooth="yes"/>
      <point x="-311.667" y="-86.6667"/>
      <point x="-286.333" y="-61.3333"/>
      <point x="-258.667" y="-61.3333" type="curve" smooth="yes"/>
      <point x="-228" y="-61.3333"/>
      <point x="-202.667" y="-86.6667"/>
      <point x="-202.667" y="-116.667" type="curve" smooth="yes"/>
      <point x="-202.667" y="-146.333"/>
      <point x="-227.667" y="-170.333"/>
      <point x="-258.667" y="-170.333" type="curve" smooth="yes"/>
      <point x="-288.333" y="-170.333"/>
      <point x="-311.667" y="-146"/>
    </contour>
  </outline>
</glyph>
<glyph name="uni0324" format="2">
  <unicode hex="0324"/>
  <outline>
    <contour>
      <point x="-413.333" y="-115.333" type="curve" smooth="yes"/>
      <point x="-413.333" y="-86.6667"/>
      <point x="-388" y="-61.3333"/>
      <point x="-360" y="-61.3333" type="curve" smooth="yes"/>
      <point x="-329.667" y="-61.3333"/>
      <point x="-304.333" y="-86.6667"/>
      <point x="-304.333" y="-116.667" type="curve" smooth="yes"/>
      <point x="-304.333" y="-146.333"/>
      <point x="-329.333" y="-170.333"/>
      <point x="-360" y="-170.333" type="curve" smooth="yes"/>
      <point x="-389.667" y="-170.333"/>
      <point x="-413.333" y="-145.667"/>
    </contour>
    <contour>
      <point x="-210.667" y="-115" type="curve" smooth="yes"/>
      <point x="-210.667" y="-86.6667"/>
      <point x="-185.333" y="-61.3333"/>
      <point x="-157.667" y="-61.3333" type="curve" smooth="yes"/>
      <point x="-127" y="-61.3333"/>
      <point x="-101.667" y="-86.6667"/>
      <point x="-101.667" y="-116.667" type="curve" smooth="yes"/>
      <point x="-101.667" y="-146.333"/>
      <point x="-126.667" y="-170.333"/>
      <point x="-157.667" y="-170.333" type="curve" smooth="yes"/>
      <point x="-187.333" y="-170.333"/>
      <point x="-210.667" y="-146"/>
    </contour>
  </outline>
</glyph>
<glyph name="uni0326" format="2">
  <unicode hex="0326"/>
  <outline>
    <contour>
      <point x="-317.333" y="-91.6667" type="curve" smooth="yes"/>
      <point x="-317.333" y="-64"/>
      <point x="-293.333" y="-45"/>
      <point x="-265.333" y="-45" type="curve" smooth="yes"/>
      <point x="-228" y="-45"/>
      <point x="-199.333" y="-76.3333"/>
      <point x="-199.333" y="-113.667" type="curve" smooth="yes"/>
      <point x="-199.333" y="-164"/>
      <point x="-233" y="-202"/>
      <point x="-294" y="-223.333" type="curve"/>
      <point x="-302" y="-208.333" type="line"/>
      <point x="-271.333" y="-198.333"/>
      <point x="-236.333" y="-170"/>
      <point x="-236.333" y="-141.333" type="curve" smooth="yes"/>
      <point x="-236.333" y="-134"/>
      <point x="-240.348" y="-131.028"/>
      <point x="-246.667" y="-131" type="curve" smooth="yes"/>
      <point x="-248.842" y="-130.989"/>
      <point x="-252.827" y="-131.913"/>
      <point x="-256.297" y="-132.876" type="curve" smooth="yes"/>
      <point x="-260.045" y="-133.915"/>
      <point x="-263.971" y="-135"/>
      <point x="-267.667" y="-135" type="curve" smooth="yes"/>
      <point x="-295" y="-135"/>
      <point x="-317.333" y="-118.333"/>
    </contour>
  </outline>
</glyph>
<glyph name="uni032D" format="2">
  <unicode hex="032D"/>
  <outline>
    <contour>
      <point x="-418" y="-215.333" type="line"/>
      <point x="-294.667" y="-45.3333" type="line"/>
      <point x="-222.667" y="-45.3333" type="line"/>
      <point x="-98.3333" y="-215.333" type="line"/>
      <point x="-140" y="-215.333" type="line"/>
      <point x="-258.667" y="-114" type="line"/>
      <point x="-376.667" y="-215.333" type="line"/>
    </contour>
  </outline>
</glyph>
<glyph name="uni032E" format="2">
  <unicode hex="032E"/>
  <outline>
    <contour>
      <point x="-402" y="-45.3333" type="curve"/>
      <point x="-368" y="-45.3333" type="line"/>
      <point x="-358" y="-106.333"/>
      <point x="-319.333" y="-139"/>
      <point x="-258" y="-139" type="curve" smooth="yes"/>
      <point x="-191" y="-139"/>
      <point x="-167" y="-104.333"/>
      <point x="-147.667" y="-45.3333" type="curve"/>
      <point x="-113.667" y="-45.3333" type="line"/>
      <point x="-121" y="-133.667"/>
      <point x="-162" y="-204.333"/>
      <point x="-259.667" y="-204.333" type="curve" smooth="yes"/>
      <point x="-356" y="-204.333"/>
      <point x="-401.667" y="-135.333"/>
    </contour>
  </outline>
</glyph>
<glyph name="uni0342" format="2">
  <unicode hex="0342"/>
  <outline>
    <contour>
      <point x="-423.667" y="538.667" type="line"/>
      <point x="-413.333" y="595.333"/>
      <point x="-377.667" y="645"/>
      <point x="-315.333" y="645" type="curve" smooth="yes"/>
      <point x="-263.667" y="645"/>
      <point x="-222" y="600"/>
      <point x="-175.667" y="600" type="curve" smooth="yes"/>
      <point x="-150" y="600"/>
      <point x="-133" y="623"/>
      <point x="-124.667" y="645" type="curve"/>
      <point x="-92.3333" y="645" type="line"/>
      <point x="-103" y="590.667"/>
      <point x="-139" y="538.667"/>
      <point x="-199" y="538.667" type="curve" smooth="yes"/>
      <point x="-255.333" y="538.667"/>
      <point x="-296" y="583.667"/>
      <point x="-340.333" y="583.667" type="curve" smooth="yes"/>
      <point x="-368" y="583.667"/>
      <point x="-384.667" y="564"/>
      <point x="-391.667" y="538.667" type="curve"/>
    </contour>
  </outline>
</glyph>
<glyph name="uni0343" format="2">
  <unicode hex="0343"/>
  <outline>
    <contour>
      <point x="-327.667" y="522.667" type="line"/>
      <point x="-298" y="524.333"/>
      <point x="-242" y="549"/>
      <point x="-242" y="594.252" type="curve" smooth="yes"/>
      <point x="-242" y="619.006"/>
      <point x="-260.575" y="626.667"/>
      <point x="-279" y="626.667" type="curve" smooth="yes"/>
      <point x="-302.333" y="626.667"/>
      <point x="-325" y="641.667"/>
      <point x="-325" y="670.59" type="curve" smooth="yes"/>
      <point x="-325" y="704.667"/>
      <point x="-294.667" y="718.333"/>
      <point x="-266.09" y="718.333" type="curve" smooth="yes"/>
      <point x="-206.667" y="718.333"/>
      <point x="-180.333" y="665.667"/>
      <point x="-180.333" y="624.806" type="curve" smooth="yes"/>
      <point x="-180.333" y="541"/>
      <point x="-273.667" y="502.333"/>
      <point x="-324" y="499.667" type="curve"/>
    </contour>
  </outline>
</glyph>
<glyph name="uni0375" format="2">
  <advance width="204"/>
  <unicode hex="0375"/>
  <outline>
    <contour>
      <point x="20" y="-172.171" type="curve" smooth="yes"/>
      <point x="20" y="-155"/>
      <point x="27.9726" y="-141.896"/>
      <point x="40.3333" y="-127" type="curve" smooth="yes"/>
      <point x="155.667" y="12.6667" type="line"/>
      <point x="177" y="0" type="line"/>
      <point x="112" y="-173" type="line" smooth="yes"/>
      <point x="102.224" y="-198.903"/>
      <point x="79.6667" y="-212.333"/>
      <point x="58.785" y="-212.333" type="curve" smooth="yes"/>
      <point x="36" y="-212.333"/>
      <point x="20" y="-196.333"/>
    </contour>
  </outline>
</glyph>
<glyph name="tonos" format="2">
  <advance width="148"/>
  <unicode hex="0384"/>
  <anchor x="10" y="620" name="_tonos"/>
  <anchor x="14.6667" y="465.333" name="_tonos_top"/>
  <outline>
    <contour>
      <point x="0" y="465.333" type="line"/>
      <point x="42.6667" y="634.667" type="line" smooth="yes"/>
      <point x="50" y="663"/>
      <point x="64.6667" y="683.333"/>
      <point x="95.6667" y="683.333" type="curve" smooth="yes"/>
      <point x="118.333" y="683.333"/>
      <point x="134.333" y="670"/>
      <point x="134.333" y="647.06" type="curve" smooth="yes"/>
      <point x="134.333" y="630.002"/>
      <point x="123.441" y="610.385"/>
      <point x="113.351" y="595.315" type="curve" smooth="yes"/>
      <point x="26.3333" y="465.333" type="line"/>
    </contour>
  </outline>
</glyph>
<glyph name="dieresistonos" format="2">
  <advance width="330"/>
  <unicode hex="0385"/>
  <anchor x="134" y="465.333" name="_tonos_top"/>
  <outline>
    <contour>
      <point x="0" y="520.333" type="curve" smooth="yes"/>
      <point x="0" y="549.667"/>
      <point x="24" y="573.333"/>
      <point x="53.3333" y="573.333" type="curve" smooth="yes"/>
      <point x="82.6667" y="573.333"/>
      <point x="106.333" y="549.667"/>
      <point x="106.333" y="520.333" type="curve" smooth="yes"/>
      <point x="106.333" y="491"/>
      <point x="82.6667" y="467"/>
      <point x="53.3333" y="467" type="curve" smooth="yes"/>
      <point x="23.6667" y="467"/>
      <point x="0" y="490.667"/>
    </contour>
    <contour>
      <point x="120.667" y="465.333" type="line"/>
      <point x="163.333" y="631" type="line" smooth="yes"/>
      <point x="170.333" y="657.333"/>
      <point x="185.667" y="683.333"/>
      <point x="217.745" y="683.333" type="curve" smooth="yes"/>
      <point x="237.667" y="683.333"/>
      <point x="254.333" y="672"/>
      <point x="254.333" y="648.895" type="curve" smooth="yes"/>
      <point x="254.333" y="634.614"/>
      <point x="247.976" y="617.555"/>
      <point x="236.283" y="599.703" type="curve" smooth="yes"/>
      <point x="147" y="465.333" type="line"/>
    </contour>
    <contour>
      <point x="223.667" y="520.333" type="curve" smooth="yes"/>
      <point x="223.667" y="549.667"/>
      <point x="247.667" y="573.333"/>
      <point x="277" y="573.333" type="curve" smooth="yes"/>
      <point x="306.333" y="573.333"/>
      <point x="330" y="549.667"/>
      <point x="330" y="520.333" type="curve" smooth="yes"/>
      <point x="330" y="491"/>
      <point x="306.333" y="467"/>
      <point x="277" y="467" type="curve" smooth="yes"/>
      <point x="247.333" y="467"/>
      <point x="223.667" y="490.667"/>
    </contour>
  </outline>
</glyph>
<glyph name="anoteleia" format="2">
  <advance width="250"/>
  <unicode hex="0387"/>
  <outline>
    <contour>
      <point x="54.6667" y="391" type="curve" smooth="yes"/>
      <point x="54.6667" y="430"/>
      <point x="86" y="461.333"/>
      <point x="125" y="461.333" type="curve" smooth="yes"/>
      <point x="164" y="461.333"/>
      <point x="195.333" y="430"/>
      <point x="195.333" y="391" type="curve" smooth="yes"/>
      <point x="195.333" y="352"/>
      <point x="164" y="320.667"/>
      <point x="125" y="320.667" type="curve" smooth="yes"/>
      <point x="86" y="320.667"/>
      <point x="54.6667" y="352"/>
    </contour>
  </outline>
</glyph>
<glyph name="uni0394" format="2">
  <advance width="693"/>
  <unicode hex="0394"/>
  <outline>
    <contour>
      <point x="4.33333" y="0" type="line"/>
      <point x="328.333" y="679.333" type="line"/>
      <point x="345.667" y="679.333" type="line"/>
      <point x="668.667" y="0" type="line"/>
    </contour>
    <contour>
      <point x="65" y="36" type="line"/>
      <point x="523" y="36" type="line"/>
      <point x="296" y="513.333" type="line"/>
    </contour>
  </outline>
</glyph>
<glyph name="Theta" format="2">
  <advance width="761"/>
  <unicode hex="0398"/>
  <outline>
    <contour>
      <point x="34.3333" y="332.333" type="curve" smooth="yes"/>
      <point x="34.3333" y="529"/>
      <point x="184.667" y="681"/>
      <point x="379.991" y="681" type="curve" smooth="yes"/>
      <point x="576" y="681"/>
      <point x="726.333" y="528"/>
      <point x="726.333" y="331.935" type="curve" smooth="yes"/>
      <point x="726.333" y="137"/>
      <point x="576" y="-14.3333"/>
      <point x="380.333" y="-14.3333" type="curve" smooth="yes"/>
      <point x="184.667" y="-14.3333"/>
      <point x="34.3333" y="136.667"/>
    </contour>
    <contour>
      <point x="165.333" y="330.721" type="curve" smooth="yes"/>
      <point x="165.333" y="170"/>
      <point x="236" y="20.6667"/>
      <point x="378.36" y="20.6667" type="curve" smooth="yes"/>
      <point x="521.333" y="20.6667"/>
      <point x="595.333" y="171.333"/>
      <point x="595.333" y="330.572" type="curve" smooth="yes"/>
      <point x="595.333" y="489.667"/>
      <point x="522" y="646"/>
      <point x="379.101" y="646" type="curve" smooth="yes"/>
      <point x="236.333" y="646"/>
      <point x="165.333" y="491.333"/>
    </contour>
    <contour>
      <point x="247.667" y="233" type="line"/>
      <point x="247.667" y="435" type="line"/>
      <point x="267" y="435" type="line"/>
      <point x="267" y="407.333"/>
      <point x="288.333" y="373.333"/>
      <point x="318.333" y="373.333" type="curve" smooth="yes"/>
      <point x="439" y="373.333" type="line" smooth="yes"/>
      <point x="475.716" y="373.333"/>
      <point x="494.333" y="401.787"/>
      <point x="494.333" y="435.667" type="curve"/>
      <point x="513.667" y="435.667" type="line"/>
      <point x="513.667" y="233" type="line"/>
      <point x="494.333" y="233" type="line"/>
      <point x="494.333" y="266"/>
      <point x="473.667" y="293.333"/>
      <point x="439" y="293.333" type="curve" smooth="yes"/>
      <point x="318.333" y="293.333" type="line" smooth="yes"/>
      <point x="287.667" y="293.333"/>
      <point x="266.333" y="261.333"/>
      <point x="266.333" y="233" type="curve"/>
    </contour>
  </outline>
</glyph>
<glyph name="Sigma" format="2">
  <advance width="639"/>
  <unicode hex="03A3"/>
  <outline>
    <contour>
      <point x="12.6667" y="0.666667" type="line"/>
      <point x="234" y="233" type="line"/>
      <point x="96" y="543" type="line"/>
      <point x="370" y="650.667" type="line"/>
      <point x="378" y="547.667" type="line"/>
      <point x="560.667" y="547.667" type="line"/>
      <point x="554.764" y="594.212"/>
      <point x="506.25" y="591.249"/>
      <point x="449.667" y="580" type="curve"/>
      <point x="330.333" y="580" type="line"/>
      <point x="317" y="616.333"/>
      <point x="283.667" y="632.333"/>
      <point x="247" y="621.667" type="curve"/>
      <point x="245.934" y="613"/>
      <point x="340.144" y="469.667"/>
      <point x="356.667" y="449.667" type="curve"/>
      <point x="236" y="188.667" type="line"/>
      <point x="365.333" y="106" type="line"/>
      <point x="414.634" y="106"/>
      <point x="493.114" y="132.667"/>
      <point x="509.333" y="162.667" type="curve"/>
      <point x="532.667" y="163.339"/>
      <point x="558.667" y="168.154"/>
      <point x="560.333" y="198.333" type="curve"/>
      <point x="581.667" y="198.333" type="line"/>
      <point x="573.333" y="0" type="line"/>
    </contour>
  </outline>
</glyph>
<glyph name="Upsilon" format="2">
  <advance width="675"/>
  <unicode hex="03A5"/>
  <anchor x="29" y="620" name="tonos"/>
  <outline>
    <contour>
      <point x="171" y="0" type="line"/>
      <point x="171" y="18" type="line"/>
      <point x="218.667" y="18"/>
      <point x="261" y="23.3333"/>
      <point x="261" y="82" type="curve" smooth="yes"/>
      <point x="261" y="316.667" type="line" smooth="yes"/>
      <point x="261" y="533.267"/>
      <point x="186.669" y="632.997"/>
      <point x="21.3333" y="639.667" type="curve"/>
      <point x="25" y="666" type="line"/>
      <point x="200.419" y="666"/>
      <point x="322.504" y="571.181"/>
      <point x="344" y="420" type="curve"/>
      <point x="354.174" y="563.654"/>
      <point x="446.435" y="677.333"/>
      <point x="551.572" y="677.333" type="curve" smooth="yes"/>
      <point x="610.727" y="677.333"/>
      <point x="654.85" y="641.779"/>
      <point x="657.333" y="594" type="curve"/>
      <point x="626" y="586" type="line"/>
      <point x="626" y="613.722"/>
      <point x="598.364" y="640.667"/>
      <point x="554.295" y="640.667" type="curve" smooth="yes"/>
      <point x="455.981" y="640.667"/>
      <point x="385" y="506.644"/>
      <point x="385" y="318.333" type="curve" smooth="yes"/>
      <point x="385" y="82" type="line" smooth="yes"/>
      <point x="385" y="24"/>
      <point x="428.667" y="18"/>
      <point x="475.667" y="18" type="curve"/>
      <point x="475.667" y="0" type="line"/>
    </contour>
  </outline>
</glyph>
<glyph name="Psi" format="2">
  <advance width="847"/>
  <unicode hex="03A8"/>
  <outline>
    <contour>
      <point x="17.3333" y="602.83" type="curve" smooth="yes"/>
      <point x="17.3333" y="642.667"/>
      <point x="49.3333" y="674"/>
      <point x="99.8986" y="674" type="curve" smooth="yes"/>
      <point x="169.333" y="674"/>
      <point x="230.333" y="627"/>
      <point x="230.333" y="543.391" type="curve" smooth="yes"/>
      <point x="230.333" y="520.716"/>
      <point x="225.844" y="497.848"/>
      <point x="215.438" y="460.063" type="curve" smooth="yes"/>
      <point x="206.295" y="426.072"/>
      <point x="198.667" y="394.504"/>
      <point x="198.667" y="358.297" type="curve" smooth="yes"/>
      <point x="198.667" y="271.333"/>
      <point x="246" y="235.333"/>
      <point x="357.667" y="235.333" type="curve"/>
      <point x="357.667" y="572" type="line" smooth="yes"/>
      <point x="357.667" y="628.333"/>
      <point x="325" y="642.333"/>
      <point x="273.667" y="649.333" type="curve"/>
      <point x="273.667" y="667.333" type="line"/>
      <point x="564.778" y="667.333" type="line"/>
      <point x="564.778" y="649.333" type="line"/>
      <point x="515.227" y="645"/>
      <point x="480.333" y="626"/>
      <point x="480.333" y="572.667" type="curve" smooth="yes"/>
      <point x="480.333" y="236" type="line"/>
      <point x="591.97" y="236"/>
      <point x="639.333" y="272"/>
      <point x="639.333" y="358.975" type="curve" smooth="yes"/>
      <point x="639.333" y="394.576"/>
      <point x="631.678" y="426.825"/>
      <point x="622.656" y="460.234" type="curve" smooth="yes"/>
      <point x="611.338" y="502.821"/>
      <point x="607.667" y="523.49"/>
      <point x="607.667" y="544.058" type="curve" smooth="yes"/>
      <point x="607.667" y="627.667"/>
      <point x="668.667" y="674.667"/>
      <point x="738.101" y="674.667" type="curve" smooth="yes"/>
      <point x="788.667" y="674.667"/>
      <point x="820.667" y="643.333"/>
      <point x="820.667" y="603.497" type="curve" smooth="yes"/>
      <point x="820.667" y="571.333"/>
      <point x="799" y="548"/>
      <point x="767.053" y="548" type="curve" smooth="yes"/>
      <point x="743.293" y="548"/>
      <point x="731.66" y="561.451"/>
      <point x="715.078" y="578.541" type="curve"/>
      <point x="706.119" y="588.862"/>
      <point x="697.073" y="596.667"/>
      <point x="683.766" y="596.667" type="curve" smooth="yes"/>
      <point x="668.667" y="596.667"/>
      <point x="657.667" y="588"/>
      <point x="657.667" y="566.662" type="curve" smooth="yes"/>
      <point x="657.667" y="543.266"/>
      <point x="669.977" y="523.919"/>
      <point x="698.708" y="488.048" type="curve" smooth="yes"/>
      <point x="726.799" y="453.078"/>
      <point x="752" y="417.832"/>
      <point x="752" y="366.023" type="curve" smooth="yes"/>
      <point x="752" y="239.237"/>
      <point x="594.64" y="204.319"/>
      <point x="480.333" y="204.333" type="curve"/>
      <point x="480.333" y="97.4948" type="line" smooth="yes"/>
      <point x="480.333" y="46.2691"/>
      <point x="522.375" y="19.6319"/>
      <point x="571.822" y="18" type="curve"/>
      <point x="571.822" y="0" type="line"/>
      <point x="265.333" y="0" type="line"/>
      <point x="265.333" y="18" type="line"/>
      <point x="310.691" y="19.588"/>
      <point x="357.667" y="45.1551"/>
      <point x="357.667" y="96.8281" type="curve" smooth="yes"/>
      <point x="357.667" y="203.667" type="line"/>
      <point x="202.708" y="203.643"/>
      <point x="86" y="261.881"/>
      <point x="86" y="367.262" type="curve" smooth="yes"/>
      <point x="86" y="417.908"/>
      <point x="111.951" y="453.354"/>
      <point x="138.286" y="486.118" type="curve" smooth="yes"/>
      <point x="168.023" y="523.252"/>
      <point x="180.333" y="542.599"/>
      <point x="180.333" y="565.996" type="curve" smooth="yes"/>
      <point x="180.333" y="587.333"/>
      <point x="169.333" y="596"/>
      <point x="154.234" y="596" type="curve" smooth="yes"/>
      <point x="140.927" y="596"/>
      <point x="131.881" y="588.195"/>
      <point x="122.922" y="577.874" type="curve"/>
      <point x="106.34" y="560.784"/>
      <point x="94.7073" y="547.333"/>
      <point x="70.9474" y="547.333" type="curve" smooth="yes"/>
      <point x="39" y="547.333"/>
      <point x="17.3333" y="570.667"/>
    </contour>
  </outline>
</glyph>
<glyph name="alpha" format="2">
  <advance width="593"/>
  <unicode hex="03B1"/>
  <anchor x="247" y="520" name="tonos_top"/>
  <outline>
    <contour>
      <point x="39.6667" y="224.594" type="curve" smooth="yes"/>
      <point x="39.6667" y="343"/>
      <point x="121.333" y="465.333"/>
      <point x="241.881" y="465.333" type="curve" smooth="yes"/>
      <point x="338.667" y="465.333"/>
      <point x="375.667" y="386"/>
      <point x="388" y="308" type="curve"/>
      <point x="390" y="308" type="line"/>
      <point x="421" y="454.333" type="line"/>
      <point x="523.667" y="454.333" type="line"/>
      <point x="438.667" y="151.667" type="line"/>
      <point x="442.333" y="124.667"/>
      <point x="471.667" y="70"/>
      <point x="505.81" y="70" type="curve" smooth="yes"/>
      <point x="528" y="70"/>
      <point x="544" y="93"/>
      <point x="545.667" y="115.667" type="curve"/>
      <point x="568" y="115.667" type="line"/>
      <point x="566.333" y="74"/>
      <point x="559.333" y="-11"/>
      <point x="500.135" y="-11" type="curve" smooth="yes"/>
      <point x="454.652" y="-11"/>
      <point x="434.022" y="40.218"/>
      <point x="419.667" y="117" type="curve"/>
      <point x="417.667" y="117" type="line"/>
      <point x="388" y="46.6667"/>
      <point x="322.333" y="-11"/>
      <point x="240.269" y="-11" type="curve" smooth="yes"/>
      <point x="111.667" y="-11"/>
      <point x="39.6667" y="104.667"/>
    </contour>
    <contour>
      <point x="149.982" y="211.047" type="curve" smooth="yes"/>
      <point x="149.982" y="138.372"/>
      <point x="167.587" y="20"/>
      <point x="253.408" y="20" type="curve" smooth="yes"/>
      <point x="347.667" y="20"/>
      <point x="367.333" y="162"/>
      <point x="367.333" y="229.941" type="curve" smooth="yes"/>
      <point x="367.333" y="301"/>
      <point x="347.667" y="433"/>
      <point x="259.08" y="433" type="curve" smooth="yes"/>
      <point x="163.316" y="433"/>
      <point x="149.982" y="281.098"/>
    </contour>
  </outline>
</glyph>
<glyph name="gamma" format="2">
  <advance width="503"/>
  <unicode hex="03B3"/>
  <outline>
    <contour>
      <point x="20.6667" y="295" type="line"/>
      <point x="20.6667" y="350.667"/>
      <point x="23.6667" y="465.333"/>
      <point x="95.4034" y="465.333" type="curve" smooth="yes"/>
      <point x="210" y="465.333"/>
      <point x="263.615" y="170.837"/>
      <point x="276" y="87.3333" type="curve"/>
      <point x="278" y="87.3333" type="line"/>
      <point x="320" y="147.934"/>
      <point x="373.333" y="230.667"/>
      <point x="373.333" y="301.512" type="curve" smooth="yes"/>
      <point x="373.333" y="319.136"/>
      <point x="370.077" y="336.675"/>
      <point x="366.715" y="353.756" type="curve" smooth="yes"/>
      <point x="363.359" y="368.94"/>
      <point x="362" y="381.673"/>
      <point x="362" y="392.12" type="curve" smooth="yes"/>
      <point x="362" y="432.667"/>
      <point x="385.407" y="465.333"/>
      <point x="427.185" y="465.333" type="curve" smooth="yes"/>
      <point x="459.538" y="465.333"/>
      <point x="481.667" y="445.333"/>
      <point x="481.667" y="399.333" type="curve" smooth="yes"/>
      <point x="481.667" y="317.333"/>
      <point x="352.805" y="129"/>
      <point x="284.667" y="50" type="curve"/>
      <point x="303.312" y="-16.9902"/>
      <point x="311.333" y="-81.0326"/>
      <point x="311.333" y="-138.584" type="curve" smooth="yes"/>
      <point x="311.333" y="-177.333"/>
      <point x="295.667" y="-216"/>
      <point x="254.285" y="-216" type="curve" smooth="yes"/>
      <point x="210.68" y="-216"/>
      <point x="195" y="-173.333"/>
      <point x="195" y="-139" type="curve" smooth="yes"/>
      <point x="195" y="-67.9426"/>
      <point x="227.748" y="-1.13074"/>
      <point x="257.333" y="54.6667" type="curve"/>
      <point x="252.333" y="124.667"/>
      <point x="175.333" y="358.667"/>
      <point x="90.08" y="358.667" type="curve" smooth="yes"/>
      <point x="57" y="358.667"/>
      <point x="44.6667" y="323.667"/>
      <point x="44.6667" y="295" type="curve"/>
    </contour>
  </outline>
</glyph>
<glyph name="delta" format="2">
  <advance width="515"/>
  <unicode hex="03B4"/>
  <outline>
    <contour>
      <point x="31.3333" y="224.591" type="curve" smooth="yes"/>
      <point x="31.3333" y="359.736"/>
      <point x="132.908" y="442.134"/>
      <point x="226.826" y="441.873" type="curve" smooth="yes"/>
      <point x="237.14" y="441.847"/>
      <point x="250.94" y="440.825"/>
      <point x="259.333" y="438" type="curve"/>
      <point x="261.333" y="440" type="line"/>
      <point x="229.667" y="463.333"/>
      <point x="136" y="543.667"/>
      <point x="136" y="608" type="curve" smooth="yes"/>
      <point x="136" y="698.667"/>
      <point x="220" y="714.333"/>
      <point x="288" y="714.333" type="curve" smooth="yes"/>
      <point x="378.333" y="714.333"/>
      <point x="414.333" y="645.667"/>
      <point x="425.333" y="600" type="curve"/>
      <point x="398.667" y="590.333" type="line"/>
      <point x="388" y="640.667"/>
      <point x="347.333" y="686.667"/>
      <point x="294.908" y="686.667" type="curve" smooth="yes"/>
      <point x="265.333" y="686.667"/>
      <point x="241" y="671.667"/>
      <point x="241" y="635.68" type="curve" smooth="yes"/>
      <point x="241" y="585.808"/>
      <point x="287.582" y="540.646"/>
      <point x="340.195" y="490.337" type="curve" smooth="yes"/>
      <point x="416.499" y="417.783"/>
      <point x="484.33" y="339.227"/>
      <point x="484.33" y="218.52" type="curve" smooth="yes"/>
      <point x="484.33" y="98"/>
      <point x="403.333" y="-11"/>
      <point x="264.396" y="-11" type="curve" smooth="yes"/>
      <point x="128.133" y="-11"/>
      <point x="31.3333" y="84"/>
    </contour>
    <contour>
      <point x="141.667" y="250.859" type="curve" smooth="yes"/>
      <point x="141.667" y="101.667"/>
      <point x="195.333" y="17"/>
      <point x="278.031" y="17" type="curve" smooth="yes"/>
      <point x="348" y="17"/>
      <point x="390.667" y="76"/>
      <point x="390.667" y="179.333" type="curve" smooth="yes"/>
      <point x="390.667" y="250.327"/>
      <point x="345.207" y="414.667"/>
      <point x="241.942" y="414.667" type="curve" smooth="yes"/>
      <point x="179.333" y="414.667"/>
      <point x="141.667" y="353.887"/>
    </contour>
  </outline>
</glyph>
<glyph name="epsilon" format="2">
  <advance width="434"/>
  <unicode hex="03B5"/>
  <anchor x="217" y="520" name="tonos_top"/>
  <outline>
    <contour>
      <point x="39.3333" y="119.101" type="curve" smooth="yes"/>
      <point x="39.3333" y="193.333"/>
      <point x="100" y="234"/>
      <point x="162" y="243.333" type="curve"/>
      <point x="162" y="245" type="line"/>
      <point x="108.667" y="249"/>
      <point x="47.3333" y="283.667"/>
      <point x="47.3333" y="349.554" type="curve" smooth="yes"/>
      <point x="47.3333" y="433"/>
      <point x="145.667" y="465.333"/>
      <point x="222.767" y="465.333" type="curve" smooth="yes"/>
      <point x="271.667" y="465.333"/>
      <point x="387.333" y="452.333"/>
      <point x="387.333" y="384.503" type="curve" smooth="yes"/>
      <point x="387.333" y="360.667"/>
      <point x="373" y="341.667"/>
      <point x="345.938" y="341.667" type="curve" smooth="yes"/>
      <point x="317.377" y="341.667"/>
      <point x="306.485" y="362.87"/>
      <point x="295.611" y="385.298" type="curve" smooth="yes"/>
      <point x="283.148" y="410.743"/>
      <point x="269.189" y="437.667"/>
      <point x="228.167" y="437.667" type="curve" smooth="yes"/>
      <point x="174" y="437.667"/>
      <point x="156.667" y="390.333"/>
      <point x="156.667" y="346.084" type="curve" smooth="yes"/>
      <point x="156.667" y="305"/>
      <point x="172.667" y="257.667"/>
      <point x="218.663" y="257.667" type="curve" smooth="yes"/>
      <point x="248.063" y="257.667"/>
      <point x="268.053" y="278.333"/>
      <point x="293" y="278.333" type="curve" smooth="yes"/>
      <point x="313" y="278.333"/>
      <point x="327.667" y="265"/>
      <point x="327.667" y="244.667" type="curve" smooth="yes"/>
      <point x="327.667" y="223.333"/>
      <point x="312.667" y="211.667"/>
      <point x="292.349" y="211.667" type="curve" smooth="yes"/>
      <point x="266.701" y="211.667"/>
      <point x="244.65" y="228.667"/>
      <point x="218.129" y="228.667" type="curve" smooth="yes"/>
      <point x="172.333" y="228.667"/>
      <point x="149.667" y="178"/>
      <point x="149.667" y="132.897" type="curve" smooth="yes"/>
      <point x="149.667" y="69.3333"/>
      <point x="188.667" y="28.3333"/>
      <point x="256.354" y="28.3333" type="curve" smooth="yes"/>
      <point x="318.667" y="28.3333"/>
      <point x="359.333" y="63.3333"/>
      <point x="383.667" y="119" type="curve"/>
      <point x="409.667" y="106.333" type="line"/>
      <point x="370.667" y="17.3333"/>
      <point x="305" y="-11"/>
      <point x="211.667" y="-11" type="curve" smooth="yes"/>
      <point x="128.333" y="-11"/>
      <point x="39.3333" y="29.3333"/>
    </contour>
  </outline>
</glyph>
<glyph name="zeta" format="2">
  <advance width="436"/>
  <unicode hex="03B6"/>
  <outline>
    <contour>
      <point x="42.6667" y="174" type="curve" smooth="yes"/>
      <point x="42.6667" y="314.667"/>
      <point x="99" y="444"/>
      <point x="179.667" y="528.667" type="curve"/>
      <point x="133" y="538.333"/>
      <point x="52.6667" y="570.667"/>
      <point x="52.6667" y="632.667" type="curve" smooth="yes"/>
      <point x="52.6667" y="689.333"/>
      <point x="111.333" y="712.667"/>
      <point x="163" y="714.667" type="curve"/>
      <point x="172.333" y="696.667" type="line"/>
      <point x="145.667" y="692"/>
      <point x="123" y="673.667"/>
      <point x="123" y="631.667" type="curve" smooth="yes"/>
      <point x="123" y="588"/>
      <point x="167" y="557"/>
      <point x="206.333" y="547.333" type="curve"/>
      <point x="245" y="576"/>
      <point x="291.667" y="630"/>
      <point x="345.667" y="630" type="curve" smooth="yes"/>
      <point x="375.333" y="630"/>
      <point x="405.667" y="620"/>
      <point x="405.667" y="589.333" type="curve" smooth="yes"/>
      <point x="405.667" y="546.333"/>
      <point x="365.667" y="517"/>
      <point x="290" y="517" type="curve" smooth="yes"/>
      <point x="272.506" y="517"/>
      <point x="260.225" y="517"/>
      <point x="244.667" y="519.667" type="curve"/>
      <point x="235.904" y="519.667"/>
      <point x="226.135" y="519.667"/>
      <point x="214" y="521.667" type="curve"/>
      <point x="157.667" y="465.333"/>
      <point x="84.6667" y="364.667"/>
      <point x="84.6667" y="198.333" type="curve" smooth="yes"/>
      <point x="84.6667" y="118.667"/>
      <point x="127.333" y="97.6667"/>
      <point x="199.667" y="97.6667" type="curve" smooth="yes"/>
      <point x="219.667" y="97.6667"/>
      <point x="263.333" y="102.333"/>
      <point x="283.333" y="102.333" type="curve" smooth="yes"/>
      <point x="369" y="102.333"/>
      <point x="417.667" y="51"/>
      <point x="417.667" y="-36.6667" type="curve" smooth="yes"/>
      <point x="417.667" y="-125.333"/>
      <point x="343" y="-184.667"/>
      <point x="243.667" y="-184.667" type="curve" smooth="yes"/>
      <point x="189" y="-184.667"/>
      <point x="139.667" y="-159.333"/>
      <point x="139.667" y="-119.667" type="curve" smooth="yes"/>
      <point x="139.667" y="-93.6667"/>
      <point x="157.667" y="-80"/>
      <point x="178.333" y="-80" type="curve" smooth="yes"/>
      <point x="207.667" y="-80"/>
      <point x="219" y="-100.667"/>
      <point x="230.333" y="-114.667" type="curve" smooth="yes"/>
      <point x="246.667" y="-134"/>
      <point x="264.333" y="-146.667"/>
      <point x="291.333" y="-146.667" type="curve" smooth="yes"/>
      <point x="343" y="-146.667"/>
      <point x="380.667" y="-117"/>
      <point x="380.667" y="-65" type="curve" smooth="yes"/>
      <point x="380.667" y="-14"/>
      <point x="346.333" y="0"/>
      <point x="287.333" y="0" type="curve" smooth="yes"/>
      <point x="269.667" y="0"/>
      <point x="225.667" y="-4.66667"/>
      <point x="205.667" y="-4.66667" type="curve" smooth="yes"/>
      <point x="85" y="-4.66667"/>
      <point x="42.6667" y="78"/>
    </contour>
  </outline>
</glyph>
<glyph name="eta" format="2">
  <advance width="558"/>
  <unicode hex="03B7"/>
  <anchor x="263.333" y="520" name="tonos_top"/>
  <outline>
    <contour>
      <point x="15.6667" y="325" type="line"/>
      <point x="15.6667" y="387.667"/>
      <point x="41" y="465.333"/>
      <point x="116.667" y="465.333" type="curve" smooth="yes"/>
      <point x="200" y="465.333"/>
      <point x="209.618" y="393.667"/>
      <point x="214.667" y="312" type="curve"/>
      <point x="215.996" y="312" type="line"/>
      <point x="232.944" y="387.667"/>
      <point x="281.133" y="465.333"/>
      <point x="367.154" y="465.333" type="curve" smooth="yes"/>
      <point x="461.839" y="465.333"/>
      <point x="493" y="398.333"/>
      <point x="493" y="314.667" type="curve" smooth="yes"/>
      <point x="493" y="-210" type="line"/>
      <point x="390.667" y="-210" type="line"/>
      <point x="390.719" y="328.698" type="line"/>
      <point x="390.719" y="366.195"/>
      <point x="382.684" y="418.667"/>
      <point x="330.884" y="418.667" type="curve" smooth="yes"/>
      <point x="237.951" y="418.667"/>
      <point x="218.332" y="255.333"/>
      <point x="218.332" y="150" type="curve" smooth="yes"/>
      <point x="218.332" y="0" type="line"/>
      <point x="115.667" y="0" type="line"/>
      <point x="115.83" y="364.501" type="line"/>
      <point x="115.83" y="386.041"/>
      <point x="114.81" y="417"/>
      <point x="85.6667" y="417" type="curve" smooth="yes"/>
      <point x="48" y="417"/>
      <point x="42.3333" y="349"/>
      <point x="41.3333" y="325" type="curve"/>
    </contour>
  </outline>
</glyph>
<glyph name="iota" format="2">
  <advance width="288"/>
  <unicode hex="03B9"/>
  <anchor x="109.333" y="520" name="tonos_top"/>
  <outline>
    <contour>
      <point x="60.3333" y="105" type="curve" smooth="yes"/>
      <point x="60.3333" y="453.667" type="line"/>
      <point x="162.667" y="453.667" type="line"/>
      <point x="162.667" y="73.3333" type="line" smooth="yes"/>
      <point x="162.667" y="46"/>
      <point x="180.333" y="31.6667"/>
      <point x="204.333" y="31.6667" type="curve" smooth="yes"/>
      <point x="255.806" y="31.6667"/>
      <point x="257" y="107.807"/>
      <point x="257" y="146" type="curve"/>
      <point x="282.667" y="146" type="line"/>
      <point x="280.485" y="61.9739"/>
      <point x="261.409" y="-11.6667"/>
      <point x="166" y="-11.6667" type="curve" smooth="yes"/>
      <point x="92" y="-11.6667"/>
      <point x="60.3333" y="35.6667"/>
    </contour>
  </outline>
</glyph>
<glyph name="kappa" format="2">
  <advance width="565"/>
  <unicode hex="03BA"/>
  <outline>
    <contour>
      <point x="19" y="420" type="curve"/>
      <point x="19" y="440.333" type="line"/>
      <point x="76.6667" y="447.333"/>
      <point x="133.333" y="459.667"/>
      <point x="187" y="481" type="curve"/>
      <point x="187" y="273" type="line"/>
      <point x="358.333" y="442"/>
      <point x="413.333" y="481.333"/>
      <point x="469" y="481.333" type="curve" smooth="yes"/>
      <point x="500" y="481.333"/>
      <point x="534.667" y="463.333"/>
      <point x="534.667" y="428.333" type="curve" smooth="yes"/>
      <point x="534.667" y="396.667"/>
      <point x="510.667" y="375.333"/>
      <point x="479.667" y="375.333" type="curve" smooth="yes"/>
      <point x="440.333" y="375.333"/>
      <point x="428" y="412.667"/>
      <point x="398.333" y="412.667" type="curve" smooth="yes"/>
      <point x="361.333" y="412.667"/>
      <point x="288" y="330.333"/>
      <point x="261" y="303.333" type="curve"/>
      <point x="440.333" y="78" type="line" smooth="yes"/>
      <point x="471.333" y="39"/>
      <point x="488.333" y="17"/>
      <point x="542.333" y="17" type="curve"/>
      <point x="542.333" y="0" type="line"/>
      <point x="294" y="0" type="line"/>
      <point x="294" y="17" type="line"/>
      <point x="306" y="17"/>
      <point x="338" y="17"/>
      <point x="338" y="35" type="curve" smooth="yes"/>
      <point x="338" y="50.6667"/>
      <point x="207.333" y="203"/>
      <point x="187" y="227.667" type="curve"/>
      <point x="187" y="0" type="line"/>
      <point x="87.3333" y="0" type="line"/>
      <point x="87.6667" y="348.333" type="line"/>
      <point x="87.6667" y="398.333"/>
      <point x="70.3333" y="420"/>
    </contour>
  </outline>
</glyph>
<glyph name="lambda" format="2">
  <advance width="486"/>
  <unicode hex="03BB"/>
  <outline>
    <contour>
      <point x="21.3333" y="0" type="line"/>
      <point x="213.667" y="484.333" type="line"/>
      <point x="198.676" y="549.022"/>
      <point x="178.184" y="625"/>
      <point x="125.723" y="625" type="curve" smooth="yes"/>
      <point x="91" y="625"/>
      <point x="74" y="592"/>
      <point x="68" y="561.333" type="curve"/>
      <point x="45.6667" y="561.333" type="line"/>
      <point x="45.6667" y="616.203"/>
      <point x="57.7003" y="706"/>
      <point x="131" y="706" type="curve" smooth="yes"/>
      <point x="186.667" y="706"/>
      <point x="220" y="588.667"/>
      <point x="233.667" y="537" type="curve" smooth="yes"/>
      <point x="332.667" y="172.333" type="line" smooth="yes"/>
      <point x="341.667" y="137.333"/>
      <point x="359" y="74"/>
      <point x="400.672" y="74" type="curve" smooth="yes"/>
      <point x="434.667" y="74"/>
      <point x="449" y="115"/>
      <point x="449.667" y="141.667" type="curve"/>
      <point x="472.667" y="141.667" type="line"/>
      <point x="472.667" y="114" type="line" smooth="yes"/>
      <point x="472.667" y="65"/>
      <point x="463" y="-11"/>
      <point x="402.594" y="-11" type="curve" smooth="yes"/>
      <point x="344.667" y="-11"/>
      <point x="326" y="57"/>
      <point x="315" y="100.667" type="curve" smooth="yes"/>
      <point x="257.333" y="328" type="line"/>
      <point x="255.333" y="328" type="line"/>
      <point x="130.333" y="0" type="line"/>
    </contour>
  </outline>
</glyph>
<glyph name="phi" format="2">
  <advance width="647"/>
  <unicode hex="03C6"/>
  <outline>
    <contour>
      <point x="39" y="249.667" type="curve" smooth="yes"/>
      <point x="39" y="350"/>
      <point x="86" y="466"/>
      <point x="197.333" y="466" type="curve" smooth="yes"/>
      <point x="246.333" y="466"/>
      <point x="284" y="444.333"/>
      <point x="306.333" y="401.333" type="curve"/>
      <point x="287.667" y="383.333" type="line"/>
      <point x="274" y="404"/>
      <point x="252.667" y="431.667"/>
      <point x="224" y="431.667" type="curve" smooth="yes"/>
      <point x="150.667" y="431.667"/>
      <point x="149.333" y="314.667"/>
      <point x="149.333" y="260.667" type="curve" smooth="yes"/>
      <point x="149.333" y="257.705"/>
      <point x="149.327" y="251.596"/>
      <point x="149.327" y="248.373" type="curve" smooth="yes"/>
      <point x="149.327" y="139.308"/>
      <point x="164.484" y="28"/>
      <point x="291.667" y="22" type="curve"/>
      <point x="291.667" y="168.667" type="line" smooth="yes"/>
      <point x="291.667" y="283"/>
      <point x="309.333" y="465.333"/>
      <point x="466" y="465.333" type="curve" smooth="yes"/>
      <point x="576.667" y="465.333"/>
      <point x="607.667" y="356"/>
      <point x="607.667" y="266.667" type="curve" smooth="yes"/>
      <point x="607.667" y="129"/>
      <point x="541.333" y="-3"/>
      <point x="394" y="-8.33333" type="curve"/>
      <point x="394" y="-209.333" type="line"/>
      <point x="291.667" y="-209.333" type="line"/>
      <point x="291.667" y="-8.33333" type="line"/>
      <point x="141.333" y="-3"/>
      <point x="39" y="99.6667"/>
    </contour>
    <contour>
      <point x="394" y="22.6667" type="line"/>
      <point x="522" y="27.3333"/>
      <point x="575.333" y="149"/>
      <point x="575.333" y="267" type="curve" smooth="yes"/>
      <point x="575.333" y="327.667"/>
      <point x="555" y="433.667"/>
      <point x="476.667" y="433.667" type="curve" smooth="yes"/>
      <point x="404.667" y="433.667"/>
      <point x="394" y="358.667"/>
      <point x="394" y="303.333" type="curve" smooth="yes"/>
    </contour>
  </outline>
</glyph>
<glyph name="chi" format="2">
  <advance width="485"/>
  <unicode hex="03C7"/>
  <outline>
    <contour>
      <point x="22.3333" y="-198.667" type="line"/>
      <point x="211.667" y="189.333" type="line"/>
      <point x="175.625" y="283.507" type="line" smooth="yes"/>
      <point x="160.064" y="323.513"/>
      <point x="134.146" y="373.333"/>
      <point x="90.1243" y="373.333" type="curve" smooth="yes"/>
      <point x="51.6667" y="373.333"/>
      <point x="41.6667" y="335"/>
      <point x="41.6667" y="298" type="curve"/>
      <point x="19.3333" y="298" type="line"/>
      <point x="16.1111" y="314.556"/>
      <point x="15.1481" y="332.111"/>
      <point x="15.1489" y="345.856" type="curve" smooth="yes"/>
      <point x="15.1527" y="400.13"/>
      <point x="30.5831" y="465.333"/>
      <point x="87.7875" y="465.333" type="curve" smooth="yes"/>
      <point x="151.107" y="465.333"/>
      <point x="180.248" y="383.522"/>
      <point x="197.793" y="326.514" type="curve"/>
      <point x="232.333" y="220.667" type="line"/>
      <point x="347.333" y="454.333" type="line"/>
      <point x="457.333" y="454.333" type="line"/>
      <point x="278.333" y="95.3333" type="line"/>
      <point x="315.588" y="-20.0601" type="line" smooth="yes"/>
      <point x="332.698" y="-73.7752"/>
      <point x="363.143" y="-122.333"/>
      <point x="398.226" y="-122.333" type="curve" smooth="yes"/>
      <point x="433" y="-122.333"/>
      <point x="443.333" y="-73.6667"/>
      <point x="446" y="-41.3333" type="curve"/>
      <point x="467" y="-41.3333" type="line"/>
      <point x="467.844" y="-49.9335"/>
      <point x="469.069" y="-75.5056"/>
      <point x="469.304" y="-85.3898" type="curve"/>
      <point x="469.304" y="-135.935"/>
      <point x="457.411" y="-209.667"/>
      <point x="402.251" y="-209.667" type="curve" smooth="yes"/>
      <point x="344.794" y="-209.667"/>
      <point x="306.286" y="-106.25"/>
      <point x="291.108" y="-49.5302" type="curve"/>
      <point x="258.333" y="59" type="line"/>
      <point x="133.333" y="-198.667" type="line"/>
    </contour>
  </outline>
</glyph>
<glyph name="omega" format="2">
  <advance width="700"/>
  <unicode hex="03C9"/>
  <anchor x="343.333" y="520" name="tonos_top"/>
  <outline>
    <contour>
      <point x="37.6667" y="230.173" type="curve" smooth="yes"/>
      <point x="37.6667" y="359"/>
      <point x="100.667" y="464.667"/>
      <point x="210.733" y="464.667" type="curve" smooth="yes"/>
      <point x="261.112" y="464.667"/>
      <point x="288.028" y="447"/>
      <point x="303.145" y="413.333" type="curve"/>
      <point x="284.381" y="395.333" type="line"/>
      <point x="276.084" y="410.667"/>
      <point x="262.148" y="431"/>
      <point x="227.488" y="431" type="curve" smooth="yes"/>
      <point x="156.623" y="431"/>
      <point x="149.19" y="346.667"/>
      <point x="149.333" y="259.333" type="curve"/>
      <point x="149.346" y="200.268" type="line"/>
      <point x="149.45" y="133.613"/>
      <point x="156.098" y="20"/>
      <point x="234.434" y="20" type="curve" smooth="yes"/>
      <point x="304.058" y="20"/>
      <point x="322.667" y="94.6667"/>
      <point x="322.667" y="151.481" type="curve" smooth="yes"/>
      <point x="322.667" y="183.445"/>
      <point x="316.64" y="217.459"/>
      <point x="308.006" y="251.526" type="curve" smooth="yes"/>
      <point x="302.168" y="274.567"/>
      <point x="296" y="302.144"/>
      <point x="296" y="324.844" type="curve" smooth="yes"/>
      <point x="296" y="362.333"/>
      <point x="312.014" y="387.333"/>
      <point x="350.43" y="387.333" type="curve" smooth="yes"/>
      <point x="388.667" y="387.333"/>
      <point x="404.333" y="362.333"/>
      <point x="404.333" y="324.168" type="curve" smooth="yes"/>
      <point x="404.333" y="303.474"/>
      <point x="399.699" y="277.916"/>
      <point x="393.172" y="250.963" type="curve" smooth="yes"/>
      <point x="385.207" y="218.047"/>
      <point x="379" y="181.558"/>
      <point x="379" y="148.36" type="curve" smooth="yes"/>
      <point x="379" y="94.6667"/>
      <point x="395" y="20"/>
      <point x="465.954" y="20" type="curve" smooth="yes"/>
      <point x="546.667" y="20"/>
      <point x="551" y="133.667"/>
      <point x="551" y="200" type="curve" smooth="yes"/>
      <point x="551" y="259.333" type="line" smooth="yes"/>
      <point x="551" y="346.667"/>
      <point x="541" y="429.667"/>
      <point x="469.816" y="429.667" type="curve" smooth="yes"/>
      <point x="435" y="429.667"/>
      <point x="421" y="409.333"/>
      <point x="412.667" y="394" type="curve"/>
      <point x="394" y="412" type="line"/>
      <point x="409" y="446.333"/>
      <point x="436" y="464.667"/>
      <point x="487.072" y="464.667" type="curve" smooth="yes"/>
      <point x="597" y="464.667"/>
      <point x="660" y="359"/>
      <point x="660" y="230.173" type="curve" smooth="yes"/>
      <point x="660" y="125"/>
      <point x="606.667" y="-11.6667"/>
      <point x="478.563" y="-11.6667" type="curve" smooth="yes"/>
      <point x="400" y="-11.6667"/>
      <point x="362.333" y="40.3333"/>
      <point x="350.333" y="115.333" type="curve"/>
      <point x="347.667" y="115.333" type="line"/>
      <point x="335.667" y="40.6667"/>
      <point x="297.345" y="-11.6667"/>
      <point x="218.771" y="-11.6667" type="curve" smooth="yes"/>
      <point x="91" y="-11.6667"/>
      <point x="37.6667" y="125"/>
    </contour>
  </outline>
</glyph>
<glyph name="uni03D0" format="2">
  <advance width="539"/>
  <unicode hex="03D0"/>
  <outline>
    <contour>
      <point x="44" y="278" type="curve" smooth="yes"/>
      <point x="44" y="396.667"/>
      <point x="83.3333" y="537"/>
      <point x="180" y="590.333" type="curve"/>
      <point x="229.333" y="656.333"/>
      <point x="314" y="708.667"/>
      <point x="390.667" y="688" type="curve"/>
      <point x="419.333" y="642.667"/>
      <point x="366" y="621"/>
      <point x="336.667" y="588" type="curve"/>
      <point x="333.071" y="497.146"/>
      <point x="165.038" y="468.649"/>
      <point x="107.038" y="428.161" type="curve"/>
      <point x="91.038" y="389.324"/>
      <point x="82.4645" y="332.276"/>
      <point x="82.6667" y="289.667" type="curve"/>
      <point x="84.6667" y="289.667" type="line"/>
      <point x="121.667" y="380"/>
      <point x="192" y="428.333"/>
      <point x="280.667" y="428.333" type="curve" smooth="yes"/>
      <point x="405" y="428.333"/>
      <point x="495.667" y="354"/>
      <point x="495.667" y="225.667" type="curve" smooth="yes"/>
      <point x="495.667" y="89.3333"/>
      <point x="406.333" y="-11"/>
      <point x="267.667" y="-11" type="curve" smooth="yes"/>
      <point x="100.667" y="-11"/>
      <point x="44" y="132"/>
    </contour>
    <contour>
      <point x="130.333" y="513.667" type="curve"/>
      <point x="209.333" y="521.333"/>
      <point x="398.667" y="548.667"/>
      <point x="398.667" y="638" type="curve" smooth="yes"/>
      <point x="398.667" y="670.667"/>
      <point x="369.667" y="679.667"/>
      <point x="341.333" y="679.667" type="curve" smooth="yes"/>
      <point x="251" y="679.667"/>
      <point x="162" y="597.333"/>
    </contour>
    <contour>
      <point x="150.667" y="213.333" type="curve" smooth="yes"/>
      <point x="150.667" y="105.667"/>
      <point x="195.333" y="18"/>
      <point x="272.667" y="18" type="curve" smooth="yes"/>
      <point x="358.333" y="18"/>
      <point x="386.333" y="92.6667"/>
      <point x="386.333" y="189" type="curve" smooth="yes"/>
      <point x="386.333" y="296.667"/>
      <point x="364.667" y="397.333"/>
      <point x="267" y="397.333" type="curve" smooth="yes"/>
      <point x="181.667" y="397.333"/>
      <point x="150.667" y="310.667"/>
    </contour>
  </outline>
</glyph>
<glyph name="uni03FE" format="2">
  <advance width="685"/>
  <unicode hex="03FE"/>
  <outline>
    <contour>
      <point x="35" y="334" type="curve" smooth="yes"/>
      <point x="35" y="535.667"/>
      <point x="179.333" y="681"/>
      <point x="381.333" y="681" type="curve" smooth="yes"/>
      <point x="485.333" y="681"/>
      <point x="589" y="631.667"/>
      <point x="651" y="547.667" type="curve"/>
      <point x="629" y="527.333" type="line"/>
      <point x="565.333" y="592"/>
      <point x="485" y="638.333"/>
      <point x="391.667" y="638.333" type="curve" smooth="yes"/>
      <point x="222" y="638.333"/>
      <point x="171.333" y="471.333"/>
      <point x="171.333" y="331.333" type="curve" smooth="yes"/>
      <point x="171.333" y="185.333"/>
      <point x="230" y="29.6667"/>
      <point x="399.667" y="29.6667" type="curve" smooth="yes"/>
      <point x="493" y="29.6667"/>
      <point x="565.333" y="72.6667"/>
      <point x="629" y="138" type="curve"/>
      <point x="651" y="117.667" type="line"/>
      <point x="588.333" y="33"/>
      <point x="482.667" y="-15.6667"/>
      <point x="377.333" y="-15.6667" type="curve" smooth="yes"/>
      <point x="169.333" y="-15.6667"/>
      <point x="35" y="128.667"/>
    </contour>
    <contour>
      <point x="327" y="332.667" type="curve" smooth="yes"/>
      <point x="327" y="368.333"/>
      <point x="356.333" y="398.667"/>
      <point x="391.667" y="398.667" type="curve" smooth="yes"/>
      <point x="427.333" y="398.667"/>
      <point x="457.333" y="368.333"/>
      <point x="457.333" y="332" type="curve" smooth="yes"/>
      <point x="457.333" y="297.333"/>
      <point x="427.333" y="268.333"/>
      <point x="390.667" y="268.333" type="curve" smooth="yes"/>
      <point x="355.667" y="268.333"/>
      <point x="327" y="297.333"/>
    </contour>
  </outline>
</glyph>
<glyph name="uni03FF" format="2">
  <advance width="685"/>
  <unicode hex="03FF"/>
  <outline>
    <contour>
      <point x="35" y="117.667" type="curve"/>
      <point x="57" y="138" type="line"/>
      <point x="120.667" y="72.6667"/>
      <point x="193" y="29.6667"/>
      <point x="286.333" y="29.6667" type="curve" smooth="yes"/>
      <point x="456" y="29.6667"/>
      <point x="514.667" y="185.333"/>
      <point x="514.667" y="331.333" type="curve" smooth="yes"/>
      <point x="514.667" y="471.333"/>
      <point x="464" y="638.333"/>
      <point x="294.333" y="638.333" type="curve" smooth="yes"/>
      <point x="201" y="638.333"/>
      <point x="120.667" y="592"/>
      <point x="57" y="527.333" type="curve"/>
      <point x="35" y="547.667" type="line"/>
      <point x="97" y="631.667"/>
      <point x="200.667" y="681"/>
      <point x="304.667" y="681" type="curve" smooth="yes"/>
      <point x="506.667" y="681"/>
      <point x="651" y="535.667"/>
      <point x="651" y="334" type="curve" smooth="yes"/>
      <point x="651" y="128.667"/>
      <point x="516.667" y="-15.6667"/>
      <point x="308.667" y="-15.6667" type="curve" smooth="yes"/>
      <point x="203.333" y="-15.6667"/>
      <point x="97.6667" y="33"/>
    </contour>
    <contour>
      <point x="231.667" y="332.667" type="curve" smooth="yes"/>
      <point x="231.667" y="368.333"/>
      <point x="261" y="398.667"/>
      <point x="296.333" y="398.667" type="curve" smooth="yes"/>
      <point x="332" y="398.667"/>
      <point x="362" y="368.333"/>
      <point x="362" y="332" type="curve" smooth="yes"/>
      <point x="362" y="297.333"/>
      <point x="332" y="268.333"/>
      <point x="295.333" y="268.333" type="curve" smooth="yes"/>
      <point x="260.333" y="268.333"/>
      <point x="231.667" y="297.333"/>
    </contour>
  </outline>
</glyph>
<glyph name="uni0409" format="2">
  <advance width="986"/>
  <unicode hex="0409"/>
  <outline>
    <contour>
      <point x="23.3333" y="62.6667" type="curve" smooth="yes"/>
      <point x="23.3333" y="95.3333"/>
      <point x="48.6667" y="116.667"/>
      <point x="74.6667" y="116.667" type="curve" smooth="yes"/>
      <point x="107.333" y="116.667"/>
      <point x="121" y="96"/>
      <point x="125.667" y="76.6667" type="curve" smooth="yes"/>
      <point x="129.667" y="61"/>
      <point x="136.333" y="49.3333"/>
      <point x="145.667" y="47" type="curve"/>
      <point x="175" y="43.6667"/>
      <point x="194" y="73.3333"/>
      <point x="204.667" y="94" type="curve"/>
      <point x="242.667" y="140.667"/>
      <point x="261.667" y="231.333"/>
      <point x="261.667" y="562" type="curve" smooth="yes"/>
      <point x="261.667" y="626.667"/>
      <point x="248.333" y="639"/>
      <point x="174.667" y="645.667" type="curve"/>
      <point x="175.333" y="666.667" type="line"/>
      <point x="709.333" y="666.667" type="line"/>
      <point x="709.333" y="645.667" type="line"/>
      <point x="630.333" y="640.333"/>
      <point x="621.333" y="628"/>
      <point x="621.333" y="555" type="curve" smooth="yes"/>
      <point x="621.333" y="373.667" type="line"/>
      <point x="680.748" y="373.333"/>
      <point x="718.591" y="372.333"/>
      <point x="738.333" y="366.333" type="curve"/>
      <point x="918.667" y="356"/>
      <point x="960.667" y="258.333"/>
      <point x="960.667" y="181.333" type="curve" smooth="yes"/>
      <point x="960.667" y="46"/>
      <point x="825" y="0"/>
      <point x="698.667" y="0" type="curve" smooth="yes"/>
      <point x="412.667" y="0" type="line"/>
      <point x="412.667" y="21" type="line"/>
      <point x="489" y="27"/>
      <point x="501.333" y="39.6667"/>
      <point x="501.333" y="112" type="curve" smooth="yes"/>
      <point x="501.333" y="585.333" type="line" smooth="yes"/>
      <point x="501.333" y="618.333"/>
      <point x="489.667" y="629.667"/>
      <point x="459.667" y="629.667" type="curve" smooth="yes"/>
      <point x="347.333" y="629.667" type="line" smooth="yes"/>
      <point x="317.333" y="629.667"/>
      <point x="305.667" y="621.333"/>
      <point x="305.667" y="585.333" type="curve"/>
      <point x="305.548" y="509.121"/>
      <point x="302.067" y="371.687"/>
      <point x="286.333" y="332.667" type="curve"/>
      <point x="277.667" y="115.667"/>
      <point x="236" y="-13.3333"/>
      <point x="119.333" y="-13.3333" type="curve" smooth="yes"/>
      <point x="74.6667" y="-13.3333"/>
      <point x="23.3333" y="8.66667"/>
    </contour>
    <contour>
      <point x="621.333" y="70.6667" type="line" smooth="yes"/>
      <point x="621.333" y="45"/>
      <point x="631.667" y="36.3333"/>
      <point x="660.667" y="36.3333" type="curve" smooth="yes"/>
      <point x="778.333" y="36.3333"/>
      <point x="830.667" y="82.3333"/>
      <point x="830.667" y="187" type="curve" smooth="yes"/>
      <point x="830.667" y="272.667"/>
      <point x="787.333" y="318.667"/>
      <point x="702" y="326.333" type="curve"/>
      <point x="680.667" y="333"/>
      <point x="660.333" y="334.667"/>
      <point x="621.333" y="333.333" type="curve"/>
    </contour>
  </outline>
</glyph>
<glyph name="uni040F" format="2">
  <advance width="715"/>
  <unicode hex="040F"/>
  <outline>
    <contour>
      <point x="12" y="-1" type="line"/>
      <point x="12" y="18" type="line"/>
      <point x="89" y="25"/>
      <point x="100" y="36"/>
      <point x="100" y="108" type="curve" smooth="yes"/>
      <point x="100" y="541" type="line" smooth="yes"/>
      <point x="100" y="625"/>
      <point x="90" y="637"/>
      <point x="12" y="642" type="curve"/>
      <point x="12" y="661" type="line"/>
      <point x="290" y="661" type="line"/>
      <point x="290" y="642" type="line"/>
      <point x="217" y="636"/>
      <point x="202" y="624"/>
      <point x="202" y="559" type="curve" smooth="yes"/>
      <point x="202" y="553" type="line"/>
      <point x="203" y="74" type="line"/>
      <point x="203" y="47"/>
      <point x="208" y="37"/>
      <point x="232" y="37" type="curve" smooth="yes"/>
      <point x="235" y="37" type="line"/>
      <point x="473" y="37" type="line"/>
      <point x="500" y="38"/>
      <point x="505" y="46"/>
      <point x="505" y="74" type="curve" smooth="yes"/>
      <point x="505" y="541" type="line" smooth="yes"/>
      <point x="505" y="625"/>
      <point x="495" y="637"/>
      <point x="417" y="642" type="curve"/>
      <point x="417" y="661" type="line"/>
      <point x="695" y="661" type="line"/>
      <point x="695" y="642" type="line"/>
      <point x="620" y="636"/>
      <point x="607" y="623"/>
      <point x="607" y="552" type="curve" smooth="yes"/>
      <point x="607" y="108" type="line" smooth="yes"/>
      <point x="607" y="36"/>
      <point x="618" y="25"/>
      <point x="695" y="18" type="curve"/>
      <point x="695" y="-1" type="line"/>
      <point x="418" y="-1" type="line"/>
      <point x="382" y="-27"/>
      <point x="376" y="-171"/>
      <point x="376" y="-171" type="curve"/>
      <point x="336" y="-171" type="line"/>
      <point x="336" y="-171"/>
      <point x="332" y="-31"/>
      <point x="292" y="-1" type="curve"/>
    </contour>
  </outline>
</glyph>
<glyph name="uni0413" format="2">
  <advance width="581"/>
  <unicode hex="0413"/>
  <outline>
    <contour>
      <point x="13.3333" y="0" type="line"/>
      <point x="13.3333" y="21" type="line"/>
      <point x="83.3333" y="25.3333"/>
      <point x="100.667" y="42.6667"/>
      <point x="100.667" y="112" type="curve" smooth="yes"/>
      <point x="100.667" y="562" type="line" smooth="yes"/>
      <point x="100.667" y="630.333"/>
      <point x="77.3333" y="641.333"/>
      <point x="13.3333" y="645.667" type="curve"/>
      <point x="13.3333" y="666.667" type="line"/>
      <point x="558.333" y="666.667" type="line"/>
      <point x="558.333" y="502.333" type="line"/>
      <point x="533.667" y="502.333" type="line"/>
      <point x="512.037" y="618.823"/>
      <point x="464.479" y="630"/>
      <point x="356.841" y="630" type="curve" smooth="yes"/>
      <point x="263.667" y="630" type="line" smooth="yes"/>
      <point x="233.667" y="630"/>
      <point x="222.667" y="621.333"/>
      <point x="222.667" y="589.667" type="curve" smooth="yes"/>
      <point x="222.667" y="104.667" type="line" smooth="yes"/>
      <point x="222.667" y="36.6667"/>
      <point x="254.333" y="23.6667"/>
      <point x="320" y="21" type="curve"/>
      <point x="320" y="0" type="line"/>
    </contour>
  </outline>
</glyph>
<glyph name="uni0428" format="2">
  <advance width="1022"/>
  <unicode hex="0428"/>
  <outline>
    <contour>
      <point x="14.6667" y="0" type="line"/>
      <point x="14.6667" y="21" type="line"/>
      <point x="88.3333" y="27.6667"/>
      <point x="101.667" y="40"/>
      <point x="101.667" y="104.667" type="curve" smooth="yes"/>
      <point x="101.667" y="560" type="line" smooth="yes"/>
      <point x="101.667" y="623"/>
      <point x="88" y="638.667"/>
      <point x="14.6667" y="645.667" type="curve"/>
      <point x="14.6667" y="666.667" type="line"/>
      <point x="312.333" y="666.667" type="line"/>
      <point x="312.333" y="645.667" type="line"/>
      <point x="236" y="639.667"/>
      <point x="223.667" y="623"/>
      <point x="223.667" y="560" type="curve" smooth="yes"/>
      <point x="223.667" y="82" type="line" smooth="yes"/>
      <point x="223.667" y="49.6667"/>
      <point x="234.667" y="37"/>
      <point x="262.667" y="37" type="curve" smooth="yes"/>
      <point x="406" y="37" type="line" smooth="yes"/>
      <point x="436.012" y="37"/>
      <point x="447" y="49"/>
      <point x="447" y="82" type="curve" smooth="yes"/>
      <point x="447" y="560" type="line" smooth="yes"/>
      <point x="447" y="623"/>
      <point x="432.667" y="639"/>
      <point x="358.333" y="645.667" type="curve"/>
      <point x="358.333" y="666.667" type="line"/>
      <point x="657.51" y="666.667" type="line"/>
      <point x="657.51" y="645.667" type="line"/>
      <point x="581.058" y="639.333"/>
      <point x="569" y="623"/>
      <point x="569" y="560" type="curve" smooth="yes"/>
      <point x="569" y="82" type="line" smooth="yes"/>
      <point x="569" y="49.6667"/>
      <point x="580.029" y="37"/>
      <point x="608.168" y="37" type="curve" smooth="yes"/>
      <point x="752.481" y="37" type="line" smooth="yes"/>
      <point x="782.65" y="37"/>
      <point x="793.667" y="49"/>
      <point x="793.667" y="82" type="curve" smooth="yes"/>
      <point x="793.667" y="560" type="line" smooth="yes"/>
      <point x="793.667" y="623"/>
      <point x="780.603" y="639"/>
      <point x="705.835" y="645.667" type="curve"/>
      <point x="705.835" y="666.667" type="line"/>
      <point x="1003.67" y="666.667" type="line"/>
      <point x="1003.67" y="645.667" type="line"/>
      <point x="927.667" y="639.333"/>
      <point x="915.667" y="623"/>
      <point x="915.667" y="560" type="curve" smooth="yes"/>
      <point x="915.667" y="104.667" type="line" smooth="yes"/>
      <point x="915.667" y="40"/>
      <point x="929.667" y="27.3333"/>
      <point x="1003.67" y="21" type="curve"/>
      <point x="1003.67" y="0" type="line"/>
    </contour>
  </outline>
</glyph>
<glyph name="uni0432" format="2">
  <advance width="512"/>
  <unicode hex="0432"/>
  <outline>
    <contour>
      <point x="17.6667" y="0" type="line"/>
      <point x="17.6667" y="18.6667" type="line"/>
      <point x="69" y="24.3333"/>
      <point x="78" y="37.6667"/>
      <point x="78" y="97.3333" type="curve" smooth="yes"/>
      <point x="78" y="363.667" type="line" smooth="yes"/>
      <point x="78" y="412.667"/>
      <point x="70" y="430.333"/>
      <point x="19.6667" y="435" type="curve"/>
      <point x="19.6667" y="453.667" type="line"/>
      <point x="253" y="453.667" type="line" smooth="yes"/>
      <point x="375" y="453.667"/>
      <point x="429.333" y="412.667"/>
      <point x="429.333" y="351.114" type="curve" smooth="yes"/>
      <point x="429.333" y="290"/>
      <point x="376" y="253.333"/>
      <point x="307.333" y="241.667" type="curve"/>
      <point x="368" y="238"/>
      <point x="455.333" y="210"/>
      <point x="455.333" y="119.812" type="curve" smooth="yes"/>
      <point x="455.333" y="27.6667"/>
      <point x="364" y="0"/>
      <point x="240" y="0" type="curve" smooth="yes"/>
    </contour>
    <contour>
      <point x="180.333" y="133.333" type="line"/>
      <point x="181.271" y="118.676"/>
      <point x="184.106" y="106.038"/>
      <point x="201.129" y="106.048" type="curve" smooth="yes"/>
      <point x="226.994" y="106.256"/>
      <point x="258.41" y="110.716"/>
      <point x="264.667" y="135.503" type="curve"/>
      <point x="311.376" y="156.667"/>
      <point x="334" y="183"/>
      <point x="319.594" y="225.532" type="curve"/>
      <point x="319.408" y="263.664"/>
      <point x="291.331" y="289.654"/>
      <point x="223.669" y="289.65" type="curve" smooth="yes"/>
      <point x="202.787" y="289.477"/>
      <point x="185.148" y="283.404"/>
      <point x="180.202" y="275.478" type="curve"/>
    </contour>
    <contour>
      <point x="180.333" y="195.333" type="line"/>
      <point x="186.394" y="185.735"/>
      <point x="207.681" y="178.945"/>
      <point x="230.448" y="178.699" type="curve" smooth="yes"/>
      <point x="284.226" y="178.691"/>
      <point x="307.991" y="205.338"/>
      <point x="308.267" y="238.495" type="curve"/>
      <point x="328" y="270.667"/>
      <point x="316.667" y="301.333"/>
      <point x="261.333" y="322.049" type="curve"/>
      <point x="258.008" y="341.333"/>
      <point x="238.047" y="355.333"/>
      <point x="206" y="355.333" type="curve" smooth="yes"/>
      <point x="193.433" y="355.333"/>
      <point x="182.9" y="351.333"/>
      <point x="180.333" y="341.333" type="curve"/>
    </contour>
  </outline>
</glyph>
<glyph name="uni0434" format="2">
  <advance width="527"/>
  <unicode hex="0434"/>
  <outline>
    <contour>
      <point x="25.6667" y="-130.667" type="line"/>
      <point x="25.6667" y="30.6667" type="line"/>
      <point x="117.327" y="37.9057"/>
      <point x="164" y="126.315"/>
      <point x="164" y="360.667" type="curve" smooth="yes"/>
      <point x="164" y="415"/>
      <point x="151" y="432"/>
      <point x="106.333" y="436" type="curve"/>
      <point x="106.333" y="453.667" type="line"/>
      <point x="502.333" y="453.667" type="line"/>
      <point x="502.333" y="436" type="line"/>
      <point x="456.667" y="431.667"/>
      <point x="445.333" y="419.333"/>
      <point x="445.333" y="368" type="curve" smooth="yes"/>
      <point x="445.333" y="95.6667" type="line" smooth="yes"/>
      <point x="445.333" y="41.3333"/>
      <point x="458.333" y="34"/>
      <point x="504.667" y="30.6667" type="curve"/>
      <point x="504.667" y="-130.667" type="line"/>
      <point x="485.667" y="-130.667" type="line"/>
      <point x="471.333" y="-50.6667"/>
      <point x="443.667" y="0"/>
      <point x="358.333" y="0" type="curve" smooth="yes"/>
      <point x="172" y="0" type="line" smooth="yes"/>
      <point x="86.6667" y="0"/>
      <point x="59" y="-50.6667"/>
      <point x="44.6667" y="-130.667" type="curve"/>
    </contour>
    <contour>
      <point x="145" y="47.6667" type="curve" smooth="yes"/>
      <point x="145" y="35"/>
      <point x="153" y="30.6667"/>
      <point x="163.333" y="30.6667" type="curve" smooth="yes"/>
      <point x="285.333" y="30.6667" type="line" smooth="yes"/>
      <point x="330.667" y="30.6667"/>
      <point x="343" y="51.3333"/>
      <point x="343" y="105.667" type="curve" smooth="yes"/>
      <point x="343" y="389" type="line" smooth="yes"/>
      <point x="343" y="410.667"/>
      <point x="338" y="423"/>
      <point x="316.333" y="423" type="curve" smooth="yes"/>
      <point x="228.667" y="423" type="line" smooth="yes"/>
      <point x="207" y="423"/>
      <point x="201.333" y="410.667"/>
      <point x="201.333" y="389" type="curve" smooth="yes"/>
      <point x="201.333" y="353.333" type="line" smooth="yes"/>
      <point x="201.333" y="212.935"/>
      <point x="179.703" y="125.579"/>
      <point x="154.697" y="76.9414" type="curve" smooth="yes"/>
      <point x="146.639" y="61.1705"/>
      <point x="145" y="53.3333"/>
    </contour>
  </outline>
</glyph>
<glyph name="uni043D" format="2">
  <advance width="539"/>
  <unicode hex="043D"/>
  <outline>
    <contour>
      <point x="17.6667" y="0" type="line"/>
      <point x="17.6667" y="18" type="line"/>
      <point x="67.3333" y="25"/>
      <point x="78" y="35.3333"/>
      <point x="78" y="86.6667" type="curve" smooth="yes"/>
      <point x="78" y="368" type="line" smooth="yes"/>
      <point x="78" y="417.667"/>
      <point x="65.6667" y="430.333"/>
      <point x="19.6667" y="435.667" type="curve"/>
      <point x="19.6667" y="453.667" type="line"/>
      <point x="239.333" y="453.667" type="line"/>
      <point x="239.333" y="435.667" type="line"/>
      <point x="191.667" y="430.667"/>
      <point x="180.333" y="419.333"/>
      <point x="180.333" y="368" type="curve" smooth="yes"/>
      <point x="180.333" y="254" type="line"/>
      <point x="357.667" y="254" type="line"/>
      <point x="357.667" y="368" type="line" smooth="yes"/>
      <point x="357.667" y="419.333"/>
      <point x="346.333" y="430.667"/>
      <point x="298.667" y="435.667" type="curve"/>
      <point x="298.667" y="453.667" type="line"/>
      <point x="519" y="453.667" type="line"/>
      <point x="519" y="435.667" type="line"/>
      <point x="471.333" y="430.667"/>
      <point x="460" y="419.333"/>
      <point x="460" y="368" type="curve" smooth="yes"/>
      <point x="460" y="95" type="line" smooth="yes"/>
      <point x="460" y="33"/>
      <point x="471.333" y="23"/>
      <point x="519" y="18" type="curve"/>
      <point x="519" y="0" type="line"/>
      <point x="298.667" y="0" type="line"/>
      <point x="298.667" y="18" type="line"/>
      <point x="348.667" y="24"/>
      <point x="357.667" y="37.3333"/>
      <point x="357.667" y="95" type="curve" smooth="yes"/>
      <point x="357.667" y="221.333" type="line"/>
      <point x="180.333" y="221.333" type="line"/>
      <point x="180.333" y="85.6667" type="line" smooth="yes"/>
      <point x="180.333" y="36"/>
      <point x="192.333" y="23.6667"/>
      <point x="239.333" y="18" type="curve"/>
      <point x="239.333" y="0" type="line"/>
    </contour>
  </outline>
</glyph>
<glyph name="uni044D" format="2">
  <advance width="457"/>
  <unicode hex="044D"/>
  <outline>
    <contour>
      <point x="25.6667" y="75.6983" type="curve"/>
      <point x="45.6667" y="92.8101" type="line"/>
      <point x="78.6667" y="52.2086"/>
      <point x="129.667" y="24.6667"/>
      <point x="171.127" y="24.6667" type="curve" smooth="yes"/>
      <point x="303.167" y="24.6667"/>
      <point x="307" y="177.632"/>
      <point x="307" y="240.001" type="curve" smooth="yes"/>
      <point x="307" y="293.471"/>
      <point x="294.367" y="433"/>
      <point x="185.184" y="433" type="curve" smooth="yes"/>
      <point x="131.333" y="433"/>
      <point x="74.3333" y="398.805"/>
      <point x="53" y="314.186" type="curve"/>
      <point x="34.3333" y="314.186" type="line"/>
      <point x="34.3333" y="454.333" type="line"/>
      <point x="50.3333" y="454.333" type="line"/>
      <point x="54.5606" y="445.653"/>
      <point x="61.175" y="440.667"/>
      <point x="71.5005" y="440.667" type="curve" smooth="yes"/>
      <point x="79.3333" y="440.667"/>
      <point x="97.3945" y="443.133"/>
      <point x="113.966" y="449.415" type="curve" smooth="yes"/>
      <point x="135.066" y="456.801"/>
      <point x="172.667" y="463.333"/>
      <point x="203.302" y="463.333" type="curve" smooth="yes"/>
      <point x="343.156" y="463.333"/>
      <point x="419.667" y="362.045"/>
      <point x="419.667" y="227.333" type="curve" smooth="yes"/>
      <point x="419.667" y="97.9748"/>
      <point x="328.358" y="-12.6667"/>
      <point x="193.213" y="-12.6667" type="curve" smooth="yes"/>
      <point x="114.333" y="-12.6667"/>
      <point x="63.3333" y="25.3631"/>
    </contour>
    <contour>
      <point x="343.333" y="248.333" type="line"/>
      <point x="335.333" y="230.333"/>
      <point x="288" y="203.667"/>
      <point x="253" y="203.667" type="curve" smooth="yes"/>
      <point x="235" y="203.667"/>
      <point x="214.773" y="210.307"/>
      <point x="195.5" y="219.167" type="curve" smooth="yes"/>
      <point x="175.75" y="228.25"/>
      <point x="156" y="234.667"/>
      <point x="135.17" y="234.667" type="curve" smooth="yes"/>
      <point x="115" y="234.667"/>
      <point x="103" y="228.667"/>
      <point x="92" y="218.667" type="curve"/>
      <point x="82" y="236.333" type="line"/>
      <point x="98" y="256.6"/>
      <point x="123" y="279.333"/>
      <point x="160.962" y="279.333" type="curve" smooth="yes"/>
      <point x="180.757" y="279.333"/>
      <point x="200.186" y="273.137"/>
      <point x="219.893" y="264.166" type="curve" smooth="yes"/>
      <point x="239.684" y="255.16"/>
      <point x="260.743" y="248.333"/>
      <point x="275.102" y="248.333" type="curve" smooth="yes"/>
      <point x="298.082" y="248.333"/>
      <point x="333.895" y="266.554"/>
      <point x="343.333" y="281.867" type="curve"/>
    </contour>
  </outline>
</glyph>
<glyph name="uni044E" format="2">
  <advance width="704"/>
  <unicode hex="044E"/>
  <outline>
    <contour>
      <point x="17.6667" y="-0.333333" type="line"/>
      <point x="17.6667" y="17.3333" type="line"/>
      <point x="67.0667" y="22"/>
      <point x="77.6667" y="36.6333"/>
      <point x="77.6667" y="97.6667" type="curve" smooth="yes"/>
      <point x="77.6667" y="364" type="line" smooth="yes"/>
      <point x="77.6667" y="415.6"/>
      <point x="67.2667" y="430.017"/>
      <point x="17.3333" y="436" type="curve"/>
      <point x="17.3333" y="453.667" type="line"/>
      <point x="241.333" y="453.667" type="line"/>
      <point x="241.333" y="436" type="line"/>
      <point x="191.4" y="430.017"/>
      <point x="181" y="415.6"/>
      <point x="181" y="364" type="curve" smooth="yes"/>
      <point x="181" y="254" type="line"/>
      <point x="249" y="254" type="line"/>
      <point x="254.033" y="332.233"/>
      <point x="305.333" y="464.667"/>
      <point x="458.45" y="464.667" type="curve" smooth="yes"/>
      <point x="590.633" y="464.667"/>
      <point x="670.667" y="364.617"/>
      <point x="670.667" y="233.05" type="curve" smooth="yes"/>
      <point x="670.667" y="97.25"/>
      <point x="588.533" y="-11.3333"/>
      <point x="457.1" y="-11.3333" type="curve" smooth="yes"/>
      <point x="329.15" y="-11.3333"/>
      <point x="251.267" y="90.8667"/>
      <point x="248.667" y="218.333" type="curve"/>
      <point x="181" y="218.333" type="line"/>
      <point x="181" y="95.3333" type="line" smooth="yes"/>
      <point x="181" y="35.35"/>
      <point x="191.483" y="22.0833"/>
      <point x="239.667" y="17.3333" type="curve"/>
      <point x="239.667" y="-0.333333" type="line"/>
    </contour>
    <contour>
      <point x="353.5" y="270.3" type="curve" smooth="yes"/>
      <point x="353.5" y="151.483"/>
      <point x="378.933" y="18.3333"/>
      <point x="470.133" y="18.3333" type="curve" smooth="yes"/>
      <point x="538.833" y="18.3333"/>
      <point x="563.783" y="95.15"/>
      <point x="563.8" y="181.25" type="curve" smooth="yes"/>
      <point x="563.817" y="282.2"/>
      <point x="544.717" y="435"/>
      <point x="448.717" y="435" type="curve" smooth="yes"/>
      <point x="378.467" y="435"/>
      <point x="353.5" y="353.267"/>
    </contour>
  </outline>
</glyph>
<glyph name="uni0467" format="2">
  <advance width="671"/>
  <unicode hex="0467"/>
  <outline>
    <contour>
      <point x="15.3333" y="0" type="line"/>
      <point x="15.3333" y="18" type="line"/>
      <point x="45.3333" y="18"/>
      <point x="75" y="26.6667"/>
      <point x="114" y="94.6667" type="curve"/>
      <point x="337.333" y="453.667" type="line"/>
      <point x="350.333" y="453.667" type="line"/>
      <point x="584.333" y="70" type="line" smooth="yes"/>
      <point x="599.333" y="45"/>
      <point x="610" y="18"/>
      <point x="651.667" y="18" type="curve"/>
      <point x="651.667" y="0" type="line"/>
      <point x="430.667" y="0" type="line"/>
      <point x="430.667" y="18" type="line"/>
      <point x="460.333" y="18"/>
      <point x="472.667" y="25.3333"/>
      <point x="472.667" y="38" type="curve" smooth="yes"/>
      <point x="472.667" y="53"/>
      <point x="462.333" y="67"/>
      <point x="450.333" y="89" type="curve"/>
      <point x="418.333" y="141.333" type="line"/>
      <point x="374.667" y="141.333"/>
      <point x="317.333" y="130"/>
      <point x="317.333" y="0" type="curve"/>
      <point x="279.333" y="0" type="line"/>
      <point x="279.333" y="131"/>
      <point x="214" y="141.333"/>
      <point x="183" y="141.333" type="curve"/>
      <point x="134.667" y="63.6667" type="line"/>
      <point x="127.667" y="53.6667"/>
      <point x="125.667" y="43"/>
      <point x="125.667" y="38" type="curve" smooth="yes"/>
      <point x="125.667" y="19"/>
      <point x="152.667" y="18"/>
      <point x="168.667" y="18" type="curve"/>
      <point x="168.667" y="0" type="line"/>
    </contour>
    <contour>
      <point x="204" y="176.667" type="line"/>
      <point x="238.667" y="176.667"/>
      <point x="278" y="156.333"/>
      <point x="299.333" y="131" type="curve"/>
      <point x="322.667" y="157.667"/>
      <point x="360.667" y="176.667"/>
      <point x="396" y="176.667" type="curve"/>
      <point x="300.667" y="331" type="line"/>
    </contour>
  </outline>
</glyph>
<glyph name="uni046E" format="2">
  <advance width="563"/>
  <unicode hex="046E"/>
  <outline>
    <contour>
      <point x="31.6667" y="542.333" type="curve" smooth="yes"/>
      <point x="31.6667" y="622"/>
      <point x="123.333" y="680.667"/>
      <point x="210.333" y="680.667" type="curve"/>
      <point x="98" y="855" type="line"/>
      <point x="186.667" y="855" type="line"/>
      <point x="278.667" y="703" type="line"/>
      <point x="329.667" y="793" type="line"/>
      <point x="355.667" y="832"/>
      <point x="389.667" y="861"/>
      <point x="426.667" y="861" type="curve" smooth="yes"/>
      <point x="470.667" y="861"/>
      <point x="490" y="838.667"/>
      <point x="490" y="806.667" type="curve" smooth="yes"/>
      <point x="490" y="787"/>
      <point x="475.333" y="757"/>
      <point x="440.333" y="757" type="curve" smooth="yes"/>
      <point x="421.333" y="757"/>
      <point x="416.333" y="760.667"/>
      <point x="404.333" y="764.667" type="curve"/>
      <point x="396.333" y="768.667"/>
      <point x="385.333" y="776.333"/>
      <point x="370.333" y="776.333" type="curve" smooth="yes"/>
      <point x="356" y="776.333"/>
      <point x="345.333" y="768"/>
      <point x="336" y="752" type="curve" smooth="yes"/>
      <point x="293.333" y="680.667" type="line"/>
      <point x="386" y="680.667"/>
      <point x="495.333" y="627"/>
      <point x="495.333" y="519" type="curve" smooth="yes"/>
      <point x="495.333" y="432.333"/>
      <point x="399" y="376"/>
      <point x="327.667" y="361.667" type="curve"/>
      <point x="325.667" y="356.333" type="line"/>
      <point x="349.36" y="353.667"/>
      <point x="400.602" y="341.333"/>
      <point x="401.333" y="293.667" type="curve"/>
      <point x="424.667" y="252.667"/>
      <point x="485" y="198.333"/>
      <point x="429.333" y="115.667" type="curve"/>
      <point x="413.333" y="26.3333"/>
      <point x="316" y="-10.6667"/>
      <point x="229.667" y="-10.6667" type="curve" smooth="yes"/>
      <point x="182.667" y="-10.6667"/>
      <point x="147.667" y="-13.3333"/>
      <point x="128.333" y="-25.3333" type="curve" smooth="yes"/>
      <point x="98.3333" y="-43.6667"/>
      <point x="115.333" y="-83.6667"/>
      <point x="136.333" y="-107.667" type="curve"/>
      <point x="154.333" y="-144.333"/>
      <point x="212" y="-162.667"/>
      <point x="253" y="-155.667" type="curve" smooth="yes"/>
      <point x="296.667" y="-147.667"/>
      <point x="325.667" y="-121.667"/>
      <point x="349" y="-113.667" type="curve"/>
      <point x="384.667" y="-95.6667"/>
      <point x="408.333" y="-73.6667"/>
      <point x="431.667" y="-83.3333" type="curve"/>
      <point x="449" y="-110"/>
      <point x="414.333" y="-133.333"/>
      <point x="384.667" y="-150" type="curve"/>
      <point x="342" y="-191.333"/>
      <point x="237.333" y="-192.667"/>
      <point x="180.667" y="-157" type="curve"/>
      <point x="113.333" y="-130"/>
      <point x="58.6667" y="-76.6667"/>
      <point x="75.6667" y="-5.33333" type="curve"/>
      <point x="87.3333" y="48.6667"/>
      <point x="157.667" y="62.6667"/>
      <point x="201.333" y="62.6667" type="curve" smooth="yes"/>
      <point x="252" y="62.6667"/>
      <point x="301.333" y="74.6667"/>
      <point x="320.667" y="98" type="curve"/>
      <point x="368.667" y="124.667"/>
      <point x="369.333" y="190.667"/>
      <point x="342" y="225.333" type="curve"/>
      <point x="316.333" y="305.333"/>
      <point x="236" y="322.667"/>
      <point x="199.333" y="280.333" type="curve"/>
      <point x="165.595" y="280.333"/>
      <point x="126.633" y="273.667"/>
      <point x="112" y="194.333" type="curve"/>
      <point x="96.3333" y="257.667" type="line"/>
      <point x="154" y="368.333" type="line"/>
      <point x="231" y="368" type="line"/>
      <point x="271" y="368"/>
      <point x="370.333" y="372.333"/>
      <point x="370.333" y="522.333" type="curve" smooth="yes"/>
      <point x="370.333" y="624.333"/>
      <point x="293.667" y="643.667"/>
      <point x="254.333" y="643.667" type="curve" smooth="yes"/>
      <point x="204.333" y="643.667"/>
      <point x="170" y="638.333"/>
      <point x="153.667" y="606.667" type="curve" smooth="yes"/>
      <point x="150.351" y="600.298"/>
      <point x="149.199" y="593.286"/>
      <point x="149.199" y="585.691" type="curve" smooth="yes"/>
      <point x="149.199" y="570.693"/>
      <point x="155" y="555.684"/>
      <point x="155" y="545.333" type="curve" smooth="yes"/>
      <point x="155" y="508.333"/>
      <point x="136" y="479"/>
      <point x="94.6667" y="479" type="curve" smooth="yes"/>
      <point x="53.6667" y="479"/>
      <point x="31.6667" y="511.333"/>
    </contour>
  </outline>
</glyph>
<glyph name="uni047B" format="2">
  <advance width="637"/>
  <unicode hex="047B"/>
  <outline>
    <contour>
      <point x="27.3333" y="227.333" type="curve" smooth="yes"/>
      <point x="27.3333" y="379.333"/>
      <point x="168.333" y="465.333"/>
      <point x="274.333" y="465.333" type="curve"/>
      <point x="274.333" y="484"/>
      <point x="292.333" y="505.333"/>
      <point x="319" y="505.333" type="curve" smooth="yes"/>
      <point x="345.667" y="505.333"/>
      <point x="362.667" y="484"/>
      <point x="362.667" y="465.333" type="curve"/>
      <point x="468.667" y="465.333"/>
      <point x="609.333" y="379.333"/>
      <point x="609.333" y="227.333" type="curve" smooth="yes"/>
      <point x="609.333" y="72.6667"/>
      <point x="476.667" y="-11"/>
      <point x="362.667" y="-11" type="curve"/>
      <point x="362.667" y="-29.6667"/>
      <point x="345.667" y="-51.3333"/>
      <point x="319" y="-51.3333" type="curve" smooth="yes"/>
      <point x="292.333" y="-51.3333"/>
      <point x="274.333" y="-29.6667"/>
      <point x="274.333" y="-11" type="curve"/>
      <point x="159.667" y="-11"/>
      <point x="27.3333" y="72.6667"/>
    </contour>
    <contour>
      <point x="133" y="227.333" type="curve" smooth="yes"/>
      <point x="133" y="100"/>
      <point x="207" y="18.6667"/>
      <point x="274.333" y="18.6667" type="curve"/>
      <point x="274.333" y="37.3333"/>
      <point x="292.333" y="58.6667"/>
      <point x="319" y="58.6667" type="curve" smooth="yes"/>
      <point x="345.667" y="58.6667"/>
      <point x="362.667" y="37.3333"/>
      <point x="362.667" y="18.6667" type="curve"/>
      <point x="430.667" y="18.6667"/>
      <point x="504.333" y="100"/>
      <point x="504.333" y="227.333" type="curve" smooth="yes"/>
      <point x="504.333" y="362.667"/>
      <point x="425.333" y="435.667"/>
      <point x="362.667" y="435.667" type="curve"/>
      <point x="362.667" y="417"/>
      <point x="345.667" y="395.333"/>
      <point x="319" y="395.333" type="curve" smooth="yes"/>
      <point x="292.333" y="395.333"/>
      <point x="274.333" y="417"/>
      <point x="274.333" y="435.667" type="curve"/>
      <point x="211" y="435.667"/>
      <point x="133" y="362.667"/>
    </contour>
  </outline>
</glyph>
<glyph name="uni0498" format="2">
  <advance width="604"/>
  <unicode hex="0498"/>
  <outline>
    <contour>
      <point x="26" y="126.333" type="curve"/>
      <point x="45.3333" y="142.667" type="line"/>
      <point x="99.3333" y="73.3333"/>
      <point x="195.333" y="32"/>
      <point x="274" y="32" type="curve" smooth="yes"/>
      <point x="379" y="32"/>
      <point x="431.667" y="98.3333"/>
      <point x="431.667" y="181.333" type="curve" smooth="yes"/>
      <point x="431.667" y="261.333"/>
      <point x="378.667" y="330"/>
      <point x="239.667" y="330" type="curve"/>
      <point x="239.667" y="369.667" type="line"/>
      <point x="328" y="369.667"/>
      <point x="417.333" y="404.333"/>
      <point x="417.333" y="518.667" type="curve" smooth="yes"/>
      <point x="417.333" y="589.333"/>
      <point x="364" y="641.667"/>
      <point x="286.667" y="641.667" type="curve" smooth="yes"/>
      <point x="200.667" y="641.667"/>
      <point x="113.333" y="596.333"/>
      <point x="80.6667" y="475.333" type="curve"/>
      <point x="53.6667" y="475.333" type="line"/>
      <point x="59" y="670.667" type="line"/>
      <point x="81.3333" y="670.667" type="line"/>
      <point x="87.3333" y="658.667"/>
      <point x="95" y="645.333"/>
      <point x="122" y="645.333" type="curve" smooth="yes"/>
      <point x="142.333" y="645.333"/>
      <point x="216" y="681"/>
      <point x="303.667" y="681" type="curve" smooth="yes"/>
      <point x="426" y="681"/>
      <point x="539.333" y="626.667"/>
      <point x="539.333" y="520.667" type="curve" smooth="yes"/>
      <point x="539.333" y="412"/>
      <point x="428.667" y="368.667"/>
      <point x="382" y="359" type="curve"/>
      <point x="382" y="356" type="line"/>
      <point x="430.333" y="354.333"/>
      <point x="569.333" y="310.667"/>
      <point x="569.333" y="186" type="curve" smooth="yes"/>
      <point x="569.333" y="82"/>
      <point x="485.333" y="-1.66667"/>
      <point x="342.333" y="-14.6667" type="curve"/>
      <point x="342" y="-16.6667" type="line"/>
      <point x="370" y="-30.6667"/>
      <point x="399.333" y="-70"/>
      <point x="399.333" y="-104.333" type="curve" smooth="yes"/>
      <point x="399.333" y="-172"/>
      <point x="354.667" y="-212"/>
      <point x="285.667" y="-212" type="curve" smooth="yes"/>
      <point x="241.667" y="-212"/>
      <point x="196.333" y="-187.667"/>
      <point x="170" y="-136.333" type="curve"/>
      <point x="190.667" y="-121" type="line"/>
      <point x="213.333" y="-148"/>
      <point x="238" y="-152.667"/>
      <point x="260.667" y="-152.667" type="curve" smooth="yes"/>
      <point x="303.667" y="-152.667"/>
      <point x="324" y="-120"/>
      <point x="324" y="-79.3333" type="curve" smooth="yes"/>
      <point x="324" y="-37.3333"/>
      <point x="300" y="-16.3333"/>
      <point x="274" y="-16" type="curve" smooth="yes"/>
      <point x="184.333" y="-13.6667"/>
      <point x="75.6667" y="43"/>
    </contour>
  </outline>
</glyph>
<glyph name="uni0499" format="2">
  <advance width="431"/>
  <unicode hex="0499"/>
  <outline>
    <contour>
      <point x="24.6667" y="81.3333" type="curve"/>
      <point x="40.3333" y="93.6667" type="line"/>
      <point x="76" y="50.6667"/>
      <point x="134.667" y="28"/>
      <point x="190.667" y="28" type="curve" smooth="yes"/>
      <point x="259.667" y="28"/>
      <point x="301.333" y="70"/>
      <point x="301.333" y="129" type="curve" smooth="yes"/>
      <point x="301.333" y="161.333"/>
      <point x="282.667" y="227.667"/>
      <point x="181.333" y="227.667" type="curve"/>
      <point x="181.333" y="257.667" type="line"/>
      <point x="232" y="257.667"/>
      <point x="289.333" y="272.667"/>
      <point x="289.333" y="351.333" type="curve" smooth="yes"/>
      <point x="289.333" y="399.333"/>
      <point x="255.333" y="435"/>
      <point x="201.333" y="435" type="curve" smooth="yes"/>
      <point x="139.667" y="435"/>
      <point x="88" y="403.333"/>
      <point x="64.3333" y="316.333" type="curve"/>
      <point x="46" y="316.333" type="line"/>
      <point x="48.6667" y="457" type="line"/>
      <point x="63.3333" y="457" type="line"/>
      <point x="65.6538" y="451.679"/>
      <point x="68.4286" y="449.238"/>
      <point x="72.6667" y="449" type="curve"/>
      <point x="83.6667" y="443.667"/>
      <point x="91.3333" y="446"/>
      <point x="99" y="447.333" type="curve"/>
      <point x="138.667" y="448.667"/>
      <point x="164" y="463.667"/>
      <point x="213" y="463.667" type="curve" smooth="yes"/>
      <point x="304" y="463.667"/>
      <point x="383.667" y="427.333"/>
      <point x="383.667" y="345.333" type="curve" smooth="yes"/>
      <point x="383.667" y="287"/>
      <point x="327.333" y="253.333"/>
      <point x="288.667" y="248.667" type="curve"/>
      <point x="288" y="245.333" type="line"/>
      <point x="329" y="240.667"/>
      <point x="403.333" y="205.333"/>
      <point x="403.333" y="128" type="curve" smooth="yes"/>
      <point x="403.333" y="54.6667"/>
      <point x="338.667" y="1.66667"/>
      <point x="242.333" y="-8.66667" type="curve"/>
      <point x="270.667" y="-33.6667"/>
      <point x="289.333" y="-62.3333"/>
      <point x="289.333" y="-94.6667" type="curve" smooth="yes"/>
      <point x="289.333" y="-135.667"/>
      <point x="256" y="-166.667"/>
      <point x="212.333" y="-166.667" type="curve" smooth="yes"/>
      <point x="171.667" y="-166.667"/>
      <point x="136.333" y="-143.667"/>
      <point x="105" y="-96" type="curve"/>
      <point x="124" y="-81.6667" type="line"/>
      <point x="148" y="-101.667"/>
      <point x="166" y="-111"/>
      <point x="187.333" y="-111" type="curve" smooth="yes"/>
      <point x="213" y="-111"/>
      <point x="229.667" y="-93.3333"/>
      <point x="229.667" y="-67.3333" type="curve" smooth="yes"/>
      <point x="229.667" y="-45"/>
      <point x="214.333" y="-9"/>
      <point x="188.333" y="-8.33333" type="curve" smooth="yes"/>
      <point x="106" y="-5.33333"/>
      <point x="43.6667" y="45.6667"/>
    </contour>
  </outline>
</glyph>
<glyph name="uni04A1" format="2">
  <advance width="604"/>
  <unicode hex="04A1"/>
  <outline>
    <contour>
      <point x="13.3333" y="323" type="line"/>
      <point x="18.3333" y="453.667" type="line"/>
      <point x="323" y="453.667" type="line"/>
      <point x="322" y="435" type="line"/>
      <point x="271.667" y="428.667"/>
      <point x="262" y="419.333"/>
      <point x="262" y="366.333" type="curve" smooth="yes"/>
      <point x="262" y="253.333" type="line"/>
      <point x="288.333" y="253.333" type="line" smooth="yes"/>
      <point x="331.667" y="253.333"/>
      <point x="368.667" y="313.333"/>
      <point x="384" y="356.667" type="curve" smooth="yes"/>
      <point x="407.333" y="419.333"/>
      <point x="447" y="459.333"/>
      <point x="488" y="459.333" type="curve" smooth="yes"/>
      <point x="526.667" y="459.333"/>
      <point x="550" y="437.667"/>
      <point x="550" y="404.667" type="curve" smooth="yes"/>
      <point x="550" y="372.667"/>
      <point x="528.667" y="352.667"/>
      <point x="504" y="352.667" type="curve" smooth="yes"/>
      <point x="487" y="352.667"/>
      <point x="476.667" y="360.667"/>
      <point x="466.667" y="372" type="curve" smooth="yes"/>
      <point x="460" y="379.333"/>
      <point x="457.333" y="390.667"/>
      <point x="445.667" y="390.667" type="curve" smooth="yes"/>
      <point x="414" y="390.667"/>
      <point x="408.667" y="287.667"/>
      <point x="346.667" y="250.667" type="curve"/>
      <point x="346.667" y="248" type="line"/>
      <point x="445.667" y="229"/>
      <point x="468.667" y="125.333"/>
      <point x="523.333" y="54" type="curve"/>
      <point x="546.667" y="26"/>
      <point x="553.333" y="20"/>
      <point x="591.667" y="18" type="curve"/>
      <point x="591.667" y="0" type="line"/>
      <point x="444.667" y="0" type="line"/>
      <point x="331.667" y="191.333" type="line"/>
      <point x="317.667" y="212.667"/>
      <point x="298.667" y="218.667"/>
      <point x="276.333" y="218.667" type="curve" smooth="yes"/>
      <point x="262.667" y="218.667" type="line"/>
      <point x="262.667" y="86.6667" type="line" smooth="yes"/>
      <point x="262.667" y="33.6667"/>
      <point x="272.333" y="24.3333"/>
      <point x="322.667" y="18" type="curve"/>
      <point x="322.667" y="0" type="line"/>
      <point x="101.667" y="0" type="line"/>
      <point x="101.667" y="18" type="line"/>
      <point x="147.333" y="23"/>
      <point x="160.333" y="36.3333"/>
      <point x="160.333" y="86.6667" type="curve" smooth="yes"/>
      <point x="160.333" y="382" type="line" smooth="yes"/>
      <point x="160.333" y="398.053"/>
      <point x="156.449" y="406.105"/>
      <point x="146.449" y="408.636" type="curve"/>
      <point x="144.123" y="415.723"/>
      <point x="136.467" y="421.333"/>
      <point x="127.333" y="421.333" type="curve" smooth="yes"/>
      <point x="70.3333" y="421.333"/>
      <point x="48.3333" y="403.333"/>
      <point x="34" y="323" type="curve"/>
    </contour>
  </outline>
</glyph>
<glyph name="uni04A3" format="2">
  <advance width="542"/>
  <unicode hex="04A3"/>
  <outline>
    <contour>
      <point x="17.6667" y="0" type="line"/>
      <point x="17.6667" y="18" type="line"/>
      <point x="67.3333" y="25"/>
      <point x="78" y="35.3333"/>
      <point x="78" y="86.6667" type="curve" smooth="yes"/>
      <point x="78" y="368" type="line" smooth="yes"/>
      <point x="78" y="417.667"/>
      <point x="65.6667" y="430.333"/>
      <point x="19.6667" y="435.667" type="curve"/>
      <point x="19.6667" y="453.667" type="line"/>
      <point x="239.333" y="453.667" type="line"/>
      <point x="239.333" y="435.667" type="line"/>
      <point x="191.667" y="430.667"/>
      <point x="180.333" y="419.333"/>
      <point x="180.333" y="368" type="curve" smooth="yes"/>
      <point x="180.333" y="254" type="line"/>
      <point x="357.667" y="254" type="line"/>
      <point x="357.667" y="368" type="line" smooth="yes"/>
      <point x="357.667" y="419.333"/>
      <point x="346.333" y="430.667"/>
      <point x="298.667" y="435.667" type="curve"/>
      <point x="298.667" y="453.667" type="line"/>
      <point x="519" y="453.667" type="line"/>
      <point x="519" y="435.667" type="line"/>
      <point x="471.333" y="430.667"/>
      <point x="460" y="419.333"/>
      <point x="460" y="368" type="curve" smooth="yes"/>
      <point x="460" y="95.6667" type="line" smooth="yes"/>
      <point x="460" y="41.3333"/>
      <point x="473" y="24.6667"/>
      <point x="517.667" y="20.6667" type="curve"/>
      <point x="522" y="-130.667" type="line"/>
      <point x="501.333" y="-130.667" type="line"/>
      <point x="487" y="-50.3333"/>
      <point x="458.333" y="0"/>
      <point x="371.667" y="0" type="curve" smooth="yes"/>
      <point x="298.667" y="0" type="line"/>
      <point x="298.667" y="18" type="line"/>
      <point x="348.667" y="24"/>
      <point x="357.667" y="37.3333"/>
      <point x="357.667" y="95" type="curve" smooth="yes"/>
      <point x="357.667" y="221.333" type="line"/>
      <point x="180.333" y="221.333" type="line"/>
      <point x="180.333" y="85.6667" type="line" smooth="yes"/>
      <point x="180.333" y="36"/>
      <point x="192.333" y="23.6667"/>
      <point x="239.333" y="18" type="curve"/>
      <point x="239.333" y="0" type="line"/>
    </contour>
  </outline>
</glyph>
